<?xml version="1.0" encoding="UTF-8"?>
<svg id="States" xmlns="http://www.w3.org/2000/svg" viewBox="0 0 50 50">
  <defs>
    <style>
      .cls-1 {
        opacity: 0;
      }

      .cls-1, .cls-2, .cls-3 {
        stroke-width: 0px;
      }

      .cls-1, .cls-3 {
        fill: #fff;
      }

      .cls-2 {
        fill: #00d15f;
      }
    </style>
  </defs>
  <g id="Active">
    <rect id="BG" class="cls-1" width="50" height="50"/>
    <path class="cls-2" d="M25,36.5c-6.35,0-11.5-5.15-11.5-11.5s5.15-11.5,11.5-11.5,11.5,5.15,11.5,11.5-5.15,11.5-11.5,11.5Z"/>
    <path class="cls-3" d="M23.01,19.14c.12,0,.22.04.32.13l6.15,5.36c.15.13.17.29.17.38s-.02.25-.17.38l-6.15,5.36c-.1.08-.2.13-.32.13-.21,0-.51-.16-.51-.5v-10.72c0-.35.3-.5.51-.5M23.01,18.14c-.77,0-1.51.61-1.51,1.5v10.72c0,.9.73,1.5,1.51,1.5.34,0,.68-.12.98-.37l6.15-5.36c.69-.6.69-1.66,0-2.26l-6.15-5.36c-.29-.26-.64-.37-.98-.37h0Z"/>
  </g>
</svg>