<?xml version="1.0" encoding="UTF-8"?>
<svg id="Veeam_product_1" data-name="Veeam product 1" xmlns="http://www.w3.org/2000/svg" viewBox="0 0 50 50">
  <defs>
    <style>
      .cls-1 {
        fill: none;
        stroke: #fff;
        stroke-linejoin: round;
        stroke-width: 1.56px;
      }

      .cls-2 {
        opacity: 0;
      }

      .cls-2, .cls-3, .cls-4 {
        stroke-width: 0px;
      }

      .cls-2, .cls-4 {
        fill: #fff;
      }

      .cls-3 {
        fill: #00d15f;
      }
    </style>
  </defs>
  <g id="AI">
    <rect id="BG" class="cls-2" width="50" height="50"/>
    <path class="cls-3" d="M33.19,8H10c-1.1,0-2,.9-2,2v30c0,1.1.9,2,2,2h30c1.1,0,2-.9,2-2v-23.19c0-.53-.21-1.04-.59-1.41l-6.81-6.81c-.38-.38-.88-.59-1.41-.59Z"/>
    <g>
      <path class="cls-4" d="M34.79,22.5c-1.11,0-2.04.74-2.36,1.74h-14.75s0,1.5,0,1.5h14.75c.32,1.01,1.25,1.74,2.36,1.74,1.37,0,2.49-1.12,2.49-2.49s-1.12-2.49-2.49-2.49ZM34.79,25.98c-.55,0-.99-.44-.99-.99s.44-.99.99-.99.99.44.99.99-.44.99-.99.99Z"/>
      <path class="cls-4" d="M31.89,15.47c-1.11,0-2.04.74-2.36,1.74h-1.31c-.29,0-.56.17-.68.44l-1.07,2.38h-5.9v1.5h6.39c.29,0,.56-.17.68-.44l1.07-2.38h.82c.32,1.01,1.25,1.74,2.36,1.74,1.37,0,2.49-1.12,2.49-2.49s-1.12-2.49-2.49-2.49ZM31.89,18.95c-.55,0-.99-.44-.99-.99s.44-.99.99-.99.99.44.99.99-.44.99-.99.99Z"/>
      <path class="cls-4" d="M34.42,32.04c0-1.37-1.12-2.49-2.49-2.49-1.11,0-2.04.74-2.36,1.74h-.82l-1.07-2.38c-.12-.27-.39-.44-.68-.44h-6.39v1.5h5.9l1.07,2.38c.12.27.39.44.68.44h1.31c.32,1.01,1.25,1.74,2.36,1.74,1.37,0,2.49-1.12,2.49-2.49ZM32.92,32.04c0,.55-.44.99-.99.99s-.99-.44-.99-.99.44-.99.99-.99.99.44.99.99Z"/>
      <path class="cls-1" d="M24.72,16.73v16.66c0,1.6-1.41,2.89-3.14,2.89s-3.14-1.27-3.14-2.86h0v-.33c-.37.07-.81.12-1.08.12-1.41,0-2.55-1.14-2.55-2.55,0-.69.27-1.31.72-1.77h0c-1.85-.79-2.67-2.39-2.67-3.92s.77-3.15,2.67-3.91h0c-.44-.46-.72-1.08-.72-1.77,0-1.41,1.14-2.55,2.55-2.55.27,0,.61,0,.94.03h0c0-1.6,1.54-3.03,3.27-3.03s3.14,1.3,3.14,2.89v16.66"/>
    </g>
  </g>
</svg>