<?xml version="1.0" encoding="UTF-8"?>
<svg id="Miscellaneous" xmlns="http://www.w3.org/2000/svg" viewBox="0 0 50 50">
  <defs>
    <style>
      .cls-1 {
        stroke: #fff;
        stroke-miterlimit: 10;
        stroke-width: 1.5px;
      }

      .cls-1, .cls-2 {
        fill: #505861;
      }

      .cls-3 {
        fill: #505861;
      }

      .cls-3, .cls-4, .cls-5, .cls-2 {
        stroke-width: 0px;
      }

      .cls-4 {
        opacity: 0;
      }

      .cls-4, .cls-5 {
        fill: #fff;
      }
    </style>
  </defs>
  <g id="Alarm">
    <rect id="BG" class="cls-4" x="0" width="50" height="50"/>
    <rect class="cls-3" x="10" y="10" width="30" height="30" rx="2" ry="2"/>
    <g>
      <g>
        <g>
          <line class="cls-1" x1="30" y1="20.68" x2="34.07" y2="17.86"/>
          <line class="cls-1" x1="31.31" y1="22.49" x2="34.5" y2="21.86"/>
          <line class="cls-1" x1="28.39" y1="19.18" x2="30.25" y2="16.5"/>
        </g>
        <g>
          <path class="cls-5" d="M18.29,34.25v-9.52c0-3.57,2.91-6.48,6.48-6.48s6.48,2.91,6.48,6.48v9.52h-12.96Z"/>
          <path class="cls-2" d="M24.77,19c3.17,0,5.73,2.57,5.73,5.73v8.77h-11.46v-8.77c0-3.17,2.57-5.73,5.73-5.73h0M24.77,17.5c-3.99,0-7.23,3.24-7.23,7.23v10.27h14.46v-10.27c0-3.99-3.24-7.23-7.23-7.23h0Z"/>
        </g>
        <g>
          <path class="cls-2" d="M19.79,32.75v-8.02c0-2.75,2.23-4.98,4.98-4.98s4.98,2.23,4.98,4.98v8.02h-9.96Z"/>
          <path class="cls-5" d="M24.77,20.5c2.33,0,4.23,1.9,4.23,4.23v7.27h-8.46v-7.27c0-2.33,1.9-4.23,4.23-4.23M24.77,19h0c-3.17,0-5.73,2.57-5.73,5.73v8.77h11.46v-8.77c0-3.17-2.57-5.73-5.73-5.73h0Z"/>
        </g>
        <rect class="cls-5" x="17" y="32" width="15.5" height="1.5"/>
      </g>
      <rect class="cls-5" x="24" y="16.5" width="1.5" height="3.5" rx=".75" ry=".75"/>
    </g>
  </g>
</svg>