<?xml version="1.0" encoding="UTF-8"?>
<svg id="Software_1" data-name="Software 1" xmlns="http://www.w3.org/2000/svg" viewBox="0 0 50 50">
  <defs>
    <style>
      .cls-1 {
        fill: none;
        stroke: #fff;
        stroke-miterlimit: 10;
        stroke-width: 1.5px;
      }

      .cls-2 {
        fill: #fff;
        opacity: 0;
      }

      .cls-2, .cls-3 {
        stroke-width: 0px;
      }

      .cls-3 {
        fill: #00d15f;
      }
    </style>
  </defs>
  <g id="Antivirus">
    <rect id="BG" class="cls-2" x="0" width="50" height="50"/>
    <path class="cls-3" d="M33.19,8H10c-1.1,0-2,.9-2,2v30c0,1.1.9,2,2,2h30c1.1,0,2-.9,2-2v-23.19c0-.53-.21-1.04-.59-1.41l-6.81-6.81c-.38-.38-.88-.59-1.41-.59Z"/>
    <g>
      <g>
        <rect class="cls-1" x="22.45" y="19.87" width="5.18" height="9.13" rx="2.59" ry="2.59"/>
        <line class="cls-1" x1="22.07" y1="25.09" x2="19.53" y2="25.09"/>
        <line class="cls-1" x1="30.61" y1="24.99" x2="27.92" y2="24.99"/>
        <line class="cls-1" x1="27.63" y1="22.45" x2="30.61" y2="22.45"/>
        <line class="cls-1" x1="19.5" y1="22.45" x2="28.69" y2="22.45"/>
        <line class="cls-1" x1="22.45" y1="27.3" x2="19.88" y2="28.71"/>
        <line class="cls-1" x1="27.63" y1="27.3" x2="30.22" y2="28.71"/>
      </g>
      <path class="cls-1" d="M24.42,13.41l-7.67,1.72c-.91.2-1.56,1.02-1.56,1.95v9.94c0,.19.02.38.08.57,1.74,6.17,6.78,9.01,8.77,9.92.52.24,1.12.24,1.64,0,1.99-.91,7.03-3.75,8.77-9.92.05-.18.08-.38.08-.57v-9.94c0-.94-.65-1.75-1.56-1.95l-7.67-1.72c-.29-.06-.59-.06-.87,0Z"/>
    </g>
  </g>
</svg>