<?xml version="1.0" encoding="UTF-8"?>
<svg id="Veeam_features" data-name="Veeam features" xmlns="http://www.w3.org/2000/svg" viewBox="0 0 50 50">
  <defs>
    <style>
      .cls-1 {
        opacity: 0;
      }

      .cls-1, .cls-2, .cls-3 {
        stroke-width: 0px;
      }

      .cls-1, .cls-3 {
        fill: #fff;
      }

      .cls-2 {
        fill: #00d15f;
      }

      .cls-4 {
        fill: none;
        stroke: #00d15f;
        stroke-miterlimit: 10;
      }
    </style>
  </defs>
  <g id="Application-aware_image_processing" data-name="Application-aware image processing">
    <rect id="BG" class="cls-1" width="50" height="50"/>
    <rect class="cls-2" x="8" y="8" width="34" height="34" rx="2" ry="2"/>
    <rect class="cls-3" x="8" y="12" width="34" height="1.5"/>
    <g>
      <path class="cls-3" d="M32,27.5c0,3.59-3.02,6.5-6.75,6.5s-6.75-2.91-6.75-6.5,3.02-6.5,6.75-6.5,6.75,2.91,6.75,6.5Z"/>
      <path class="cls-3" d="M26.63,16c.95,0,1.72.74,1.72,1.66h0c0,.66.4,1.23,1.01,1.51.46.21.9.46,1.31.73.31.2.66.31,1.01.31.29,0,.58-.07.85-.22h0c.27-.15.57-.23.86-.23.59,0,1.17.3,1.49.83l1.38,2.3c.48.79.19,1.81-.63,2.27-.59.33-.9.95-.85,1.6.02.24.03.49.03.73s-.01.49-.03.73c-.05.65.26,1.27.85,1.6h0c.82.46,1.1,1.47.63,2.27l-1.38,2.3c-.32.53-.9.83-1.49.83-.29,0-.59-.07-.86-.22h0c-.26-.15-.55-.22-.85-.22-.35,0-.71.11-1.01.31-.42.28-.85.52-1.31.73-.61.28-1.01.86-1.01,1.51h0c0,.92-.77,1.67-1.72,1.67h-2.76c-.95,0-1.72-.74-1.72-1.66h0c0-.66-.4-1.23-1.01-1.51-.46-.21-.9-.46-1.31-.73-.31-.2-.66-.31-1.01-.31-.29,0-.58.07-.85.22h0c-.27.15-.57.23-.86.23-.59,0-1.17-.3-1.49-.83l-1.38-2.3c-.48-.79-.19-1.81.63-2.27.59-.33.9-.95.85-1.6-.02-.24-.03-.49-.03-.73s.01-.49.03-.73c.05-.65-.26-1.27-.85-1.6-.82-.46-1.1-1.47-.63-2.27l1.38-2.3c.32-.53.9-.83,1.49-.83.29,0,.59.07.86.22h0c.26.15.55.22.85.22.35,0,.71-.11,1.01-.31.42-.28.85-.52,1.31-.73.61-.28,1.01-.86,1.01-1.51h0c0-.92.77-1.67,1.72-1.67h2.76M25.25,34.5c3.87,0,7-3.13,7-7s-3.13-7-7-7-7,3.13-7,7,3.13,7,7,7M26.63,14.5h-2.76c-1.78,0-3.22,1.42-3.22,3.16,0,.05-.06.11-.13.15-.53.24-1.04.53-1.52.85-.06.04-.12.06-.18.06-.04,0-.08,0-.12-.03-.49-.27-1.04-.42-1.6-.42-1.14,0-2.2.6-2.78,1.56l-1.38,2.3c-.44.73-.56,1.58-.34,2.4.22.83.76,1.52,1.52,1.94.08.04.09.11.08.16-.02.28-.04.57-.04.86s.01.57.04.86c0,.05,0,.12-.08.16-.76.42-1.3,1.11-1.53,1.94-.22.82-.1,1.67.34,2.4l1.38,2.3c.58.96,1.64,1.56,2.78,1.56.55,0,1.1-.14,1.59-.41.04-.02.08-.03.12-.03.06,0,.13.02.18.06.48.32.99.6,1.52.85.08.04.13.1.13.14,0,1.75,1.44,3.17,3.22,3.17h2.76c1.78,0,3.22-1.42,3.22-3.16,0-.05.06-.11.13-.15.53-.24,1.04-.53,1.52-.85.06-.04.12-.06.18-.06.04,0,.08,0,.12.03.49.27,1.04.42,1.59.42,1.14,0,2.2-.6,2.78-1.56l1.38-2.3c.44-.73.56-1.58.34-2.4-.22-.83-.76-1.52-1.52-1.94-.08-.04-.09-.11-.08-.16.02-.29.04-.58.04-.86s-.01-.57-.04-.86c0-.05,0-.12.08-.16.76-.42,1.3-1.11,1.53-1.94.22-.82.1-1.67-.34-2.4l-1.38-2.3c-.58-.96-1.64-1.56-2.78-1.56-.55,0-1.1.14-1.59.41-.04.02-.08.03-.12.03-.06,0-.13-.02-.18-.06-.48-.32-.99-.61-1.52-.85-.08-.04-.13-.1-.13-.14,0-1.75-1.44-3.17-3.22-3.17h0ZM25.25,33c-3.03,0-5.5-2.47-5.5-5.5s2.47-5.5,5.5-5.5,5.5,2.47,5.5,5.5-2.47,5.5-5.5,5.5h0Z"/>
      <polyline class="cls-4" points="21.5 26.5 24.79 30 29.5 25"/>
    </g>
    <circle class="cls-3" cx="39.25" cy="9.75" r=".75"/>
    <circle class="cls-3" cx="36.25" cy="9.75" r=".75"/>
    <circle class="cls-3" cx="33.25" cy="9.75" r=".75"/>
  </g>
</svg>