<?xml version="1.0" encoding="UTF-8"?>
<svg id="Software_1" data-name="Software 1" xmlns="http://www.w3.org/2000/svg" viewBox="0 0 50 50">
  <defs>
    <style>
      .cls-1 {
        fill: none;
        stroke: #fff;
        stroke-miterlimit: 10;
        stroke-width: 1.5px;
      }

      .cls-2 {
        fill: #fff;
        opacity: 0;
      }

      .cls-2, .cls-3 {
        stroke-width: 0px;
      }

      .cls-3 {
        fill: #00d15f;
      }
    </style>
  </defs>
  <g id="Application">
    <rect id="BG" class="cls-2" width="50" height="50"/>
    <path class="cls-3" d="M33.19,8H10c-1.1,0-2,.9-2,2v30c0,1.1.9,2,2,2h30c1.1,0,2-.9,2-2v-23.19c0-.53-.21-1.04-.59-1.41l-6.81-6.81c-.38-.38-.88-.59-1.41-.59Z"/>
    <path class="cls-1" d="M35.39,27.83h0c-.59-.33-.9-.95-.85-1.6.02-.24.03-.49.03-.73s-.01-.49-.03-.73c-.05-.65.26-1.27.85-1.6.82-.46,1.1-1.47.63-2.27l-1.38-2.3c-.48-.79-1.53-1.07-2.35-.61h0c-.58.33-1.3.28-1.86-.09-.42-.28-.85-.52-1.31-.73-.61-.28-1.01-.86-1.01-1.51h0c0-.92-.77-1.67-1.72-1.67h-2.76c-.95,0-1.72.74-1.72,1.66h0c0,.66-.4,1.23-1.01,1.51-.46.21-.9.46-1.31.73-.56.37-1.28.42-1.86.09h0c-.82-.46-1.88-.19-2.35.6l-1.38,2.3c-.48.79-.19,1.81.63,2.27.59.33.9.95.85,1.6-.02.24-.03.49-.03.73s.01.49.03.73c.05.65-.26,1.27-.85,1.6-.82.46-1.1,1.47-.63,2.27l1.38,2.3c.48.79,1.53,1.07,2.35.61h0c.58-.33,1.3-.28,1.86.09.42.28.85.52,1.31.73.61.28,1.01.86,1.01,1.51h0c0,.92.77,1.67,1.72,1.67h2.76c.95,0,1.72-.74,1.72-1.66h0c0-.66.4-1.23,1.01-1.51.46-.21.9-.46,1.31-.73.56-.37,1.28-.42,1.86-.09h0c.82.46,1.88.19,2.35-.6l1.38-2.3c.48-.79.19-1.81-.63-2.27ZM25,30.5c-2.76,0-5-2.24-5-5s2.24-5,5-5,5,2.24,5,5-2.24,5-5,5Z"/>
  </g>
</svg>