<?xml version="1.0" encoding="UTF-8"?>
<svg id="Miscellaneous" xmlns="http://www.w3.org/2000/svg" viewBox="0 0 50 50">
  <defs>
    <style>
      .cls-1 {
        fill: #505861;
      }

      .cls-1, .cls-2 {
        stroke-width: 0px;
      }

      .cls-2 {
        fill: #fff;
        opacity: 0;
      }
    </style>
  </defs>
  <g id="Automated">
    <rect id="BG" class="cls-2" width="50" height="50"/>
    <path class="cls-1" d="M38.07,28.04h0c-.74-.43-1.14-1.24-1.07-2.09.03-.31.04-.63.04-.95s-.01-.64-.04-.95c-.07-.85.33-1.66,1.07-2.09h0c1.03-.6,1.39-1.92.79-2.96l-1.73-3c-.6-1.03-1.92-1.39-2.96-.79h0c-.74.43-1.64.37-2.34-.11-.52-.36-1.08-.68-1.65-.96-.77-.36-1.27-1.12-1.27-1.96h0c0-1.2-.97-2.17-2.16-2.17h-3.47c-1.19,0-2.16.97-2.16,2.16h0c0,.86-.5,1.61-1.27,1.97-.58.28-1.13.6-1.65.96-.7.48-1.6.54-2.34.12h0c-1.03-.6-2.36-.25-2.96.79l-1.73,3c-.6,1.03-.24,2.36.79,2.96h0c.74.43,1.14,1.24,1.07,2.09-.03.31-.04.63-.04.95s.01.64.04.95c.07.85-.33,1.66-1.07,2.09h0c-1.03.6-1.39,1.92-.79,2.96l1.73,3c.6,1.03,1.92,1.39,2.96.79h0c.74-.43,1.64-.37,2.34.11.52.36,1.08.68,1.65.96.77.36,1.27,1.12,1.27,1.96h0c0,1.2.97,2.17,2.16,2.17h3.47c1.19,0,2.16-.97,2.16-2.16h0c0-.86.5-1.61,1.27-1.97.58-.28,1.13-.6,1.65-.96.7-.48,1.6-.54,2.34-.12h0c1.03.6,2.36.25,2.96-.79l1.73-3c.6-1.03.24-2.36-.79-2.96ZM26.27,31.35c-4.56.86-8.48-3.06-7.62-7.62.48-2.55,2.54-4.6,5.08-5.08,4.56-.86,8.48,3.06,7.62,7.62-.48,2.55-2.54,4.6-5.08,5.08Z"/>
    <polygon class="cls-1" points="22.71 27.35 22 26.65 24.44 24.22 22 21.8 22.71 21.09 25.86 24.22 22.71 27.35"/>
    <rect class="cls-1" x="25.49" y="26.5" width="3.27" height="1"/>
  </g>
</svg>