<?xml version="1.0" encoding="UTF-8"?>
<svg id="Storage_2" data-name="Storage 2" xmlns="http://www.w3.org/2000/svg" viewBox="0 0 50 50">
  <defs>
    <style>
      .cls-1 {
        fill: #00cf5f;
      }

      .cls-1, .cls-2, .cls-3 {
        stroke-width: 0px;
      }

      .cls-4 {
        fill: none;
        stroke: #fff;
        stroke-miterlimit: 10;
        stroke-width: 1.5px;
      }

      .cls-2 {
        opacity: 0;
      }

      .cls-2, .cls-3 {
        fill: #fff;
      }
    </style>
  </defs>
  <g id="Amazon_Glacier" data-name="Amazon Glacier">
    <rect id="BG" class="cls-2" width="50" height="50"/>
    <rect class="cls-1" x="8" y="8" width="34" height="34" rx="2" ry="2"/>
    <g>
      <ellipse class="cls-4" cx="24.26" cy="17.11" rx="9.93" ry="2.99"/>
      <path class="cls-4" d="M25.81,35.82c-.52.04-1.05.06-1.6.06-4.19,0-7.54-1.09-7.54-2.5l-2.19-15.67"/>
      <line class="cls-4" x1="33.99" y1="17.76" x2="32.72" y2="26.79"/>
      <circle class="cls-3" cx="24.19" cy="22.98" r="1.1"/>
      <path class="cls-4" d="M24.44,23.03s9.28,5.05,10.86,3.47-2-3-1.95-3"/>
    </g>
    <polygon class="cls-3" points="34.18 33.28 32.38 33.28 33.26 34.81 34.79 35.24 34.54 36.12 33.3 35.77 32.97 37.03 32.09 36.8 32.49 35.29 31.59 33.73 31.59 33.73 30.7 35.27 31.09 36.8 30.21 37.03 29.89 35.78 28.63 36.12 28.4 35.24 29.9 34.84 30.8 33.28 29.02 33.28 27.89 34.38 27.26 33.73 28.18 32.84 27.26 31.91 27.9 31.27 29 32.37 30.8 32.37 29.92 30.83 28.39 30.4 28.64 29.52 29.87 29.87 30.21 28.61 31.09 28.85 30.69 30.35 31.59 31.91 32.48 30.38 32.08 28.84 32.97 28.62 33.28 29.86 34.54 29.52 34.78 30.4 33.28 30.81 32.38 32.37 34.15 32.37 35.29 31.26 35.92 31.91 35 32.81 35.92 33.74 35.28 34.38 34.18 33.28"/>
  </g>
</svg>