<?xml version="1.0" encoding="UTF-8"?>
<svg id="Software_2" data-name="Software 2" xmlns="http://www.w3.org/2000/svg" viewBox="0 0 50 50">
  <defs>
    <style>
      .cls-1 {
        fill: #00cf5f;
      }

      .cls-1, .cls-2, .cls-3 {
        stroke-width: 0px;
      }

      .cls-2 {
        opacity: 0;
      }

      .cls-2, .cls-3 {
        fill: #fff;
      }
    </style>
  </defs>
  <g id="aws">
    <rect id="BG" class="cls-2" width="50" height="50"/>
    <path class="cls-1" d="M33.19,8H10c-1.1,0-2,.9-2,2v30c0,1.1.9,2,2,2h30c1.1,0,2-.9,2-2v-23.19c0-.53-.21-1.04-.59-1.41l-6.81-6.81c-.38-.38-.88-.59-1.41-.59Z"/>
    <g>
      <path class="cls-3" d="M15.54,20.98h2.4l2.78,8.04h-2.3l-.53-1.59h-2.64l-.5,1.59h-2.03l2.82-8.04ZM15.69,25.98h1.75l-.86-2.67h-.05l-.85,2.67Z"/>
      <path class="cls-3" d="M20.23,20.98h2.26l1.05,5.07h.05l1.29-5.07h1.81l1.28,5.07h.05l1.12-5.07h1.96l-1.92,8.04h-2.26l-1.21-4.95h-.03l-1.25,4.95h-2.27l-1.91-8.04Z"/>
      <path class="cls-3" d="M31.45,28.68v-1.65c.71.25,1.45.45,2.38.45s1.25-.27,1.25-.75-.21-.61-.99-.76l-.6-.12c-1.28-.24-2.06-.81-2.06-2.49,0-1.52.95-2.52,2.99-2.52,1.28,0,1.91.2,2.38.42v1.62c-.56-.2-1.25-.38-2.17-.38-.72,0-1.09.22-1.09.68,0,.43.23.59.94.73l.6.12c1.41.27,2.2.83,2.2,2.47,0,1.72-1.1,2.66-3.19,2.66-1.13,0-2.06-.17-2.65-.47Z"/>
    </g>
  </g>
</svg>