<?xml version="1.0" encoding="UTF-8"?>
<svg id="datastores" xmlns="http://www.w3.org/2000/svg" viewBox="0 0 50 50">
  <defs>
    <style>
      .cls-1 {
        fill: #00d15f;
      }

      .cls-1, .cls-2 {
        stroke: #fff;
        stroke-miterlimit: 10;
        stroke-width: 1.5px;
      }

      .cls-2 {
        fill: none;
      }

      .cls-3 {
        fill: #fff;
        opacity: 0;
      }

      .cls-3, .cls-4 {
        stroke-width: 0px;
      }

      .cls-4 {
        fill: #505861;
      }
    </style>
  </defs>
  <g id="Backup_Repository" data-name="Backup Repository">
    <rect id="BG" class="cls-3" width="50" height="50"/>
    <g id="Backup_Repository-2" data-name="Backup Repository">
      <g>
        <rect class="cls-4" x="4.5" y="6" width="29" height="8.5" rx="1" ry="1"/>
        <rect class="cls-4" x="4.5" y="19.5" width="29" height="8.5" rx="1" ry="1"/>
        <rect class="cls-4" x="4.5" y="33" width="29" height="8.5" rx="1" ry="1"/>
        <rect class="cls-4" x="6.5" y="16" width="25" height="2" rx="1" ry="1"/>
        <rect class="cls-4" x="6.5" y="29.5" width="25" height="2" rx="1" ry="1"/>
      </g>
    </g>
    <line class="cls-2" x1="28.98" y1="23.51" x2="34" y2="18.5"/>
    <path class="cls-1" d="M20,23.5c-1.38,0-2.5,1.12-2.5,2.5v17c0,1.38,1.12,2.5,2.5,2.5h23.5c1.38,0,2.5-1.12,2.5-2.5v-20.5c0-1.38-1.12-2.5-2.5-2.5h-9.97c-.66,0-1.3.26-1.77.73l-2.78,2.78h-8.98Z"/>
  </g>
</svg>