<?xml version="1.0" encoding="UTF-8"?>
<svg id="failes" xmlns="http://www.w3.org/2000/svg" viewBox="0 0 50 50">
  <defs>
    <style>
      .cls-1 {
        fill: none;
        stroke: #fff;
        stroke-miterlimit: 10;
        stroke-width: 1.5px;
      }

      .cls-2 {
        fill: #505861;
      }

      .cls-2, .cls-3, .cls-4 {
        stroke-width: 0px;
      }

      .cls-3 {
        opacity: 0;
      }

      .cls-3, .cls-4 {
        fill: #fff;
      }
    </style>
  </defs>
  <g id="bco_file_solid" data-name="bco file solid">
    <rect id="BG" class="cls-3" width="50" height="50"/>
    <path class="cls-2" d="M33.09,5H11.87c-1.03,0-1.87.84-1.87,1.87v36.26c0,1.03.84,1.87,1.87,1.87h26.26c1.03,0,1.87-.84,1.87-1.87V11.91c0-.5-.2-.97-.55-1.32l-5.04-5.04c-.35-.35-.83-.55-1.32-.55Z"/>
    <path class="cls-4" d="M37.89,12.62h-5.01c-.25,0-.44-.2-.44-.44v-5.01c0-.4.48-.59.76-.31l5.01,5.01c.28.28.08.76-.31.76Z"/>
    <g>
      <path class="cls-4" d="M16.86,41.06h.83v.84h-.83v-.84Z"/>
      <path class="cls-4" d="M19.67,41.77v-6h.73v2.13h.04c.32-.2.71-.34,1.29-.34.8,0,1.65.49,1.65,2.07v.12c0,1.42-.74,2.25-2.14,2.25-.49,0-1.2-.09-1.57-.23ZM22.62,39.86v-.18c0-1.13-.39-1.5-1.24-1.5-.4,0-.78.16-.98.24v2.83c.18.07.46.14.89.14.7,0,1.33-.33,1.33-1.52Z"/>
      <path class="cls-4" d="M24.75,39.86v-.14c0-1.5.9-2.16,2.02-2.16.55,0,.88.11,1.16.28v.6c-.38-.16-.65-.26-1.21-.26-.75,0-1.22.51-1.22,1.43v.22c0,1.07.45,1.52,1.31,1.52.57,0,.95-.19,1.17-.3v.58c-.28.18-.66.34-1.25.34-1.21,0-1.98-.69-1.98-2.11Z"/>
      <path class="cls-4" d="M29.25,39.85v-.14c0-1.34.78-2.16,1.95-2.16s1.94.8,1.94,2.13v.13c0,1.34-.78,2.15-1.95,2.15-1.23,0-1.94-.79-1.94-2.12ZM32.38,39.9v-.23c0-1.15-.54-1.52-1.2-1.52-.75,0-1.18.54-1.18,1.48v.23c0,1.15.54,1.51,1.2,1.51.74,0,1.18-.52,1.18-1.48Z"/>
    </g>
    <path class="cls-1" d="M32.85,24.76h0c-.44-.25-.68-.72-.64-1.22.02-.18.02-.37.02-.56s0-.37-.02-.56c-.04-.49.2-.97.64-1.22.62-.35.83-1.12.48-1.72l-1.04-1.75c-.36-.6-1.15-.81-1.78-.46h0c-.44.25-.99.22-1.41-.07-.31-.21-.65-.4-.99-.56-.46-.21-.76-.65-.76-1.15h0c0-.7-.58-1.27-1.3-1.27h-2.08c-.72,0-1.3.57-1.3,1.26h0c0,.5-.3.94-.76,1.15-.35.16-.68.35-.99.56-.42.28-.96.32-1.41.07h0c-.62-.35-1.42-.14-1.78.46l-1.04,1.75c-.36.6-.15,1.38.48,1.72.44.25.68.72.64,1.22-.02.18-.02.37-.02.56s0,.37.02.56c.04.49-.2.97-.64,1.22-.62.35-.83,1.12-.48,1.72l1.04,1.75c.36.6,1.15.81,1.78.46h0c.44-.25.99-.22,1.41.07.31.21.65.4.99.56.46.21.76.65.76,1.15h0c0,.7.58,1.27,1.3,1.27h2.08c.72,0,1.3-.57,1.3-1.26h0c0-.5.3-.94.76-1.15.35-.16.68-.35.99-.56.42-.28.96-.32,1.41-.07h0c.62.35,1.42.14,1.78-.46l1.04-1.75c.36-.6.15-1.38-.48-1.72ZM25,26.79c-2.09,0-3.78-1.7-3.78-3.8s1.69-3.8,3.78-3.8,3.78,1.7,3.78,3.8-1.69,3.8-3.78,3.8Z"/>
  </g>
</svg>