<?xml version="1.0" encoding="UTF-8"?>
<svg id="datastores" xmlns="http://www.w3.org/2000/svg" viewBox="0 0 50 50">
  <defs>
    <style>
      .cls-1 {
        opacity: 0;
      }

      .cls-1, .cls-2, .cls-3, .cls-4 {
        stroke-width: 0px;
      }

      .cls-1, .cls-3 {
        fill: #fff;
      }

      .cls-2 {
        fill: #00d15f;
      }

      .cls-4 {
        fill: #505861;
      }
    </style>
  </defs>
  <g id="Scale-out_Backup_Repository" data-name="Scale-out Backup Repository">
    <g id="Backup_Repository" data-name="Backup Repository">
      <g>
        <rect class="cls-4" x="6.5" y="6" width="29" height="8.5" rx="1" ry="1"/>
        <rect class="cls-4" x="6.5" y="19.5" width="29" height="8.5" rx="1" ry="1"/>
        <rect class="cls-4" x="6.5" y="33" width="29" height="8.5" rx="1" ry="1"/>
        <rect class="cls-4" x="8.5" y="16" width="25" height="2" rx="1" ry="1"/>
        <rect class="cls-4" x="8.5" y="29.5" width="25" height="2" rx="1" ry="1"/>
      </g>
    </g>
    <rect id="BG" class="cls-1" x="0" width="50" height="50"/>
    <g>
      <rect class="cls-2" x="22.75" y="22.25" width="23.5" height="23.5" rx="2.75" ry="2.75"/>
      <path class="cls-3" d="M43.5,23c1.1,0,2,.9,2,2v18c0,1.1-.9,2-2,2h-18c-1.1,0-2-.9-2-2v-18c0-1.1.9-2,2-2h18M43.5,21.5h-18c-1.93,0-3.5,1.57-3.5,3.5v18c0,1.93,1.57,3.5,3.5,3.5h18c1.93,0,3.5-1.57,3.5-3.5v-18c0-1.93-1.57-3.5-3.5-3.5h0Z"/>
    </g>
    <rect class="cls-3" x="27.12" y="26.5" width="4" height="4"/>
    <rect class="cls-3" x="27.12" y="32" width="4" height="4"/>
    <rect class="cls-3" x="27.12" y="37.5" width="4" height="4"/>
    <rect class="cls-3" x="33" y="32" width="4" height="4"/>
    <rect class="cls-3" x="33" y="37.5" width="4" height="4"/>
    <rect class="cls-3" x="38.5" y="37.5" width="4" height="4"/>
  </g>
</svg>