<?xml version="1.0" encoding="UTF-8"?>
<svg id="Veeam_features_2" data-name="Veeam features 2" xmlns="http://www.w3.org/2000/svg" viewBox="0 0 50 50">
  <defs>
    <style>
      .cls-1 {
        opacity: 0;
      }

      .cls-1, .cls-2, .cls-3 {
        stroke-width: 0px;
      }

      .cls-1, .cls-3 {
        fill: #fff;
      }

      .cls-2 {
        fill: #00d15f;
      }

      .cls-4 {
        fill: none;
        stroke: #00d15f;
        stroke-miterlimit: 10;
      }
    </style>
  </defs>
  <g id="CDP">
    <rect id="BG" class="cls-1" width="50" height="50"/>
    <rect class="cls-2" x="7" y="7" width="34" height="34" rx="2" ry="2"/>
    <path class="cls-3" d="M32.5,13.5c.28,0,.5.22.5.5v14c0,.28-.22.5-.5.5h-14c-.28,0-.5-.22-.5-.5v-14c0-.28.22-.5.5-.5h14M32.5,12h-14c-1.1,0-2,.9-2,2v14c0,1.1.9,2,2,2h14c1.1,0,2-.9,2-2v-14c0-1.1-.9-2-2-2h0Z"/>
    <g>
      <rect class="cls-3" x="11.25" y="15.75" width="19.5" height="19.5" rx="2.75" ry="2.75"/>
      <path class="cls-2" d="M28,16.5c1.1,0,2,.9,2,2v14c0,1.1-.9,2-2,2h-14c-1.1,0-2-.9-2-2v-14c0-1.1.9-2,2-2h14M28,15h-14c-1.93,0-3.5,1.57-3.5,3.5v14c0,1.93,1.57,3.5,3.5,3.5h14c1.93,0,3.5-1.57,3.5-3.5v-14c0-1.93-1.57-3.5-3.5-3.5h0Z"/>
    </g>
    <g>
      <path class="cls-2" d="M15.69,23h1.13l1.22,3.67h.02l1.21-3.67h1.02l-1.75,5h-1.11l-1.75-5Z"/>
      <path class="cls-2" d="M21.09,23h1.51l1.1,3.46h.03l1.09-3.46h1.49v5h-1.09v-3.68h-.02l-1.16,3.68h-.84l-1.15-3.68h-.03v3.68h-.93v-5Z"/>
    </g>
    <g>
      <path class="cls-3" d="M38.25,44c-4.27,0-7.75-3.48-7.75-7.75s3.48-7.75,7.75-7.75,7.75,3.48,7.75,7.75-3.48,7.75-7.75,7.75Z"/>
      <path class="cls-2" d="M38.25,29c4,0,7.25,3.25,7.25,7.25s-3.25,7.25-7.25,7.25-7.25-3.25-7.25-7.25,3.25-7.25,7.25-7.25M38.25,28c-4.56,0-8.25,3.69-8.25,8.25s3.69,8.25,8.25,8.25,8.25-3.69,8.25-8.25-3.69-8.25-8.25-8.25h0Z"/>
    </g>
    <g>
      <g>
        <path class="cls-4" d="M39.42,40.66h-.01c-1.22,0-2.37-.48-3.23-1.35-.86-.87-1.34-2.02-1.33-3.24,0-2.52,2.06-4.57,4.58-4.57h.01c1.22,0,2.37.48,3.23,1.35s1.34,2.02,1.33,3.24c0,1.22-.48,2.37-1.35,3.23-.86.86-2.01,1.33-3.23,1.33Z"/>
        <polyline class="cls-4" points="39.36 32.89 39.36 36.08 42.53 36.08"/>
      </g>
      <rect class="cls-2" x="34.77" y="39.98" width="3.29" height="1.02"/>
      <rect class="cls-2" x="32.97" y="37.95" width="2.54" height="1.02"/>
      <rect class="cls-2" x="31.5" y="35.91" width="3.51" height="1.02"/>
      <rect class="cls-3" x="32.97" y="38.96" width="5.6" height="1.02"/>
      <rect class="cls-3" x="32.97" y="36.93" width="5.6" height="1.02"/>
      <rect class="cls-3" x="32.97" y="34.89" width="5.6" height="1.02"/>
    </g>
  </g>
</svg>