<?xml version="1.0" encoding="UTF-8"?>
<svg id="Veeam_features" data-name="Veeam features" xmlns="http://www.w3.org/2000/svg" viewBox="0 0 50 50">
  <defs>
    <style>
      .cls-1 {
        opacity: 0;
      }

      .cls-1, .cls-2, .cls-3 {
        stroke-width: 0px;
      }

      .cls-1, .cls-3 {
        fill: #fff;
      }

      .cls-2 {
        fill: #00d15f;
      }
    </style>
  </defs>
  <g id="Cloud_Mobility" data-name="Cloud Mobility">
    <rect id="BG" class="cls-1" width="50" height="50"/>
    <path class="cls-2" d="M33.19,8H10c-1.1,0-2,.9-2,2v30c0,1.1.9,2,2,2h30c1.1,0,2-.9,2-2v-23.19c0-.53-.21-1.04-.59-1.41l-6.81-6.81c-.38-.38-.88-.59-1.41-.59Z"/>
    <path class="cls-3" d="M31.16,18.16h-.06c-.85,0-1.57-.52-1.86-1.26-.89-2.28-3.23-3.9-5.99-3.9-2.99,0-5.5,1.92-6.19,4.5-.14.54-.56.98-1.1,1.21-2.29.98-3.85,3.17-3.7,5.7.18,3.17,3.13,5.6,6.54,5.6h12.57c3.56,0,6.44-2.71,6.38-6.03s-3.08-5.81-6.59-5.81Z"/>
    <g>
      <g>
        <g>
          <rect class="cls-3" x="17.5" y="33" width="1.5" height="5" transform="translate(36.5 71) rotate(180)"/>
          <rect class="cls-3" x="19.25" y="34.75" width="1.5" height="5" transform="translate(-17.25 57.25) rotate(-90)"/>
        </g>
        <rect class="cls-3" x="19.59" y="32.1" width="1.5" height="6.12" transform="translate(9.85 74.41) rotate(-135)"/>
      </g>
      <g>
        <g>
          <rect class="cls-3" x="29.5" y="33" width="1.5" height="5"/>
          <rect class="cls-3" x="27.75" y="31.25" width="1.5" height="5" transform="translate(62.25 5.25) rotate(90)"/>
        </g>
        <rect class="cls-3" x="27.41" y="32.78" width="1.5" height="6.12" transform="translate(33.59 -9.42) rotate(45)"/>
      </g>
    </g>
  </g>
</svg>