<?xml version="1.0" encoding="UTF-8"?>
<svg id="Veeam_features" data-name="Veeam features" xmlns="http://www.w3.org/2000/svg" viewBox="0 0 50 50">
  <defs>
    <style>
      .cls-1 {
        opacity: 0;
      }

      .cls-1, .cls-2, .cls-3 {
        stroke-width: 0px;
      }

      .cls-1, .cls-3 {
        fill: #fff;
      }

      .cls-2 {
        fill: #00d15f;
      }
    </style>
  </defs>
  <g id="_с" data-name="с">
    <rect id="BG" class="cls-1" width="50" height="50"/>
    <path class="cls-2" d="M33.19,8H10c-1.1,0-2,.9-2,2v30c0,1.1.9,2,2,2h30c1.1,0,2-.9,2-2v-23.19c0-.53-.21-1.04-.59-1.41l-6.81-6.81c-.38-.38-.88-.59-1.41-.59Z"/>
    <g>
      <g>
        <circle class="cls-3" cx="24.56" cy="21.42" r="2.49"/>
        <path class="cls-3" d="M16.92,26.01l.3,4.05c.03.43.52.67.88.42l3.36-2.29c.36-.24.32-.79-.07-.97l-3.66-1.77c-.39-.19-.84.12-.81.55Z"/>
        <rect class="cls-3" x="27.24" y="26.32" width="4.33" height="4.33" rx=".6" ry=".6" transform="translate(-7.67 11.12) rotate(-18.99)"/>
      </g>
      <path class="cls-3" d="M23.25,16.5c2.76,0,5.1,1.63,5.99,3.9.29.74,1.01,1.26,1.86,1.26h.06c3.51,0,6.52,2.55,6.59,5.81.07,3.32-2.81,6.03-6.38,6.03h-12.57c-3.42,0-6.36-2.43-6.54-5.6-.14-2.52,1.41-4.72,3.7-5.7.54-.23.96-.67,1.1-1.21.68-2.58,3.19-4.5,6.19-4.5M23.25,15c-3.62,0-6.76,2.31-7.64,5.62-.01.05-.09.15-.24.21-2.98,1.27-4.79,4.08-4.61,7.16.23,3.93,3.76,7.01,8.04,7.01h12.57c2.19,0,4.3-.87,5.79-2.39,1.38-1.41,2.12-3.25,2.09-5.17-.08-4.01-3.71-7.28-8.09-7.28h-.06c-.21,0-.39-.12-.46-.3-1.13-2.91-4.1-4.86-7.39-4.86h0Z"/>
    </g>
  </g>
</svg>