<?xml version="1.0" encoding="UTF-8"?>
<svg id="datastores" xmlns="http://www.w3.org/2000/svg" viewBox="0 0 50 50">
  <defs>
    <style>
      .cls-1 {
        fill: #00d15f;
        stroke: #fff;
        stroke-miterlimit: 10;
        stroke-width: 1.5px;
      }

      .cls-2 {
        fill: #fff;
        opacity: 0;
      }

      .cls-2, .cls-3 {
        stroke-width: 0px;
      }

      .cls-3 {
        fill: #505861;
      }
    </style>
  </defs>
  <g id="Cloud_Repository" data-name="Cloud Repository">
    <rect id="BG" class="cls-2" width="50" height="50"/>
    <g id="Backup_Repository" data-name="Backup Repository">
      <g>
        <rect class="cls-3" x="5.5" y="6" width="29" height="8.5" rx="1" ry="1"/>
        <rect class="cls-3" x="5.5" y="19.5" width="29" height="8.5" rx="1" ry="1"/>
        <rect class="cls-3" x="5.5" y="33" width="29" height="8.5" rx="1" ry="1"/>
        <rect class="cls-3" x="7.5" y="16" width="25" height="2" rx="1" ry="1"/>
        <rect class="cls-3" x="7.5" y="29.5" width="25" height="2" rx="1" ry="1"/>
      </g>
    </g>
    <path class="cls-1" d="M23.75,30.53h.07c1,0,1.85-.66,2.19-1.59,1.04-2.88,3.8-4.93,7.05-4.93,3.52,0,6.48,2.43,7.28,5.69.17.68.66,1.23,1.3,1.53,2.69,1.24,4.53,4.01,4.36,7.2-.21,4.01-3.68,7.08-7.7,7.08h-14.79c-4.19,0-7.58-3.43-7.5-7.63.08-4.12,3.62-7.35,7.75-7.35Z"/>
  </g>
</svg>