<?xml version="1.0" encoding="UTF-8"?>
<svg id="Data_Center" data-name="Data Center" xmlns="http://www.w3.org/2000/svg" viewBox="0 0 87 50">
  <defs>
    <style>
      .cls-1 {
        fill: #fff;
        opacity: 0;
      }

      .cls-1, .cls-2 {
        stroke-width: 0px;
      }

      .cls-3 {
        fill: none;
        stroke: #505861;
        stroke-miterlimit: 10;
        stroke-width: 1.5px;
      }

      .cls-2 {
        fill: #505861;
      }
    </style>
  </defs>
  <g id="Cluster_line" data-name="Cluster line">
    <rect id="BG" class="cls-1" x=".02" y="0" width="87" height="50"/>
    <g>
      <path class="cls-2" d="M22.08,7.5c.13,0,.26.05.35.15l4.92,4.9c.09.09.15.22.15.35v30.6c0,.28-.22.5-.5.5H5c-.28,0-.5-.22-.5-.5V8c0-.28.22-.5.5-.5h17.08M22.08,6H5c-1.1,0-2,.9-2,2v35.5c0,1.1.9,2,2,2h22c1.1,0,2-.9,2-2V12.9c0-.53-.21-1.04-.59-1.42l-4.92-4.9c-.37-.37-.88-.58-1.41-.58h0Z"/>
      <g id="lines">
        <g>
          <line class="cls-3" x1="7.02" y1="16" x2="18.02" y2="16"/>
          <line class="cls-3" x1="21.02" y1="16" x2="25.02" y2="16"/>
        </g>
        <g>
          <line class="cls-3" x1="7.02" y1="21" x2="18.02" y2="21"/>
          <line class="cls-3" x1="21.02" y1="21" x2="25.02" y2="21"/>
        </g>
        <g>
          <line class="cls-3" x1="7.02" y1="26" x2="18.02" y2="26"/>
          <line class="cls-3" x1="21.02" y1="26" x2="25.02" y2="26"/>
        </g>
      </g>
    </g>
    <g>
      <path class="cls-2" d="M49.58,7.5c.13,0,.26.05.35.15l4.92,4.9c.09.09.15.22.15.35v30.6c0,.28-.22.5-.5.5h-22c-.28,0-.5-.22-.5-.5V8c0-.28.22-.5.5-.5h17.08M49.58,6h-17.08c-1.1,0-2,.9-2,2v35.5c0,1.1.9,2,2,2h22c1.1,0,2-.9,2-2V12.9c0-.53-.21-1.04-.59-1.42l-4.92-4.9c-.37-.37-.88-.58-1.41-.58h0Z"/>
      <g id="lines-2" data-name="lines">
        <g>
          <line class="cls-3" x1="34.52" y1="16" x2="45.52" y2="16"/>
          <line class="cls-3" x1="48.52" y1="16" x2="52.52" y2="16"/>
        </g>
        <g>
          <line class="cls-3" x1="34.52" y1="21" x2="45.52" y2="21"/>
          <line class="cls-3" x1="48.52" y1="21" x2="52.52" y2="21"/>
        </g>
        <g>
          <line class="cls-3" x1="34.52" y1="26" x2="45.52" y2="26"/>
          <line class="cls-3" x1="48.52" y1="26" x2="52.52" y2="26"/>
        </g>
      </g>
    </g>
    <g>
      <path class="cls-2" d="M77.08,7.5c.13,0,.26.05.35.15l4.92,4.9c.09.09.15.22.15.35v30.6c0,.28-.22.5-.5.5h-22c-.28,0-.5-.22-.5-.5V8c0-.28.22-.5.5-.5h17.08M77.08,6h-17.08c-1.1,0-2,.9-2,2v35.5c0,1.1.9,2,2,2h22c1.1,0,2-.9,2-2V12.9c0-.53-.21-1.04-.59-1.42l-4.92-4.9c-.37-.37-.88-.58-1.41-.58h0Z"/>
      <g id="lines-3" data-name="lines">
        <g>
          <line class="cls-3" x1="62.02" y1="16" x2="73.02" y2="16"/>
          <line class="cls-3" x1="76.02" y1="16" x2="80.02" y2="16"/>
        </g>
        <g>
          <line class="cls-3" x1="62.02" y1="21" x2="73.02" y2="21"/>
          <line class="cls-3" x1="76.02" y1="21" x2="80.02" y2="21"/>
        </g>
        <g>
          <line class="cls-3" x1="62.02" y1="26" x2="73.02" y2="26"/>
          <line class="cls-3" x1="76.02" y1="26" x2="80.02" y2="26"/>
        </g>
      </g>
    </g>
  </g>
</svg>