<?xml version="1.0" encoding="UTF-8"?>
<svg id="Veeam_product_4" data-name="Veeam product 4" xmlns="http://www.w3.org/2000/svg" viewBox="0 0 50 50">
  <defs>
    <style>
      .cls-1 {
        fill: none;
        stroke: #fff;
        stroke-miterlimit: 10;
        stroke-width: 1.5px;
      }

      .cls-2 {
        fill: #505861;
      }

      .cls-2, .cls-3, .cls-4, .cls-5 {
        stroke-width: 0px;
      }

      .cls-3 {
        opacity: 0;
      }

      .cls-3, .cls-5 {
        fill: #fff;
      }

      .cls-4 {
        fill: #00d15f;
      }
    </style>
  </defs>
  <g id="Configuration_Database" data-name="Configuration Database">
    <rect id="BG" class="cls-3" width="50" height="50"/>
    <g>
      <g>
        <path class="cls-2" d="M36,29.71v-1.62c0-.6-.45-1.08-1-1.08H14c-.55,0-1,.49-1,1.08v4.33c0,.6.45,1.08,1,1.08h21c.55,0,1-.49,1-1.08v-2.71Z"/>
        <path class="cls-1" d="M36,30.25h-8"/>
      </g>
      <g>
        <path class="cls-2" d="M36,21.71v-1.62c0-.6-.45-1.08-1-1.08H14c-.55,0-1,.49-1,1.08v4.33c0,.6.45,1.08,1,1.08h21c.55,0,1-.49,1-1.08v-2.71Z"/>
        <path class="cls-1" d="M36,22.25h-8"/>
      </g>
      <g>
        <path class="cls-2" d="M36,13.71v-1.62c0-.6-.45-1.08-1-1.08H14c-.55,0-1,.49-1,1.08v4.33c0,.6.45,1.08,1,1.08h21c.55,0,1-.49,1-1.08v-2.71Z"/>
        <path class="cls-1" d="M36,14.25h-8"/>
      </g>
    </g>
    <circle class="cls-5" cx="34.5" cy="34.5" r="3.5"/>
    <g>
      <path class="cls-4" d="M33.78,42.5c-.89,0-1.61-.71-1.61-1.58,0-.23-.14-.43-.36-.53-.32-.15-.62-.32-.92-.52-.11-.08-.24-.12-.38-.12-.11,0-.21.03-.3.08-.25.14-.53.21-.8.21-.57,0-1.1-.3-1.39-.79l-.89-1.5c-.22-.37-.27-.79-.16-1.2.11-.41.38-.76.76-.97.2-.11.31-.33.29-.57-.01-.17-.02-.34-.02-.52s0-.35.02-.52c.02-.24-.09-.45-.29-.57-.38-.21-.65-.56-.76-.97-.11-.41-.05-.83.16-1.2l.89-1.5c.29-.48.82-.79,1.39-.79.28,0,.56.07.8.21.09.05.2.08.3.08.13,0,.26-.04.38-.12.29-.2.6-.37.92-.52.22-.1.36-.31.36-.53,0-.88.72-1.59,1.61-1.59h1.78c.89,0,1.61.71,1.61,1.58,0,.23.14.43.36.53.32.15.62.32.92.51.11.08.24.12.38.12.11,0,.21-.03.3-.08.25-.14.53-.21.8-.21.57,0,1.1.3,1.39.79l.89,1.5c.22.37.27.79.16,1.2-.11.41-.38.76-.76.97-.2.11-.31.33-.29.57.01.17.02.34.02.52s0,.35-.02.52c-.02.23.09.45.29.57.38.21.64.56.75.97.11.41.05.83-.16,1.2l-.89,1.5c-.29.48-.82.79-1.39.79h0c-.28,0-.56-.07-.8-.21-.1-.05-.2-.08-.3-.08-.13,0-.26.04-.38.12-.29.2-.6.37-.92.52-.22.1-.36.31-.36.53,0,.88-.72,1.59-1.61,1.59h-1.78ZM34.67,31.75c-.29,0-.58.05-.91.16-.17.06-.28.1-.38.15l-.1.05c-.11.06-.21.12-.3.19-.23.18-.41.35-.56.54-.1.13-.16.22-.21.31l-.06.11c-.05.1-.1.19-.14.3-.13.38-.18.67-.18.94,0,.25.05.52.15.82.28.85.96,1.51,1.82,1.78.33.1.6.15.86.15.29,0,.58-.05.91-.16.17-.06.27-.1.38-.15l.09-.05c.12-.07.21-.12.31-.19.23-.18.41-.35.56-.54.1-.12.16-.22.21-.31l.06-.11c.05-.1.1-.2.14-.3.13-.38.18-.67.18-.94,0-.25-.05-.52-.15-.82-.28-.85-.96-1.51-1.82-1.78-.33-.1-.6-.15-.87-.15Z"/>
      <path class="cls-5" d="M35.56,27c.61,0,1.11.48,1.11,1.08h0c0,.43.26.8.65.99.3.14.58.3.85.48.2.13.43.2.65.2.19,0,.38-.05.54-.14h0c.17-.1.37-.15.55-.15.38,0,.76.19.96.54l.89,1.5c.31.52.12,1.18-.41,1.48-.38.21-.58.62-.55,1.04.01.16.02.32.02.48s0,.32-.02.48c-.04.42.17.83.55,1.04h0c.53.3.71.96.41,1.48l-.89,1.5c-.21.35-.58.54-.96.54-.19,0-.38-.05-.55-.15h0c-.17-.1-.36-.14-.54-.14-.23,0-.46.07-.65.2-.27.18-.55.34-.85.48-.39.18-.65.56-.65.98h0c0,.6-.5,1.09-1.11,1.09h-1.78c-.61,0-1.11-.48-1.11-1.08h0c0-.43-.26-.8-.65-.99-.3-.14-.58-.3-.85-.48-.2-.13-.43-.2-.65-.2-.19,0-.38.05-.54.14h0c-.17.1-.37.15-.55.15-.38,0-.76-.19-.96-.54l-.89-1.5c-.31-.52-.12-1.18.41-1.48.38-.21.58-.62.55-1.04-.01-.16-.02-.32-.02-.48s0-.32.02-.48c.04-.42-.17-.83-.55-1.04-.53-.3-.71-.96-.41-1.48l.89-1.5c.21-.35.58-.54.96-.54.19,0,.38.05.55.15h0c.17.1.36.14.54.14.23,0,.46-.07.65-.2.27-.18.55-.34.85-.48.39-.18.65-.56.65-.98h0c0-.6.5-1.09,1.11-1.09h1.78M34.67,37.75c.38,0,.73-.07,1.07-.19.03,0,.05-.01.08-.02.13-.05.25-.1.36-.16.05-.02.09-.05.13-.07.12-.06.23-.13.33-.21.02-.01.03-.02.04-.04.23-.17.44-.37.61-.6.01-.02.03-.03.04-.05.08-.1.15-.21.21-.33.03-.04.05-.09.07-.13.06-.12.12-.23.16-.35,0-.02.02-.05.02-.08.11-.33.19-.67.19-1.04,0-.34-.07-.67-.17-.98,0,0,0,0,0-.01-.33-.99-1.12-1.77-2.14-2.09,0,0,0,0-.01,0-.32-.1-.65-.17-1-.17-.37,0-.73.07-1.06.19-.03,0-.05.01-.08.02-.13.05-.25.1-.36.16-.05.02-.09.05-.13.07-.11.06-.23.13-.33.21-.02.01-.03.03-.05.04-.23.17-.43.37-.61.6-.01.02-.03.03-.04.05-.08.1-.15.21-.21.32-.03.04-.05.09-.07.13-.06.11-.12.23-.16.35,0,.03-.02.05-.02.08-.11.33-.19.67-.19,1.04,0,.34.07.67.17.98,0,0,0,0,0,.01.33.99,1.12,1.77,2.14,2.09,0,0,0,0,.01,0,.32.1.65.17,1,.17M35.56,26h-1.78c-1.16,0-2.11.93-2.11,2.08,0,.03-.03.06-.07.08-.34.16-.67.35-.98.56-.03.02-.06.03-.1.03-.02,0-.04,0-.05-.01-.32-.18-.68-.28-1.05-.28-.75,0-1.45.4-1.82,1.03l-.89,1.5c-.28.48-.36,1.04-.22,1.58.15.54.5,1,.99,1.28.04.02.04.07.04.09-.02.18-.02.37-.02.56s0,.38.02.56c0,.03,0,.07-.04.09-.49.28-.85.73-.99,1.28-.14.54-.07,1.1.22,1.58l.89,1.5c.38.64,1.07,1.03,1.82,1.03.37,0,.73-.09,1.04-.27.02-.01.04-.02.06-.02.03,0,.07.01.1.03.31.21.64.4.98.55.05.02.07.05.07.08,0,1.15.95,2.09,2.11,2.09h1.78c1.16,0,2.11-.93,2.11-2.08,0-.03.02-.06.07-.08.34-.16.67-.35.98-.55.03-.02.06-.03.1-.03.02,0,.04,0,.05.01.32.18.68.28,1.05.28.75,0,1.45-.4,1.82-1.03l.89-1.5c.28-.48.36-1.04.22-1.58-.15-.54-.5-1-.99-1.28-.04-.02-.04-.06-.04-.09.02-.19.02-.37.02-.56s0-.38-.02-.56c0-.02,0-.07.04-.09.49-.28.85-.73.99-1.28.14-.54.07-1.1-.22-1.58l-.89-1.5c-.38-.64-1.07-1.03-1.82-1.03-.37,0-.73.09-1.04.27-.02.01-.04.02-.06.02-.03,0-.07-.01-.1-.03-.31-.21-.64-.4-.98-.56-.04-.02-.07-.05-.07-.08,0-1.15-.95-2.09-2.11-2.09h0ZM32.79,33.18s.02-.02.03-.04c.12-.15.26-.29.42-.41l.02-.02.04-.04s.12-.07.2-.12l.09-.05c.08-.04.17-.08.26-.11h.05c.28-.11.52-.15.75-.15.21,0,.44.04.71.12.72.22,1.28.77,1.5,1.45.09.26.12.48.12.68,0,.22-.04.45-.13.71v.02s-.03.06-.03.06c-.02.06-.06.14-.1.22l-.05.09c-.05.08-.09.16-.15.23l-.03.03c-.12.16-.27.3-.43.42l-.02.02-.04.04s-.12.07-.2.12l-.09.05c-.08.04-.17.08-.26.11h-.05c-.28.11-.52.15-.76.15-.21,0-.44-.04-.71-.12-.72-.23-1.28-.77-1.5-1.45-.09-.26-.12-.48-.12-.68,0-.22.04-.45.13-.71v-.02s.02-.05.02-.05c.02-.06.06-.14.1-.22l.05-.09c.05-.08.09-.15.15-.23,0,0,0,0,0,0h0Z"/>
    </g>
  </g>
</svg>