<?xml version="1.0" encoding="UTF-8"?>
<svg id="Software_3" data-name="Software 3" xmlns="http://www.w3.org/2000/svg" viewBox="0 0 50 50">
  <defs>
    <style>
      .cls-1 {
        opacity: 0;
      }

      .cls-1, .cls-2, .cls-3 {
        stroke-width: 0px;
      }

      .cls-1, .cls-3 {
        fill: #fff;
      }

      .cls-2 {
        fill: #00d15f;
      }
    </style>
  </defs>
  <g id="ConnectWise_Manage" data-name="ConnectWise Manage">
    <rect id="BG" class="cls-1" width="50" height="50"/>
    <path class="cls-2" d="M33.19,8H10c-1.1,0-2,.9-2,2v30c0,1.1.9,2,2,2h30c1.1,0,2-.9,2-2v-23.19c0-.53-.21-1.04-.59-1.41l-6.81-6.81c-.38-.38-.88-.59-1.41-.59Z"/>
    <g>
      <path class="cls-3" d="M14.31,31.44c-.29,0-.59-.03-.85-.16-.2-.07-.33-.23-.33-.42-.1-.59-.13-1.21-.13-1.79,0-1.99.46-3.98,1.34-5.74.1-.16.26-.29.46-.29.1,0,.16.03.23.07.39.2.75.39,1.15.65.13.1.23.23.23.39.03.16-.03.33-.16.42-.92.91-1.44,2.15-1.44,3.42,0,.88.26,1.73.72,2.48.07.13.1.29.07.42-.03.13-.16.26-.29.33-.29.16-.62.23-.98.23h0Z"/>
      <path class="cls-3" d="M33.56,19.87c-2.23-1.92-5.04-2.87-7.99-2.87h-.46c-2.95,0-5.8.95-7.99,2.87-.13.13-.36.39-.33.55.07.2.36.26.56.29,2.55.52,5.01,1.5,7.01,2.67.26.16.49.33.69.42.1.07.16.07.26.07h0c.1,0,.2-.03.26-.07.2-.13.43-.26.69-.42,2-1.14,4.45-2.15,7.01-2.67.2-.03.49-.13.56-.29.1-.2-.13-.42-.26-.55Z"/>
      <g>
        <path class="cls-3" d="M19.61,32.51c-2.6,0-4.71-2.11-4.71-4.69,0-1.57.75-2.98,2.06-3.88l.45-.31.43.33c.73.56,1.29,1.05,1.77,1.53l.99.98-1.36.28c-.46.09-.78.49-.78.96,0,.53.45.98.99.98.43,0,.8-.25.93-.63l.46-1.38.86,1.17c.51.7,1.04,1.46,1.47,2.32l.25.5-.4.38c-.95.9-2.22,1.44-3.4,1.44Z"/>
        <path class="cls-2" d="M17.39,24.56c.59.46,1.18.95,1.7,1.47-.79.16-1.38.85-1.38,1.69,0,.95.79,1.73,1.74,1.73.75,0,1.41-.46,1.64-1.14.52.72,1.02,1.43,1.41,2.22-.72.68-1.8,1.24-2.88,1.24-2.19,0-3.96-1.76-3.96-3.94,0-1.37.69-2.54,1.74-3.26M17.44,22.71l-.9.62c-1.5,1.02-2.39,2.7-2.39,4.5,0,3,2.45,5.44,5.46,5.44,1.36,0,2.83-.62,3.91-1.65l.81-.77-.5-.99c-.46-.91-1.01-1.71-1.54-2.43l-.34-.46.16-.03-.68-.68-.86-1.17-.08.24-.36-.36c-.5-.5-1.09-1.01-1.84-1.59l-.86-.67h0ZM19.45,27.95c-.12,0-.24-.11-.24-.23,0-.14.09-.21.18-.23l.41-.09-.14.42c-.02.07-.11.12-.21.12h0Z"/>
      </g>
      <g>
        <path class="cls-3" d="M25.34,35.25c-.74,0-1.29-.36-1.51-.93-.94-3.46-2.33-6.14-4.06-7.86-1.63-1.55-3.21-2.78-5.56-3.66h-.04l-.11-.05-.09-.02c-.32-.11-.72-.28-.93-.7l-.08-.16v-.04c-.02-.06-.03-.14-.03-.23v-.09l.02-.22c.07-.27.33-.89,1.3-.96h.01c2.48,0,3.64.43,5.74,1.2,2.71.96,4.6,2.14,5.32,2.62.66-.45,2.57-1.65,5.28-2.64,2.15-.79,3.32-1.22,5.73-1.22,1.05.07,1.31.69,1.38.96l.02.09v.09c0,.11-.02.19-.04.27-.02.2-.08.36-.18.49-.19.26-.47.45-.85.58l-.11.04h-.02s-.02,0-.02,0c-2.4.88-4.01,2.11-5.69,3.67-1.71,1.7-3.1,4.39-4.01,7.76-.25.65-.81,1.01-1.44,1.01h-.03Z"/>
        <path class="cls-2" d="M36.38,21.04c.49.03.59.26.62.39t-.03.13v.06s0,.07-.03.1c-.07.1-.2.23-.49.33h-.03s-.07.03-.1.03c-2.68.98-4.42,2.38-5.99,3.85-2.06,2.05-3.41,5.08-4.22,8.11-.13.33-.46.46-.72.46h-.13c-.29,0-.59-.13-.72-.46-.82-3.03-2.16-6.06-4.22-8.11-1.57-1.5-3.27-2.9-5.96-3.88-.03,0-.07-.03-.1-.03h-.03c-.29-.1-.43-.2-.49-.33,0-.03-.03-.07-.03-.1v-.13c.03-.13.13-.36.62-.39h.03c2.29,0,3.34.39,5.47,1.17,2.49.88,4.32,1.99,5.14,2.54.1.07.26.16.39.16.1,0,.2-.03.29-.1.75-.52,2.65-1.69,5.24-2.64,2.13-.78,3.18-1.17,5.47-1.17h.03M36.43,19.54h-.08c-2.54,0-3.82.47-5.94,1.25-2.37.87-4.14,1.88-5.06,2.46-.94-.59-2.7-1.6-5.03-2.42-2.15-.79-3.43-1.26-5.97-1.26h-.13c-1.02.07-1.75.64-1.98,1.53l-.05.18v.32c0,.12.01.22.03.32v.14l.16.32c.38.75,1.12,1,1.36,1.08l.23.08h.02c2.22.83,3.67,1.96,5.28,3.5,1.61,1.6,2.93,4.18,3.81,7.42l.02.09.03.08c.35.86,1.16,1.4,2.11,1.4h.13c.94,0,1.77-.55,2.11-1.4l.03-.08.02-.09c.88-3.24,2.2-5.82,3.83-7.44,1.56-1.46,3.09-2.62,5.34-3.46l.19-.06c.52-.17.92-.45,1.2-.83.15-.19.3-.47.34-.84.02-.1.04-.22.04-.37v-.19l-.05-.18c-.22-.89-.96-1.46-1.98-1.52h-.05Z"/>
      </g>
    </g>
  </g>
</svg>