<?xml version="1.0" encoding="UTF-8"?>
<svg id="Software_3" data-name="Software 3" xmlns="http://www.w3.org/2000/svg" viewBox="0 0 50 50">
  <defs>
    <style>
      .cls-1 {
        fill: #00cf5f;
      }

      .cls-1, .cls-2, .cls-3 {
        stroke-width: 0px;
      }

      .cls-2 {
        opacity: 0;
      }

      .cls-2, .cls-3 {
        fill: #fff;
      }
    </style>
  </defs>
  <g id="Containers">
    <rect id="BG" class="cls-2" width="50" height="50"/>
    <path class="cls-1" d="M33.19,8H10c-1.1,0-2,.9-2,2v30c0,1.1.9,2,2,2h30c1.1,0,2-.9,2-2v-23.19c0-.53-.21-1.04-.59-1.41l-6.81-6.81c-.38-.38-.88-.59-1.41-.59Z"/>
    <path class="cls-3" d="M26.68,17c2.88,0,5.29,1.8,5.95,4.24.14.5.54.92,1.06,1.14,2.2.92,3.7,2.99,3.56,5.36-.17,2.98-3,5.27-6.29,5.27h-12.08c-3.42,0-6.19-2.55-6.12-5.68.06-3.07,2.96-5.47,6.33-5.47h.06c.82,0,1.51-.49,1.79-1.19.85-2.14,3.11-3.67,5.76-3.67M26.68,15.5c-3.18,0-6.05,1.86-7.15,4.62-.04.11-.17.24-.4.24h-.06c-4.24,0-7.75,3.11-7.83,6.94-.04,1.81.67,3.55,1.98,4.89,1.44,1.47,3.5,2.32,5.65,2.32h12.08c4.15,0,7.56-2.93,7.78-6.68.17-2.94-1.58-5.62-4.48-6.83-.12-.05-.18-.12-.19-.15-.85-3.14-3.89-5.34-7.39-5.34h0Z"/>
    <path class="cls-3" d="M31.32,30.5v-2.32h2.33v2.32h-2.33ZM27.71,30.5v-2.32h2.33v2.32h-2.33ZM24.13,30.5v-2.32h2.32v2.32h-2.32ZM20.45,30.5v-2.32h2.33v2.32h-2.33ZM16.84,30.5v-2.32h2.34v2.32h-2.34ZM27.71,26.83v-2.33h2.33v2.33h-2.33ZM24.13,26.83v-2.33h2.32v2.33h-2.32ZM20.45,26.83v-2.33h2.32v2.33h-2.32ZM27.71,23.08v-2.33h2.33v2.33h-2.33Z"/>
  </g>
</svg>