<?xml version="1.0" encoding="UTF-8"?>
<svg id="Data_Center" data-name="Data Center" xmlns="http://www.w3.org/2000/svg" viewBox="0 0 50 50">
  <defs>
    <style>
      .cls-1 {
        fill: none;
        stroke: #fff;
        stroke-miterlimit: 10;
        stroke-width: 1.5px;
      }

      .cls-2 {
        opacity: 0;
      }

      .cls-2, .cls-3 {
        fill: #fff;
      }

      .cls-2, .cls-3, .cls-4 {
        stroke-width: 0px;
      }

      .cls-4 {
        fill: #505861;
      }
    </style>
  </defs>
  <g id="Datacenter_solid" data-name="Datacenter solid">
    <rect id="BG" class="cls-2" width="50" height="50"/>
    <g>
      <g>
        <path class="cls-4" d="M41.02,8.29h-14.02c-1.1,0-2,.9-2,2v29.42c0,1.1.9,2,2,2h18c1.1,0,2-.9,2-2V14.25c0-.53-.21-1.04-.59-1.42l-3.98-3.97c-.37-.37-.88-.58-1.41-.58Z"/>
        <g id="lines">
          <line class="cls-1" x1="40.5" y1="20.75" x2="43.5" y2="20.75"/>
          <line class="cls-1" x1="40.5" y1="24.75" x2="43.5" y2="24.75"/>
          <line class="cls-1" x1="40.5" y1="16.75" x2="43.5" y2="16.75"/>
        </g>
      </g>
      <g>
        <path class="cls-4" d="M19.02,8.29H5c-1.1,0-2,.9-2,2v29.42c0,1.1.9,2,2,2h18c1.1,0,2-.9,2-2V14.25c0-.53-.21-1.04-.59-1.42l-3.98-3.97c-.37-.37-.88-.58-1.41-.58Z"/>
        <g id="lines-2" data-name="lines">
          <line class="cls-1" x1="6" y1="16.75" x2="17" y2="16.75"/>
          <line class="cls-1" x1="6" y1="20.75" x2="17" y2="20.75"/>
          <line class="cls-1" x1="6" y1="24.75" x2="17" y2="24.75"/>
        </g>
      </g>
      <g>
        <g>
          <path class="cls-4" d="M14,45.5c-1.52,0-2.75-1.23-2.75-2.75V7.25c0-1.52,1.23-2.75,2.75-2.75h17.08c.73,0,1.42.28,1.94.8l4.92,4.9c.52.52.81,1.21.81,1.95v30.6c0,1.52-1.23,2.75-2.75,2.75H14Z"/>
          <path class="cls-3" d="M31.08,5.25c.53,0,1.04.21,1.41.58l4.92,4.9c.38.38.59.89.59,1.42v30.6c0,1.1-.9,2-2,2H14c-1.1,0-2-.9-2-2V7.25c0-1.1.9-2,2-2h17.08M31.08,3.75H14c-1.93,0-3.5,1.57-3.5,3.5v35.5c0,1.93,1.57,3.5,3.5,3.5h22c1.93,0,3.5-1.57,3.5-3.5V12.15c0-.92-.38-1.83-1.03-2.48l-4.92-4.9c-.66-.66-1.54-1.02-2.47-1.02h0Z"/>
        </g>
        <g id="lines-3" data-name="lines">
          <g>
            <line class="cls-1" x1="16" y1="15.25" x2="27" y2="15.25"/>
            <line class="cls-1" x1="30" y1="15.25" x2="34" y2="15.25"/>
          </g>
          <g>
            <line class="cls-1" x1="16" y1="20.25" x2="27" y2="20.25"/>
            <line class="cls-1" x1="30" y1="20.25" x2="34" y2="20.25"/>
          </g>
          <g>
            <line class="cls-1" x1="16" y1="25.25" x2="27" y2="25.25"/>
            <line class="cls-1" x1="30" y1="25.25" x2="34" y2="25.25"/>
          </g>
        </g>
      </g>
    </g>
  </g>
</svg>