<?xml version="1.0" encoding="UTF-8"?>
<svg id="failes" xmlns="http://www.w3.org/2000/svg" viewBox="0 0 50 50">
  <defs>
    <style>
      .cls-1 {
        fill: #505861;
      }

      .cls-1, .cls-2, .cls-3 {
        stroke-width: 0px;
      }

      .cls-2 {
        opacity: 0;
      }

      .cls-2, .cls-3 {
        fill: #fff;
      }
    </style>
  </defs>
  <g id="Data_file" data-name="Data file">
    <rect id="BG" class="cls-2" width="50" height="50"/>
    <g>
      <path class="cls-1" d="M33.09,5H11.87c-1.03,0-1.87.84-1.87,1.87v36.26c0,1.03.84,1.87,1.87,1.87h26.26c1.03,0,1.87-.84,1.87-1.87V11.91c0-.5-.2-.97-.55-1.32l-5.04-5.04c-.35-.35-.83-.55-1.32-.55Z"/>
      <path class="cls-3" d="M37.89,12.62h-5.01c-.25,0-.44-.2-.44-.44v-5.01c0-.4.48-.59.76-.31l5.01,5.01c.28.28.08.76-.31.76Z"/>
    </g>
    <path class="cls-3" d="M17.05,40.62c0,.07,0,.12-.01.17,0,.05-.02.08-.03.11-.01.03-.03.05-.05.06-.02.01-.04.02-.06.02h-2.58s-.04,0-.05-.02c-.02-.01-.03-.03-.04-.06-.01-.03-.02-.07-.03-.11,0-.05-.01-.1-.01-.17s0-.13,0-.18c0-.05.02-.09.03-.11.01-.03.03-.05.05-.06.02-.01.04-.02.06-.02h.87v-3.04l-.75.42c-.06.03-.1.04-.14.05-.03,0-.06,0-.08-.02s-.03-.06-.04-.11c0-.05-.01-.12-.01-.21,0-.06,0-.11,0-.14,0-.04,0-.07.02-.1,0-.03.02-.05.04-.07.02-.02.04-.03.07-.05l1-.65s.03-.02.04-.02c.02,0,.04-.01.07-.01.03,0,.07,0,.11,0,.05,0,.11,0,.18,0,.09,0,.17,0,.22,0,.06,0,.1,0,.13.02.03,0,.05.02.06.03,0,.01.01.03.01.05v3.86h.76s.04,0,.06.02c.02.01.03.03.05.06.01.03.02.07.03.11,0,.05,0,.11,0,.18Z"/>
    <path class="cls-3" d="M27.33,40.62c0,.07,0,.12-.01.17,0,.05-.02.08-.03.11-.01.03-.03.05-.05.06-.02.01-.04.02-.06.02h-2.58s-.04,0-.05-.02c-.02-.01-.03-.03-.04-.06-.01-.03-.02-.07-.03-.11,0-.05-.01-.1-.01-.17s0-.13,0-.18c0-.05.02-.09.03-.11.01-.03.03-.05.05-.06.02-.01.04-.02.06-.02h.87v-3.04l-.75.42c-.06.03-.1.04-.14.05-.03,0-.06,0-.08-.02-.02-.02-.03-.06-.04-.11,0-.05-.01-.12-.01-.21,0-.06,0-.11,0-.14,0-.04,0-.07.02-.1,0-.03.02-.05.04-.07.02-.02.04-.03.07-.05l1-.65s.03-.02.04-.02c.02,0,.04-.01.07-.01.03,0,.07,0,.11,0,.05,0,.11,0,.18,0,.09,0,.17,0,.22,0,.06,0,.1,0,.13.02.03,0,.05.02.06.03,0,.01.01.03.01.05v3.86h.76s.04,0,.06.02c.02.01.03.03.05.06.01.03.02.07.03.11,0,.05,0,.11,0,.18Z"/>
    <path class="cls-3" d="M22.28,38.61c0,.36-.03.69-.09.99-.06.29-.15.54-.29.75-.13.21-.31.37-.52.48-.21.11-.47.17-.78.17s-.57-.05-.78-.16c-.2-.11-.37-.26-.49-.46-.12-.2-.2-.45-.25-.74-.05-.29-.07-.62-.07-.99s.03-.69.09-.99c.06-.29.16-.55.29-.75.13-.21.31-.37.52-.48.21-.11.47-.17.78-.17s.57.05.78.16c.21.11.37.26.49.46.12.2.2.45.25.74.05.29.07.62.07.99ZM21.34,38.66c0-.22,0-.41-.02-.57-.01-.17-.03-.31-.05-.43-.02-.12-.06-.23-.09-.31-.04-.08-.08-.15-.13-.2-.05-.05-.11-.09-.18-.11-.07-.02-.14-.03-.22-.03-.14,0-.25.03-.34.1-.09.07-.16.17-.21.3-.05.13-.09.3-.11.5-.02.2-.03.43-.03.7,0,.32.01.59.04.81.03.21.07.38.12.51.06.13.13.21.21.26.09.05.19.08.31.08.09,0,.17-.01.24-.04.07-.03.13-.07.19-.13.05-.06.1-.13.13-.22.04-.09.06-.19.09-.31.02-.12.04-.25.05-.4,0-.15.01-.31.01-.49Z"/>
    <path class="cls-3" d="M22.31,33.36c0,.07,0,.13-.01.17,0,.05-.02.08-.03.11-.01.03-.03.05-.05.06-.02.01-.04.02-.06.02h-2.58s-.04,0-.05-.02c-.02-.01-.03-.03-.05-.06-.01-.03-.02-.07-.03-.11,0-.05-.01-.1-.01-.17s0-.13,0-.18c0-.05.02-.09.03-.11.01-.03.03-.05.05-.06.02-.01.04-.02.06-.02h.87v-3.04l-.75.42c-.06.03-.1.04-.14.05-.03,0-.06,0-.08-.02-.02-.02-.03-.06-.04-.11,0-.05-.01-.12-.01-.21,0-.06,0-.11,0-.14,0-.04,0-.07.02-.1,0-.03.02-.05.04-.07.02-.02.04-.03.07-.05l1.01-.65s.03-.02.04-.02c.02,0,.04-.01.07-.01.03,0,.07,0,.11,0,.05,0,.11,0,.18,0,.09,0,.17,0,.22,0,.06,0,.1,0,.13.02.03,0,.05.02.06.03,0,.01.01.03.01.05v3.86h.76s.04,0,.06.02c.02.01.03.03.05.06.01.03.02.07.03.11,0,.05,0,.11,0,.18Z"/>
    <path class="cls-3" d="M17.26,31.35c0,.36-.03.69-.09.99-.06.29-.15.54-.29.75-.13.21-.31.37-.52.48-.21.11-.47.17-.78.17s-.57-.05-.78-.16c-.2-.11-.37-.26-.49-.46-.12-.2-.2-.45-.25-.74-.05-.29-.07-.62-.07-.99s.03-.69.09-.99c.06-.29.16-.55.29-.75s.31-.37.52-.48c.21-.11.47-.17.78-.17s.57.05.78.16c.21.11.37.26.49.46.12.2.2.45.25.74.05.29.07.62.07.99ZM16.33,31.39c0-.22,0-.41-.02-.57-.01-.17-.03-.31-.05-.43-.02-.12-.06-.23-.09-.31-.04-.08-.08-.15-.13-.2-.05-.05-.11-.09-.18-.11-.07-.02-.14-.03-.22-.03-.14,0-.25.03-.34.1-.09.07-.16.17-.21.3-.05.13-.09.3-.11.5-.02.2-.03.43-.03.7,0,.32.01.59.04.81.03.21.07.38.12.51.06.13.13.21.21.26.09.05.19.08.31.08.09,0,.17-.01.24-.04.07-.03.13-.07.19-.13.05-.06.1-.13.13-.22.03-.09.06-.19.09-.31.02-.12.04-.25.05-.4,0-.15.01-.31.01-.49Z"/>
    <path class="cls-3" d="M17.07,25.36c0,.07,0,.13-.01.17,0,.05-.02.08-.03.11-.01.03-.03.05-.05.06-.02.01-.04.02-.06.02h-2.58s-.04,0-.05-.02c-.02-.01-.03-.03-.05-.06-.01-.03-.02-.07-.03-.11,0-.05-.01-.1-.01-.17s0-.13,0-.18c0-.05.02-.08.03-.11.01-.03.03-.05.05-.06.02-.01.04-.02.06-.02h.87v-3.04l-.75.42c-.06.03-.1.04-.14.05-.03,0-.06,0-.08-.02s-.03-.06-.04-.11c0-.05-.01-.12-.01-.21,0-.06,0-.11,0-.14,0-.04,0-.07.02-.1,0-.03.02-.05.04-.07.02-.02.04-.04.07-.05l1-.65s.03-.02.04-.02c.02,0,.04-.01.07-.01.03,0,.07,0,.11,0,.05,0,.11,0,.18,0,.09,0,.17,0,.22,0,.06,0,.1,0,.13.02.03,0,.05.02.06.03,0,.01.01.03.01.05v3.86h.76s.04,0,.06.02c.02.01.03.03.05.06.01.03.02.07.03.11,0,.05,0,.11,0,.18Z"/>
    <path class="cls-3" d="M27.33,25.36c0,.07,0,.13-.01.17,0,.05-.02.08-.03.11-.01.03-.03.05-.05.06-.02.01-.04.02-.06.02h-2.58s-.04,0-.05-.02c-.02-.01-.03-.03-.04-.06-.01-.03-.02-.07-.03-.11,0-.05-.01-.1-.01-.17s0-.13,0-.18c0-.05.02-.08.03-.11.01-.03.03-.05.05-.06.02-.01.04-.02.06-.02h.87v-3.04l-.75.42c-.06.03-.1.04-.14.05-.03,0-.06,0-.08-.02-.02-.02-.03-.06-.04-.11,0-.05-.01-.12-.01-.21,0-.06,0-.11,0-.14,0-.04,0-.07.02-.1,0-.03.02-.05.04-.07.02-.02.04-.04.07-.05l1-.65s.03-.02.04-.02c.02,0,.04-.01.07-.01.03,0,.07,0,.11,0,.05,0,.11,0,.18,0,.09,0,.17,0,.22,0,.06,0,.1,0,.13.02.03,0,.05.02.06.03,0,.01.01.03.01.05v3.86h.76s.04,0,.06.02c.02.01.03.03.05.06.01.03.02.07.03.11,0,.05,0,.11,0,.18Z"/>
    <path class="cls-3" d="M27.4,31.35c0,.36-.03.69-.09.99-.06.29-.15.54-.29.75-.13.21-.31.37-.52.48-.21.11-.47.17-.78.17s-.57-.05-.78-.16c-.2-.11-.37-.26-.49-.46-.12-.2-.2-.45-.25-.74-.05-.29-.07-.62-.07-.99s.03-.69.09-.99c.06-.29.16-.55.29-.75.13-.21.31-.37.52-.48.21-.11.47-.17.78-.17s.57.05.78.16c.21.11.37.26.49.46.12.2.2.45.25.74.05.29.07.62.07.99ZM26.46,31.39c0-.22,0-.41-.02-.57-.01-.17-.03-.31-.05-.43-.02-.12-.06-.23-.09-.31-.04-.08-.08-.15-.13-.2-.05-.05-.11-.09-.18-.11-.07-.02-.14-.03-.22-.03-.14,0-.25.03-.34.1-.09.07-.16.17-.21.3-.05.13-.09.3-.11.5-.02.2-.03.43-.03.7,0,.32.01.59.04.81.03.21.07.38.12.51.06.13.13.21.21.26.09.05.19.08.31.08.09,0,.17-.01.24-.04.07-.03.13-.07.19-.13.05-.06.1-.13.13-.22.04-.09.06-.19.09-.31.02-.12.04-.25.05-.4,0-.15.01-.31.01-.49Z"/>
    <path class="cls-3" d="M22.28,23.35c0,.36-.03.69-.09.99-.06.29-.15.54-.29.75-.13.21-.31.37-.52.48-.21.11-.47.17-.78.17s-.57-.05-.78-.16c-.2-.11-.37-.26-.49-.46-.12-.2-.2-.45-.25-.74-.05-.29-.07-.62-.07-.99s.03-.69.09-.99c.06-.29.16-.55.29-.75.13-.21.31-.37.52-.48.21-.11.47-.17.78-.17s.57.05.78.16c.21.11.37.26.49.46.12.2.2.45.25.74.05.29.07.62.07.99ZM21.34,23.39c0-.22,0-.41-.02-.57-.01-.17-.03-.31-.05-.43-.02-.12-.06-.23-.09-.31s-.08-.15-.13-.2c-.05-.05-.11-.09-.18-.11-.07-.02-.14-.03-.22-.03-.14,0-.25.03-.34.1-.09.07-.16.17-.21.3-.05.13-.09.3-.11.5-.02.2-.03.43-.03.7,0,.32.01.59.04.81.03.21.07.38.12.51.06.13.13.21.21.26.09.05.19.08.31.08.09,0,.17-.01.24-.04.07-.03.13-.07.19-.13.05-.06.1-.13.13-.22.04-.09.06-.19.09-.31.02-.12.04-.25.05-.4,0-.15.01-.31.01-.49Z"/>
  </g>
</svg>