<?xml version="1.0" encoding="UTF-8"?>
<svg id="Data_Center" data-name="Data Center" xmlns="http://www.w3.org/2000/svg" viewBox="0 0 50 50">
  <defs>
    <style>
      .cls-1 {
        stroke: #505861;
        stroke-miterlimit: 10;
        stroke-width: 1.5px;
      }

      .cls-1, .cls-2, .cls-3 {
        fill: #fff;
      }

      .cls-2 {
        opacity: 0;
      }

      .cls-2, .cls-3, .cls-4 {
        stroke-width: 0px;
      }

      .cls-4 {
        fill: #505861;
      }
    </style>
  </defs>
  <g id="Datacenter_line" data-name="Datacenter line">
    <rect id="BG" class="cls-2" x="0" width="50" height="50"/>
    <g>
      <g>
        <g>
          <path class="cls-4" d="M41.02,10.04c.13,0,.26.05.35.15l3.98,3.97c.09.09.15.22.15.35v25.46c0,.28-.22.5-.5.5h-18c-.28,0-.5-.22-.5-.5V10.54c0-.28.22-.5.5-.5h14.02M41.02,8.54h-14.02c-1.1,0-2,.9-2,2v29.42c0,1.1.9,2,2,2h18c1.1,0,2-.9,2-2V14.5c0-.53-.21-1.04-.59-1.42l-3.98-3.97c-.37-.37-.88-.58-1.41-.58h0Z"/>
          <g id="lines">
            <line class="cls-1" x1="40.5" y1="21" x2="43.5" y2="21"/>
            <line class="cls-1" x1="40.5" y1="25" x2="43.5" y2="25"/>
            <line class="cls-1" x1="40.5" y1="17" x2="43.5" y2="17"/>
          </g>
        </g>
        <g>
          <path class="cls-4" d="M19.02,10.04c.13,0,.26.05.35.15l3.98,3.97c.09.09.15.22.15.35v25.46c0,.28-.22.5-.5.5H5c-.28,0-.5-.22-.5-.5V10.54c0-.28.22-.5.5-.5h14.02M19.02,8.54H5c-1.1,0-2,.9-2,2v29.42c0,1.1.9,2,2,2h18c1.1,0,2-.9,2-2V14.5c0-.53-.21-1.04-.59-1.42l-3.98-3.97c-.37-.37-.88-.58-1.41-.58h0Z"/>
          <g id="lines-2" data-name="lines">
            <line class="cls-1" x1="6" y1="17" x2="17" y2="17"/>
            <line class="cls-1" x1="6" y1="21" x2="17" y2="21"/>
            <line class="cls-1" x1="6" y1="25" x2="17" y2="25"/>
          </g>
        </g>
        <g>
          <g>
            <path class="cls-3" d="M14,44.25c-.69,0-1.25-.56-1.25-1.25V7.5c0-.69.56-1.25,1.25-1.25h17.08c.33,0,.65.13.88.36l4.92,4.9c.24.24.37.55.37.89v30.6c0,.69-.56,1.25-1.25,1.25H14Z"/>
            <path class="cls-4" d="M31.08,7c.13,0,.26.05.35.15l4.92,4.9c.09.09.15.22.15.35v30.6c0,.28-.22.5-.5.5H14c-.28,0-.5-.22-.5-.5V7.5c0-.28.22-.5.5-.5h17.08M31.08,5.5H14c-1.1,0-2,.9-2,2v35.5c0,1.1.9,2,2,2h22c1.1,0,2-.9,2-2V12.4c0-.53-.21-1.04-.59-1.42l-4.92-4.9c-.37-.37-.88-.58-1.41-.58h0Z"/>
          </g>
          <g id="lines-3" data-name="lines">
            <g>
              <line class="cls-1" x1="16" y1="15.5" x2="27" y2="15.5"/>
              <line class="cls-1" x1="30" y1="15.5" x2="34" y2="15.5"/>
            </g>
            <g>
              <line class="cls-1" x1="16" y1="20.5" x2="27" y2="20.5"/>
              <line class="cls-1" x1="30" y1="20.5" x2="34" y2="20.5"/>
            </g>
            <g>
              <line class="cls-1" x1="16" y1="25.5" x2="27" y2="25.5"/>
              <line class="cls-1" x1="30" y1="25.5" x2="34" y2="25.5"/>
            </g>
          </g>
        </g>
      </g>
      <g id="line">
        <path class="cls-3" d="M31.08,5.5c.53,0,1.04.21,1.41.58l4.92,4.9c.38.38.59.89.59,1.42v30.6c0,1.1-.9,2-2,2H14c-1.1,0-2-.9-2-2V7.5c0-1.1.9-2,2-2h17.08M31.08,4H14c-1.93,0-3.5,1.57-3.5,3.5v35.5c0,1.93,1.57,3.5,3.5,3.5h22c1.93,0,3.5-1.57,3.5-3.5V12.4c0-.92-.38-1.83-1.03-2.48l-4.92-4.9c-.66-.66-1.54-1.02-2.47-1.02h0Z"/>
      </g>
    </g>
  </g>
</svg>