<?xml version="1.0" encoding="UTF-8"?>
<svg id="Veeam_features" data-name="Veeam features" xmlns="http://www.w3.org/2000/svg" viewBox="0 0 50 50">
  <defs>
    <style>
      .cls-1 {
        stroke-width: 1.5px;
      }

      .cls-1, .cls-2 {
        fill: none;
        stroke: #fff;
        stroke-miterlimit: 10;
      }

      .cls-2 {
        stroke-width: .75px;
      }

      .cls-3 {
        opacity: 0;
      }

      .cls-3, .cls-4, .cls-5 {
        stroke-width: 0px;
      }

      .cls-3, .cls-5 {
        fill: #fff;
      }

      .cls-4 {
        fill: #00d15f;
      }
    </style>
  </defs>
  <g id="Data_Integration_API" data-name="Data Integration API">
    <rect id="BG" class="cls-3" width="50" height="50"/>
    <path class="cls-4" d="M33.19,8H10c-1.1,0-2,.9-2,2v30c0,1.1.9,2,2,2h30c1.1,0,2-.9,2-2v-23.19c0-.53-.21-1.04-.59-1.41l-6.81-6.81c-.38-.38-.88-.59-1.41-.59Z"/>
    <g>
      <path class="cls-5" d="M25.59,11.5h-12.03c-.59,0-1.06.47-1.06,1.05v20.39c0,.58.47,1.05,1.06,1.05h14.88c.59,0,1.06-.47,1.06-1.05V15.39c0-.28-.11-.55-.31-.75l-2.85-2.84c-.2-.2-.47-.31-.75-.31Z"/>
      <path class="cls-4" d="M28.31,15.79h-2.82c-.14,0-.25-.11-.25-.25v-2.82c0-.22.27-.33.43-.18l2.82,2.82c.16.16.05.43-.18.43Z"/>
    </g>
    <g>
      <path class="cls-4" d="M27.5,22.5c4.14,0,7.5,3.36,7.5,7.5s-3.36,7.5-7.5,7.5-7.5-3.36-7.5-7.5,3.36-7.5,7.5-7.5M27.5,21c-4.96,0-9,4.04-9,9s4.04,9,9,9,9-4.04,9-9-4.04-9-9-9h0Z"/>
      <line class="cls-1" x1="32.25" y1="34.75" x2="36.5" y2="39"/>
      <g>
        <circle class="cls-4" cx="27.5" cy="30" r="6.75"/>
        <path class="cls-5" d="M27.5,24c3.31,0,6,2.69,6,6s-2.69,6-6,6-6-2.69-6-6,2.69-6,6-6M27.5,22.5c-4.14,0-7.5,3.36-7.5,7.5s3.36,7.5,7.5,7.5,7.5-3.36,7.5-7.5-3.36-7.5-7.5-7.5h0Z"/>
      </g>
    </g>
    <path class="cls-2" d="M30.5,24v8.5c0,.83-.67,1.5-1.5,1.5h-7.5"/>
    <path class="cls-5" d="M28.46,31.8s0,.07,0,.09c0,.02,0,.05-.02.06,0,.02-.01.03-.02.03,0,0-.02.01-.03.01h-1.38s-.02,0-.03-.01c0,0-.02-.02-.02-.03,0-.01-.01-.04-.02-.06,0-.02,0-.06,0-.09s0-.07,0-.09c0-.02,0-.05.02-.06,0-.02.01-.03.02-.03,0,0,.02-.01.03-.01h.47v-1.63l-.4.22s-.05.02-.07.03c-.02,0-.03,0-.04-.01-.01-.01-.02-.03-.02-.06,0-.03,0-.07,0-.11,0-.03,0-.06,0-.08,0-.02,0-.04.01-.05,0-.01.01-.03.02-.04,0,0,.02-.02.04-.03l.54-.35s.01,0,.02-.01c.01,0,.02,0,.04,0,.02,0,.04,0,.06,0,.02,0,.06,0,.1,0,.05,0,.09,0,.12,0,.03,0,.05,0,.07,0,.02,0,.03.01.03.02s0,.02,0,.03v2.07h.41s.02,0,.03.01c.01,0,.02.02.03.03,0,.01.01.04.02.06,0,.02,0,.06,0,.09"/>
    <path class="cls-5" d="M25.75,30.72c0,.2-.02.37-.05.53-.03.16-.08.29-.15.4-.07.11-.16.2-.28.26s-.25.09-.42.09-.31-.03-.42-.09c-.11-.06-.2-.14-.26-.25-.06-.11-.11-.24-.14-.4-.03-.16-.04-.33-.04-.53s.02-.37.05-.53.08-.29.16-.4c.07-.11.16-.2.28-.26s.25-.09.42-.09.31.03.42.09c.11.06.2.14.26.25.06.11.11.24.13.4.03.16.04.33.04.53M25.25,30.75c0-.12,0-.22,0-.31,0-.09-.02-.17-.03-.23-.01-.07-.03-.12-.05-.17-.02-.05-.04-.08-.07-.11-.03-.03-.06-.05-.09-.06-.04-.01-.07-.02-.12-.02-.07,0-.14.02-.18.05-.05.04-.09.09-.12.16-.03.07-.05.16-.06.27-.01.11-.02.23-.02.38,0,.17,0,.32.02.43.01.11.04.2.06.27.03.07.07.12.11.14.05.03.1.04.17.04.05,0,.09,0,.13-.02.04-.02.07-.04.1-.07.03-.03.05-.07.07-.12.02-.05.03-.1.05-.17.01-.06.02-.13.02-.21,0-.08,0-.17,0-.26"/>
    <path class="cls-5" d="M25.77,28.54s0,.07,0,.09c0,.02,0,.05-.02.06,0,.01-.01.03-.02.03,0,0-.02,0-.03,0h-1.38s-.02,0-.03,0c0,0-.02-.02-.02-.03,0-.01-.01-.04-.02-.06,0-.02,0-.06,0-.09s0-.07,0-.09c0-.02,0-.05.02-.06,0-.02.01-.03.02-.03,0,0,.02-.01.03-.01h.47v-1.63l-.4.22s-.05.02-.07.03c-.02,0-.03,0-.04-.01-.01-.01-.02-.03-.02-.06,0-.03,0-.06,0-.11,0-.03,0-.06,0-.08,0-.02,0-.04,0-.05,0-.01.01-.03.02-.04,0,0,.02-.02.04-.03l.54-.35s.01,0,.02-.01c0,0,.02,0,.04,0,.02,0,.04,0,.06,0,.03,0,.06,0,.1,0,.05,0,.09,0,.12,0,.03,0,.05,0,.07,0,.02,0,.03.01.03.02,0,0,0,.02,0,.03v2.07h.41s.02,0,.03.01c.01,0,.02.02.03.03,0,.01.01.04.02.06,0,.02,0,.06,0,.09"/>
    <path class="cls-5" d="M28.5,27.46c0,.2-.02.37-.05.53-.03.16-.08.29-.16.4-.07.11-.16.2-.28.26-.11.06-.25.09-.42.09s-.31-.03-.42-.09c-.11-.06-.2-.14-.26-.25-.06-.11-.11-.24-.14-.4-.03-.16-.04-.33-.04-.53s.02-.37.05-.53c.03-.16.08-.29.16-.4.07-.11.16-.2.28-.26.11-.06.25-.09.42-.09s.31.03.42.09c.11.06.2.14.26.25.06.11.11.24.13.4.03.16.04.33.04.53M28,27.48c0-.12,0-.22,0-.31,0-.09-.02-.17-.03-.23-.01-.07-.03-.12-.05-.17s-.04-.08-.07-.11c-.03-.03-.06-.05-.09-.06-.04-.01-.07-.02-.12-.02-.07,0-.14.02-.18.05-.05.04-.09.09-.12.16-.03.07-.05.16-.06.27-.01.11-.02.23-.02.38,0,.17,0,.32.02.43.01.11.04.2.06.27.03.07.07.12.11.14.05.03.1.04.17.04.05,0,.09,0,.13-.02.04-.02.07-.04.1-.07.03-.03.05-.07.07-.12.02-.05.04-.1.05-.17.01-.06.02-.14.02-.21,0-.08,0-.17,0-.26"/>
  </g>
</svg>