<?xml version="1.0" encoding="UTF-8"?>
<svg id="Storage" xmlns="http://www.w3.org/2000/svg" viewBox="0 0 50 50">
  <defs>
    <style>
      .cls-1 {
        fill: #505861;
      }

      .cls-1, .cls-2, .cls-3 {
        stroke-width: 0px;
      }

      .cls-2 {
        opacity: 0;
      }

      .cls-2, .cls-3 {
        fill: #fff;
      }
    </style>
  </defs>
  <g id="Deduplication_appliance" data-name="Deduplication appliance">
    <rect id="BG" class="cls-2" width="50" height="50"/>
    <g>
      <path class="cls-1" d="M40.96,19.1l3.96,4.02c.37.37.58.88.58,1.4v4.98c0,1.1-.9,2-2,2H6.5c-1.1,0-2-.9-2-2v-9c0-1.1.9-2,2-2h33.04c.54,0,1.05.21,1.42.6Z"/>
      <rect class="cls-3" x="7.24" y="24.26" width="6" height="1.5" transform="translate(35.25 14.78) rotate(90)"/>
      <rect class="cls-3" x="12.25" y="24.26" width="6" height="1.5" transform="translate(40.26 9.76) rotate(90)"/>
      <rect class="cls-3" x="17.25" y="24.26" width="6" height="1.5" transform="translate(45.26 4.76) rotate(90)"/>
      <rect class="cls-3" x="22.25" y="24.26" width="6" height="1.5" transform="translate(50.26 -.24) rotate(90)"/>
      <rect class="cls-3" x="27.25" y="24.26" width="6" height="1.5" transform="translate(55.26 -5.24) rotate(90)"/>
    </g>
    <path class="cls-3" d="M35.99,28.5h1.93c.12,0,.23-.08.27-.19l1.06-3.2c.06-.18-.08-.37-.27-.37h-4.05c-.19,0-.33.19-.27.37l1.06,3.2c.04.12.15.19.27.19Z"/>
    <circle class="cls-3" cx="37.12" cy="21.3" r=".8"/>
    <path class="cls-3" d="M34.89,22.61l.07.89c.02.23.28.36.47.23l.74-.5c.19-.13.17-.42-.04-.52l-.81-.39c-.21-.1-.45.06-.43.29Z"/>
    <rect class="cls-3" x="37.37" y="22.76" width="1.39" height="1.39" rx=".28" ry=".28" transform="translate(-5.56 13.67) rotate(-18.99)"/>
  </g>
</svg>