<?xml version="1.0" encoding="UTF-8"?>
<svg id="Miscellaneous" xmlns="http://www.w3.org/2000/svg" viewBox="0 0 50 50">
  <defs>
    <style>
      .cls-1 {
        fill: none;
        stroke: #fff;
        stroke-miterlimit: 10;
        stroke-width: 1.5px;
      }

      .cls-2 {
        fill: #505861;
      }

      .cls-2, .cls-3, .cls-4 {
        stroke-width: 0px;
      }

      .cls-3 {
        opacity: 0;
      }

      .cls-3, .cls-4 {
        fill: #fff;
      }
    </style>
  </defs>
  <g id="Deduplication">
    <rect id="BG" class="cls-3" width="50" height="50"/>
    <rect class="cls-2" x="10" y="10" width="30" height="30" rx="2" ry="2"/>
    <path class="cls-1" d="M28.03,35.43h-6.06c-.72,0-1.33-.47-1.43-1.12l-2.57-9.63c-.13-.79.55-1.5,1.43-1.5h11.2c.88,0,1.56.71,1.43,1.5l-2.57,9.63c-.1.64-.71,1.12-1.43,1.12Z"/>
    <circle class="cls-4" cx="24.71" cy="14.74" r="2.05"/>
    <path class="cls-4" d="M19.43,17.69l.22,3c.03.43.52.67.88.42l2.48-1.69c.36-.24.32-.79-.07-.97l-2.71-1.31c-.39-.19-.84.12-.81.55Z"/>
    <rect class="cls-4" x="26.66" y="17.3" width="3.56" height="3.56" rx=".5" ry=".5" transform="translate(-4.66 10.3) rotate(-18.99)"/>
  </g>
</svg>