<?xml version="1.0" encoding="UTF-8"?>
<svg id="Storage" xmlns="http://www.w3.org/2000/svg" viewBox="0 0 50 50">
  <defs>
    <style>
      .cls-1 {
        opacity: 0;
      }

      .cls-1, .cls-2, .cls-3, .cls-4 {
        stroke-width: 0px;
      }

      .cls-1, .cls-3 {
        fill: #fff;
      }

      .cls-2 {
        fill: #00d15f;
      }

      .cls-4 {
        fill: #505861;
      }
    </style>
  </defs>
  <g id="Disk_partition" data-name="Disk partition">
    <rect id="BG" class="cls-1" width="50" height="50"/>
    <g id="SSD">
      <rect class="cls-4" x="8" y="4.5" width="32" height="38" rx="2" ry="2"/>
      <rect class="cls-3" x="11" y="36" width="26" height="1.5"/>
      <circle class="cls-3" cx="24" cy="21.5" r="2"/>
      <path class="cls-3" d="M24,11c5.79,0,10.5,4.71,10.5,10.5s-4.71,10.5-10.5,10.5-10.5-4.71-10.5-10.5,4.71-10.5,10.5-10.5M24,9.5c-6.63,0-12,5.37-12,12s5.37,12,12,12,12-5.37,12-12-5.37-12-12-12h0Z"/>
    </g>
    <g>
      <g>
        <path class="cls-2" d="M38.5,46c-4.14,0-7.5-3.37-7.5-7.5s3.36-7.5,7.5-7.5,7.5,3.36,7.5,7.5-3.36,7.5-7.5,7.5Z"/>
        <path class="cls-3" d="M38.5,31.5c3.86,0,7,3.14,7,7s-3.14,7-7,7-7-3.14-7-7,3.14-7,7-7M38.5,30.5c-4.42,0-8,3.58-8,8s3.58,8,8,8,8-3.58,8-8-3.58-8-8-8h0Z"/>
      </g>
      <polygon class="cls-3" points="39 31.49 38 31.49 38 38.09 32.79 43.29 33.5 44 39 38.5 39 31.49"/>
    </g>
  </g>
</svg>