<?xml version="1.0" encoding="UTF-8"?>
<svg id="VMs" xmlns="http://www.w3.org/2000/svg" viewBox="0 0 50 50">
  <defs>
    <style>
      .cls-1, .cls-2 {
        stroke: #fff;
        stroke-miterlimit: 10;
      }

      .cls-1, .cls-2, .cls-3 {
        fill: #505861;
      }

      .cls-2 {
        stroke-width: 1.5px;
      }

      .cls-4 {
        fill: #fff;
        opacity: 0;
      }

      .cls-4, .cls-3 {
        stroke-width: 0px;
      }
    </style>
  </defs>
  <g id="EC2_instance" data-name="EC2 instance">
    <rect class="cls-3" x="10.5" y="10.5" width="29" height="29" rx="2" ry="2"/>
  </g>
  <g>
    <rect id="BG" class="cls-4" width="50" height="50"/>
    <rect class="cls-2" x="25" y="15" width="10" height="10" rx=".5" ry=".5"/>
    <rect class="cls-2" x="15" y="25" width="10" height="10" rx=".5" ry=".5"/>
    <rect class="cls-3" x="17" y="17" width="16" height="16"/>
    <g>
      <line class="cls-1" x1="31.5" y1="26.17" x2="18.5" y2="26.17"/>
      <line class="cls-1" x1="31.5" y1="23.83" x2="18.5" y2="23.83"/>
      <line class="cls-1" x1="31.5" y1="28.5" x2="18.5" y2="28.5"/>
      <line class="cls-1" x1="31.5" y1="21.5" x2="18.5" y2="21.5"/>
    </g>
    <g>
      <line class="cls-1" x1="26.17" y1="18.5" x2="26.17" y2="31.5"/>
      <line class="cls-1" x1="23.83" y1="18.5" x2="23.83" y2="31.5"/>
      <line class="cls-1" x1="28.5" y1="18.5" x2="28.5" y2="31.5"/>
      <line class="cls-1" x1="21.5" y1="18.5" x2="21.5" y2="31.5"/>
    </g>
    <rect class="cls-2" x="20.25" y="20.25" width="9.5" height="9.5" rx=".5" ry=".5"/>
  </g>
</svg>