<?xml version="1.0" encoding="UTF-8"?>
<svg id="States" xmlns="http://www.w3.org/2000/svg" viewBox="0 0 50 50">
  <defs>
    <style>
      .cls-1 {
        opacity: 0;
      }

      .cls-1, .cls-2, .cls-3 {
        stroke-width: 0px;
      }

      .cls-1, .cls-3 {
        fill: #fff;
      }

      .cls-2 {
        fill: #00d15f;
      }
    </style>
  </defs>
  <g id="Eject">
    <rect id="BG" class="cls-1" width="50" height="50"/>
    <path class="cls-2" d="M36.5,25c0,6.35-5.15,11.5-11.5,11.5s-11.5-5.15-11.5-11.5,5.15-11.5,11.5-11.5,11.5,5.15,11.5,11.5Z"/>
    <g>
      <rect class="cls-3" x="18.5" y="29" width="13" height="1"/>
      <path class="cls-3" d="M25,19.35c.08,0,.25.02.38.17l5.36,6.15c.19.22.12.45.08.54-.04.09-.16.29-.46.29h-10.72c-.29,0-.42-.2-.46-.29-.04-.09-.11-.32.08-.54l5.36-6.15c.13-.15.29-.17.38-.17M25,18.35c-.42,0-.83.17-1.13.51l-5.36,6.15c-.85.97-.16,2.49,1.13,2.49h10.72c1.29,0,1.98-1.51,1.13-2.49l-5.36-6.15c-.3-.34-.71-.51-1.13-.51h0Z"/>
    </g>
  </g>
</svg>