<?xml version="1.0" encoding="UTF-8"?>
<svg id="Miscellaneous" xmlns="http://www.w3.org/2000/svg" viewBox="0 0 50 50">
  <defs>
    <style>
      .cls-1, .cls-2, .cls-3 {
        stroke-width: 0px;
      }

      .cls-1, .cls-4 {
        fill: #505861;
      }

      .cls-2 {
        opacity: 0;
      }

      .cls-2, .cls-3 {
        fill: #fff;
      }

      .cls-5 {
        fill: none;
        stroke-linejoin: round;
        stroke-width: 1.5px;
      }

      .cls-5, .cls-4 {
        stroke: #fff;
      }

      .cls-4 {
        stroke-miterlimit: 10;
      }
    </style>
  </defs>
  <g id="Failover">
    <rect id="BG" class="cls-2" width="50" height="50"/>
    <path class="cls-1" d="M38,7H12c-1.1,0-2,.85-2,1.9v33.21c0,1.05.9,1.9,2,1.9h26c1.1,0,2-.85,2-1.9V8.9c0-1.05-.9-1.9-2-1.9Z"/>
    <rect class="cls-4" x="17" y="5" width=".5" height="0"/>
    <rect class="cls-4" x="16.5" y="5.5" width="16.5" height="3.5" rx="1" ry="1"/>
    <g>
      <path class="cls-3" d="M19.27,17.65c.55-.08,1.2-.15,1.92-.15,1.3,0,2.22.3,2.83.87.62.57.98,1.38.98,2.51s-.35,2.07-1,2.72c-.65.65-1.73,1.01-3.09,1.01-.64,0-1.18-.03-1.64-.08v-6.87ZM20.17,23.83c.23.04.56.05.91.05,1.93,0,2.98-1.08,2.98-2.96.01-1.65-.92-2.7-2.83-2.7-.47,0-.82.04-1.06.09v5.52Z"/>
      <path class="cls-3" d="M26.18,17.65c.46-.09,1.11-.15,1.73-.15.96,0,1.59.18,2.02.57.35.31.55.79.55,1.33,0,.92-.58,1.53-1.32,1.78v.03c.54.19.86.69,1.03,1.41.23.97.39,1.65.54,1.92h-.93c-.11-.2-.27-.8-.47-1.67-.21-.96-.58-1.33-1.4-1.36h-.85v3.03h-.9v-6.89ZM27.08,20.83h.92c.96,0,1.58-.53,1.58-1.33,0-.9-.65-1.3-1.61-1.31-.44,0-.75.04-.89.08v2.55Z"/>
    </g>
    <line class="cls-5" x1="35.5" y1="29.5" x2="14.5" y2="29.5"/>
    <line class="cls-5" x1="35.5" y1="34" x2="14.5" y2="34"/>
    <line class="cls-5" x1="35.5" y1="38.5" x2="14.5" y2="38.5"/>
  </g>
</svg>