<?xml version="1.0" encoding="UTF-8"?>
<svg id="failes" xmlns="http://www.w3.org/2000/svg" viewBox="0 0 50 50">
  <defs>
    <style>
      .cls-1 {
        fill: #505861;
      }

      .cls-1, .cls-2, .cls-3 {
        stroke-width: 0px;
      }

      .cls-2 {
        opacity: 0;
      }

      .cls-2, .cls-3 {
        fill: #fff;
      }
    </style>
  </defs>
  <rect id="BG" class="cls-2" width="50" height="50"/>
  <path class="cls-1" d="M33.09,5H11.87c-1.03,0-1.87.84-1.87,1.87v36.26c0,1.03.84,1.87,1.87,1.87h26.26c1.03,0,1.87-.84,1.87-1.87V11.91c0-.5-.2-.97-.55-1.32l-5.04-5.04c-.35-.35-.83-.55-1.32-.55Z"/>
  <path class="cls-3" d="M37.89,12.62h-5.01c-.25,0-.44-.2-.44-.44v-5.01c0-.4.48-.59.76-.31l5.01,5.01c.28.28.08.76-.31.76Z"/>
  <g>
    <rect class="cls-3" x="15" y="35.5" width="20" height="1.5"/>
    <rect class="cls-3" x="15" y="29" width="20" height="1.5"/>
    <rect class="cls-3" x="15" y="22.5" width="20" height="1.5"/>
  </g>
</svg>