<?xml version="1.0" encoding="UTF-8"?>
<svg id="Miscellaneous" xmlns="http://www.w3.org/2000/svg" viewBox="0 0 50 50">
  <defs>
    <style>
      .cls-1 {
        fill: none;
        stroke: #fff;
        stroke-miterlimit: 10;
        stroke-width: 1.5px;
      }

      .cls-2 {
        fill: #505861;
      }

      .cls-2, .cls-3, .cls-4, .cls-5 {
        stroke-width: 0px;
      }

      .cls-3 {
        opacity: 0;
      }

      .cls-3, .cls-4 {
        fill: #fff;
      }

      .cls-5 {
        fill: #505861;
      }
    </style>
  </defs>
  <g id="File_system_browser" data-name="File system browser">
    <rect id="BG" class="cls-3" width="50" height="50"/>
    <rect class="cls-2" x="10" y="10" width="30" height="30" rx="2" ry="2"/>
    <g>
      <circle class="cls-4" cx="37.25" cy="12.25" r=".75"/>
      <circle class="cls-4" cx="34.25" cy="12.25" r=".75"/>
      <circle class="cls-4" cx="31.25" cy="12.25" r=".75"/>
    </g>
    <line class="cls-1" x1="10" y1="15" x2="40" y2="15"/>
    <g>
      <path class="cls-5" d="M16.53,35.25c-.43,0-.78-.35-.78-.78v-10.95c0-.43.35-.78.78-.78h6.56s2.31-2.82,2.31-2.82c.09-.09.3-.18.5-.18h6.57c.43,0,.78.35.78.78v13.95c0,.43-.35.78-.78.78h-15.95Z"/>
      <path class="cls-4" d="M25.91,20.5h0s6.57,0,6.57,0l.03.03-.03,13.97-15.97-.03.03-10.97h6.21s.71,0,.71,0l.45-.55,2-2.45M32.47,19h-6.57c-.4,0-.8.16-1.08.45l-2.08,2.55h-6.21c-.85,0-1.53.69-1.53,1.53v10.95c0,.84.68,1.53,1.53,1.53h15.95c.84,0,1.53-.69,1.53-1.53v-13.95c0-.84-.68-1.53-1.53-1.53h0Z"/>
    </g>
  </g>
</svg>