<?xml version="1.0" encoding="UTF-8"?>
<svg id="Software_1" data-name="Software 1" xmlns="http://www.w3.org/2000/svg" viewBox="0 0 50 50">
  <defs>
    <style>
      .cls-1 {
        fill: none;
        stroke: #fff;
        stroke-miterlimit: 10;
        stroke-width: 1.5px;
      }

      .cls-2 {
        opacity: 0;
      }

      .cls-2, .cls-3, .cls-4 {
        stroke-width: 0px;
      }

      .cls-2, .cls-4 {
        fill: #fff;
      }

      .cls-3 {
        fill: #00d15f;
      }
    </style>
  </defs>
  <g id="Firewall">
    <rect id="BG" class="cls-2" width="50" height="50"/>
    <path class="cls-3" d="M33.19,8H10c-1.1,0-2,.9-2,2v30c0,1.1.9,2,2,2h30c1.1,0,2-.9,2-2v-23.19c0-.53-.21-1.04-.59-1.41l-6.81-6.81c-.38-.38-.88-.59-1.41-.59Z"/>
    <g>
      <path class="cls-4" d="M24.26,21.01c.11,1.53-.1,2.66-.1,2.67-.13.68.23,1.37.86,1.65.2.09.41.13.61.13.46,0,.9-.21,1.19-.59.04-.05.49-.65.94-1.59.55,1.69.56,2.89.56,2.92.02,1.1-.24,3.71-2.96,4.07-.15.02-.31.03-.47.03-1.73,0-3.2-1.29-3.43-3.01,0-.06-.02-.12-.03-.17,0-.02-.53-2.37,1.58-4.38.55-.52.96-1.11,1.24-1.74M22.85,16.88c-.1,0-.16.1-.12.19.3.63,1.15,2.81-.74,4.6-2.81,2.67-2,5.84-2,5.84.33,2.5,2.47,4.31,4.92,4.31.22,0,.44-.01.66-.04,2.72-.36,4.31-2.54,4.26-5.58,0,0,.02-3.28-2.32-6.9-.03-.05-.08-.07-.13-.07-.08,0-.16.06-.16.15.04,2.48-1.58,4.6-1.58,4.6,0,0,.33-1.71.04-3.9-.37-2.73-2.17-3.13-2.82-3.18,0,0,0,0-.01,0h0Z"/>
      <path class="cls-1" d="M24.42,13.41l-7.67,1.72c-.91.2-1.56,1.02-1.56,1.95v9.94c0,.19.02.38.08.57,1.74,6.17,6.78,9.01,8.77,9.92.52.24,1.12.24,1.64,0,1.99-.91,7.03-3.75,8.77-9.92.05-.18.08-.38.08-.57v-9.94c0-.94-.65-1.75-1.56-1.95l-7.67-1.72c-.29-.06-.59-.06-.87,0Z"/>
    </g>
  </g>
</svg>