<?xml version="1.0" encoding="UTF-8"?>
<svg id="Veeam_product_4" data-name="Veeam product 4" xmlns="http://www.w3.org/2000/svg" viewBox="0 0 50 50">
  <defs>
    <style>
      .cls-1 {
        fill: #505861;
      }

      .cls-1, .cls-2, .cls-3 {
        stroke-width: 0px;
      }

      .cls-2 {
        opacity: 0;
      }

      .cls-2, .cls-3 {
        fill: #fff;
      }
    </style>
  </defs>
  <g id="FLR_Helper_Appliance" data-name="FLR Helper Appliance">
    <rect id="BG" class="cls-2" width="50" height="50"/>
    <path class="cls-1" d="M32.13,10H12c-1.1,0-2,.9-2,2v26c0,1.1.9,2,2,2h26c1.1,0,2-.9,2-2v-20.13c0-.53-.21-1.04-.59-1.41l-5.87-5.87c-.38-.38-.88-.59-1.41-.59Z"/>
    <g>
      <g>
        <g>
          <rect class="cls-3" x="17.28" y="17.75" width="1.5" height="5" transform="translate(38.28 2.22) rotate(90)"/>
          <rect class="cls-3" x="19.03" y="16" width="1.5" height="5" transform="translate(39.56 37) rotate(180)"/>
        </g>
        <rect class="cls-3" x="16.94" y="15.1" width="1.5" height="6.12" transform="translate(43.05 18.5) rotate(135)"/>
      </g>
      <g>
        <g>
          <rect class="cls-3" x="30.72" y="27.72" width="1.5" height="5" transform="translate(1.25 61.69) rotate(-90)"/>
          <rect class="cls-3" x="28.97" y="29.47" width="1.5" height="5"/>
        </g>
        <rect class="cls-3" x="31.06" y="29.24" width="1.5" height="6.12" transform="translate(-13.53 31.95) rotate(-45)"/>
      </g>
      <g>
        <g>
          <rect class="cls-3" x="19.03" y="29.47" width="1.5" height="5"/>
          <rect class="cls-3" x="17.28" y="27.72" width="1.5" height="5" transform="translate(48.25 12.19) rotate(90)"/>
        </g>
        <rect class="cls-3" x="16.94" y="29.24" width="1.5" height="6.12" transform="translate(28.03 -3.05) rotate(45)"/>
      </g>
      <g>
        <g>
          <rect class="cls-3" x="28.97" y="16" width="1.5" height="5" transform="translate(59.44 37) rotate(-180)"/>
          <rect class="cls-3" x="30.72" y="17.75" width="1.5" height="5" transform="translate(11.22 51.72) rotate(-90)"/>
        </g>
        <rect class="cls-3" x="31.06" y="15.1" width="1.5" height="6.12" transform="translate(41.45 53.5) rotate(-135)"/>
      </g>
    </g>
  </g>
</svg>