<?xml version="1.0" encoding="UTF-8"?>
<svg id="Storage_2" data-name="Storage 2" xmlns="http://www.w3.org/2000/svg" viewBox="0 0 50 50">
  <defs>
    <style>
      .cls-1 {
        fill: #00cf5f;
      }

      .cls-1, .cls-2 {
        stroke-width: 0px;
      }

      .cls-2 {
        opacity: 0;
      }

      .cls-2, .cls-3 {
        fill: #fff;
      }

      .cls-3 {
        stroke: #00cf5f;
        stroke-miterlimit: 10;
        stroke-width: .5px;
      }
    </style>
  </defs>
  <g id="Google_GCP_" data-name="Google (GCP)">
    <rect id="BG" class="cls-2" width="50" height="50"/>
    <rect class="cls-1" x="8" y="8" width="34" height="34" rx="2" ry="2"/>
    <g>
      <path class="cls-3" d="M24.97,31.3c-1.05,0-2.09-.01-3.13,0-.32,0-.49-.1-.65-.38-1.02-1.82-2.06-3.63-3.11-5.44-.15-.27-.17-.47-.01-.74,1.06-1.82,2.09-3.66,3.15-5.48.1-.17.39-.34.59-.34,2.13-.02,4.25-.02,6.38,0,.2,0,.48.17.59.34,1.09,1.83,2.15,3.66,3.2,5.52.1.17.09.5-.01.67-1.04,1.83-2.11,3.65-3.15,5.48-.16.28-.34.38-.65.37-1.06-.02-2.13,0-3.19,0M27.85,25.11c0-1.57-1.27-2.83-2.84-2.82-1.56.01-2.79,1.24-2.81,2.8-.02,1.57,1.23,2.84,2.81,2.85,1.57.01,2.84-1.25,2.84-2.82"/>
      <path class="cls-3" d="M24.97,31.3c-1.05,0-2.09-.01-3.13,0-.32,0-.49-.1-.65-.38-1.02-1.82-2.06-3.63-3.11-5.44-.15-.27-.17-.47-.01-.74,1.06-1.82,2.09-3.66,3.15-5.48.1-.17.39-.34.59-.34,2.13-.02,4.25-.02,6.38,0,.2,0,.48.17.59.34,1.09,1.83,2.15,3.66,3.2,5.52.1.17.09.5-.01.67-1.04,1.83-2.11,3.65-3.15,5.48-.16.28-.34.38-.65.37-1.06-.02-2.13,0-3.19,0ZM27.85,25.11c0-1.57-1.27-2.83-2.84-2.82-1.56.01-2.79,1.24-2.81,2.8-.02,1.57,1.23,2.84,2.81,2.85,1.57.01,2.84-1.25,2.84-2.82Z"/>
      <path class="cls-3" d="M17.24,23.98c-.82-1.45-1.61-2.82-2.37-4.19-.06-.1,0-.32.07-.44.88-1.59,1.76-3.18,2.65-4.75.48-.85,1.22-1.32,2.2-1.32,3.49-.01,6.97,0,10.46,0,.85,0,1.57.34,2.01,1.05.67,1.09,1.27,2.22,1.96,3.45h-.73c-4.04,0-8.08,0-12.11-.01-.45,0-.68.15-.9.53-1.05,1.87-2.13,3.72-3.25,5.69"/>
      <path class="cls-3" d="M17.24,23.98c-.82-1.45-1.61-2.82-2.37-4.19-.06-.1,0-.32.07-.44.88-1.59,1.76-3.18,2.65-4.75.48-.85,1.22-1.32,2.2-1.32,3.49-.01,6.97,0,10.46,0,.85,0,1.57.34,2.01,1.05.67,1.09,1.27,2.22,1.96,3.45h-.73c-4.04,0-8.08,0-12.11-.01-.45,0-.68.15-.9.53-1.05,1.87-2.13,3.72-3.25,5.69Z"/>
      <path class="cls-3" d="M14.07,20.85c.15.24.26.41.36.58,2.05,3.53,4.1,7.07,6.13,10.61.19.32.39.41.74.41,1.98-.02,3.96,0,5.94,0h.66c-.11.21-.17.36-.25.49-.71,1.22-1.41,2.44-2.15,3.64-.11.18-.38.35-.59.35-1.7.03-3.41.02-5.11.02-1.03,0-1.78-.46-2.28-1.36-1.7-3.03-3.42-6.06-5.13-9.09-.51-.91-.51-1.81,0-2.72.54-.95,1.09-1.9,1.68-2.93"/>
      <path class="cls-3" d="M14.07,20.85c.15.24.26.41.36.58,2.05,3.53,4.1,7.07,6.13,10.61.19.32.39.41.74.41,1.98-.02,3.96,0,5.94,0h.66c-.11.21-.17.36-.25.49-.71,1.22-1.41,2.44-2.15,3.64-.11.18-.38.35-.59.35-1.7.03-3.41.02-5.11.02-1.03,0-1.78-.46-2.28-1.36-1.7-3.03-3.42-6.06-5.13-9.09-.51-.91-.51-1.81,0-2.72.54-.95,1.09-1.9,1.68-2.93Z"/>
      <path class="cls-3" d="M29.95,18.92c1.14,0,2.2,0,3.24-.03,1.37-.03,1.97.31,2.55,1.49.6,1.24,1.23,2.29,1.87,3.42.51.9.5,1.78,0,2.67-1.71,3.04-3.42,6.07-5.13,9.1-.51.91-1.29,1.38-2.34,1.38-1.12,0-2.23,0-3.45,0,.11-.22.18-.38.26-.53,2.08-3.63,4.15-7.25,6.25-10.87.21-.36.19-.6-.01-.94-.99-1.69-1.96-3.4-2.93-5.1-.1-.17-.19-.34-.33-.6"/>
      <path class="cls-3" d="M29.95,18.92c1.14,0,2.2,0,3.24-.03,1.37-.03,1.97.31,2.55,1.49.6,1.24,1.23,2.29,1.87,3.42.51.9.5,1.78,0,2.67-1.71,3.04-3.42,6.07-5.13,9.1-.51.91-1.29,1.38-2.34,1.38-1.12,0-2.23,0-3.45,0,.11-.22.18-.38.26-.53,2.08-3.63,4.15-7.25,6.25-10.87.21-.36.19-.6-.01-.94-.99-1.69-1.96-3.4-2.93-5.1-.1-.17-.19-.34-.33-.6Z"/>
    </g>
  </g>
</svg>