<?xml version="1.0" encoding="UTF-8"?>
<svg id="Virtual_hosts" data-name="Virtual hosts" xmlns="http://www.w3.org/2000/svg" viewBox="0 0 90 74">
  <defs>
    <style>
      .cls-1 {
        fill: #8c8e8e;
        opacity: .3;
      }

      .cls-1, .cls-2, .cls-3, .cls-4, .cls-5, .cls-6 {
        stroke-width: 0px;
      }

      .cls-7 {
        fill: none;
        stroke: #fff;
        stroke-miterlimit: 10;
        stroke-width: 1.5px;
      }

      .cls-2 {
        fill: #505861;
      }

      .cls-3 {
        opacity: 0;
      }

      .cls-3, .cls-5 {
        fill: #fff;
      }

      .cls-4 {
        fill: #00d15f;
      }

      .cls-6 {
        fill: #505861;
      }
    </style>
  </defs>
  <g id="Virtual_host" data-name="Virtual host">
    <rect id="BG" class="cls-3" width="90" height="74"/>
    <g>
      <rect class="cls-2" x="4.5" y="2" width="17" height="17" rx="1.65" ry="1.65"/>
      <g>
        <path class="cls-5" d="M7.79,8.05h1.11l1.2,3.6h.02l1.18-3.6h1.01l-1.71,4.91h-1.09l-1.71-4.91Z"/>
        <path class="cls-5" d="M13.09,8.05h1.48l1.08,3.4h.03l1.07-3.4h1.47v4.91h-1.07v-3.61h-.02l-1.14,3.61h-.82l-1.13-3.61h-.03v3.61h-.91v-4.91Z"/>
      </g>
      <rect class="cls-2" x="26" y="2" width="17" height="17" rx="1.65" ry="1.65"/>
      <g>
        <path class="cls-5" d="M29.29,8.05h1.11l1.2,3.6h.02l1.18-3.6h1.01l-1.71,4.91h-1.09l-1.71-4.91Z"/>
        <path class="cls-5" d="M34.59,8.05h1.48l1.08,3.4h.03l1.07-3.4h1.47v4.91h-1.07v-3.61h-.02l-1.14,3.61h-.82l-1.13-3.61h-.03v3.61h-.91v-4.91Z"/>
      </g>
      <rect class="cls-2" x="47.5" y="2" width="17" height="17" rx="1.65" ry="1.65"/>
      <g>
        <path class="cls-5" d="M50.79,8.05h1.11l1.2,3.6h.02l1.18-3.6h1.01l-1.71,4.91h-1.09l-1.71-4.91Z"/>
        <path class="cls-5" d="M56.09,8.05h1.48l1.08,3.4h.03l1.07-3.4h1.47v4.91h-1.07v-3.61h-.02l-1.14,3.61h-.82l-1.13-3.61h-.03v3.61h-.91v-4.91Z"/>
      </g>
      <rect class="cls-2" x="69" y="2" width="17" height="17" rx="1.65" ry="1.65"/>
      <g>
        <path class="cls-5" d="M72.29,8.05h1.11l1.2,3.6h.02l1.18-3.6h1.01l-1.71,4.91h-1.09l-1.71-4.91Z"/>
        <path class="cls-5" d="M77.59,8.05h1.48l1.08,3.4h.03l1.07-3.4h1.47v4.91h-1.07v-3.61h-.02l-1.14,3.61h-.82l-1.13-3.61h-.03v3.61h-.91v-4.91Z"/>
      </g>
    </g>
    <g>
      <rect class="cls-4" x="4.5" y="23.5" width="81.5" height="22" rx="2" ry="2"/>
      <polygon class="cls-1" points="83.5 45.5 45 60 6.5 45.52 83.5 45.5"/>
      <g>
        <path class="cls-5" d="M16.38,30.97h1.37s-.01,2.51-.01,2.51h2.37s.01-2.5.01-2.5h1.37s-.03,6.24-.03,6.24h-1.37s.01-2.69.01-2.69h-2.37s-.01,2.67-.01,2.67h-1.37s.03-6.24.03-6.24Z"/>
        <path class="cls-5" d="M23.91,38.88v-.85c.15.03.33.06.49.06.43,0,.69-.17.85-.56l.15-.38-1.75-4.63h1.33s1.06,3.12,1.06,3.12h.03l1.03-3.1h1.2s-1.88,5.21-1.88,5.21c-.33.92-.8,1.29-1.72,1.29-.28,0-.63-.07-.79-.15Z"/>
        <path class="cls-5" d="M30.39,32.55h1.22s0,.4,0,.4h.04c.3-.29.75-.48,1.36-.48.95,0,1.83.57,1.82,2.3v.12c0,1.81-.88,2.48-2.17,2.48-.49,0-.83-.12-1.03-.23v1.89s-1.28,0-1.28,0l.03-6.47ZM33.53,35.04v-.17c0-1.1-.35-1.39-1.01-1.39-.4,0-.71.11-.87.23v2.52c.14.13.45.24.81.24.67,0,1.06-.33,1.07-1.42Z"/>
        <path class="cls-5" d="M36.88,35v-.13c0-1.54.95-2.37,2.24-2.36,1.47,0,2.06.84,2.05,2.36v.43s-3.01-.02-3.01-.02c.08.89.55,1.17,1.4,1.18.58,0,1.04-.13,1.43-.31v.82c-.33.21-.9.44-1.73.43-1.6,0-2.39-.88-2.39-2.4ZM38.17,34.5h1.77c0-.8-.28-1.1-.84-1.1-.42,0-.85.23-.93,1.1Z"/>
        <path class="cls-5" d="M43.46,32.62h1.22s0,.56,0,.56h.04c.25-.35.71-.6,1.21-.6.13,0,.23,0,.29.04v1.11c-.11-.02-.28-.04-.39-.04-.42,0-.82.1-1.11.26l-.02,3.38h-1.27s.02-4.73.02-4.73Z"/>
        <path class="cls-5" d="M48.1,32.64h1.32s1.04,3.26,1.04,3.26h.04s1.09-3.24,1.09-3.24h1.2s-1.71,4.72-1.71,4.72h-1.31s-1.66-4.73-1.66-4.73Z"/>
        <path class="cls-5" d="M54.91,32.68h1.27s-.02,4.72-.02,4.72h-1.27s.02-4.72.02-4.72ZM54.91,30.94h1.29s0,1.06,0,1.06h-1.29s0-1.06,0-1.06Z"/>
        <path class="cls-5" d="M58.46,37.18v-.89c.39.15.76.29,1.41.29.62,0,.87-.17.87-.49,0-.3-.16-.41-.63-.52l-.44-.08c-.75-.15-1.22-.54-1.21-1.42,0-.9.59-1.46,1.83-1.46.66,0,1.09.11,1.41.26v.89c-.28-.1-.73-.23-1.28-.23-.52,0-.77.15-.78.46,0,.3.17.4.59.48l.44.09c.94.18,1.29.61,1.29,1.44,0,.99-.66,1.51-1.92,1.5-.62,0-1.2-.13-1.59-.33Z"/>
        <path class="cls-5" d="M63.99,35.18v-.13c0-1.56.98-2.4,2.32-2.4,1.48,0,2.31.87,2.3,2.38v.13c0,1.57-.98,2.4-2.33,2.4-1.48,0-2.3-.88-2.29-2.37ZM67.31,35.23v-.21c0-1.18-.43-1.46-1.02-1.46-.63,0-1,.41-1,1.41v.21c0,1.16.44,1.46,1.02,1.46.63,0,1-.41,1-1.41Z"/>
        <path class="cls-5" d="M70.89,32.76h1.22s0,.56,0,.56h.04c.25-.35.71-.6,1.21-.6.13,0,.23,0,.29.04v1.11c-.11-.02-.28-.04-.39-.04-.42,0-.82.1-1.11.26l-.02,3.38h-1.27s.03-4.73.03-4.73Z"/>
      </g>
    </g>
    <g id="Host_Server_solid" data-name="Host/Server solid">
      <path class="cls-6" d="M27.75,71.5h34.5c1.1,0,2-.9,2-2v-7.5c0-1.1-.9-2-2-2h-31.17c-.53,0-1.04.21-1.41.59l-3.33,3.33c-.38.38-.59.88-.59,1.41v4.17c0,1.1.9,2,2,2Z"/>
      <line class="cls-7" x1="54.75" y1="65.75" x2="29.73" y2="65.75"/>
      <circle class="cls-5" cx="58.25" cy="65.5" r="1.5"/>
    </g>
  </g>
</svg>