<?xml version="1.0" encoding="UTF-8"?>
<svg id="Veeam_features" data-name="Veeam features" xmlns="http://www.w3.org/2000/svg" viewBox="0 0 50 50">
  <defs>
    <style>
      .cls-1, .cls-2 {
        fill: none;
        stroke: #fff;
        stroke-miterlimit: 10;
      }

      .cls-2 {
        stroke-width: 1.5px;
      }

      .cls-3 {
        opacity: 0;
      }

      .cls-3, .cls-4, .cls-5 {
        stroke-width: 0px;
      }

      .cls-3, .cls-5 {
        fill: #fff;
      }

      .cls-4 {
        fill: #00d15f;
      }
    </style>
  </defs>
  <g id="_Instant_Recovery_to_vSphere" data-name=" Instant Recovery to vSphere">
    <rect id="BG" class="cls-3" width="50" height="50"/>
    <rect class="cls-4" x="8" y="8" width="34" height="34" rx="2" ry="2"/>
    <rect class="cls-5" x="16.5" y="24.5" width="9" height="9" rx="1" ry="1"/>
    <path class="cls-2" d="M36.5,12h-14c-1.1,0-2,.9-2,2v6h-6.5c-1.1,0-2,.9-2,2v14c0,1.1.9,2,2,2h14c1.1,0,2-.9,2-2v-6h6.5c1.1,0,2-.9,2-2v-14c0-1.1-.9-2-2-2Z"/>
    <g>
      <polygon class="cls-5" points="25.45 21.31 27.56 19.29 24.75 18.46 25.45 21.31"/>
      <path class="cls-1" d="M25.73,19.51c.63-1.8,2.34-3.01,4.25-3.01,2.48,0,4.5,2.02,4.5,4.5s-2.02,4.5-4.5,4.5"/>
    </g>
  </g>
</svg>