<?xml version="1.0" encoding="UTF-8"?>
<svg id="Miscellaneous" xmlns="http://www.w3.org/2000/svg" viewBox="0 0 50 50">
  <defs>
    <style>
      .cls-1 {
        fill: #505861;
      }

      .cls-1, .cls-2, .cls-3 {
        stroke-width: 0px;
      }

      .cls-2 {
        opacity: 0;
      }

      .cls-2, .cls-4, .cls-3 {
        fill: #fff;
      }

      .cls-4 {
        stroke: #505861;
        stroke-miterlimit: 10;
        stroke-width: 1.5px;
      }
    </style>
  </defs>
  <g id="Intruder">
    <rect id="BG" class="cls-2" width="50" height="50"/>
    <rect class="cls-1" x="10" y="10" width="30" height="30" rx="2" ry="2"/>
    <g>
      <path class="cls-3" d="M25.5,28h-8c0,2.49,2.01,4.5,4.5,4.5,1.01,0,1.91-.43,2.54-1.11.25-.27.66-.27.92,0,.64.68,1.54,1.11,2.54,1.11,2.49,0,4.5-2.01,4.5-4.5h-7Z"/>
      <path class="cls-1" d="M19.5,28.5h5c0,1.38-1.12,2.5-2.5,2.5h0c-1.38,0-2.5-1.12-2.5-2.5h0Z"/>
      <path class="cls-1" d="M26,28.5h5c0,1.38-1.12,2.5-2.5,2.5h0c-1.38,0-2.5-1.12-2.5-2.5h0Z"/>
      <path class="cls-4" d="M31.64,23.54l-1.45-5.21c-.07-.26-.22-.49-.45-.63-.28-.18-.73-.32-1.35-.09,0,0-1.89.9-3.39.93-1.49-.03-3.39-.93-3.39-.93-.62-.23-1.07-.09-1.35.09-.22.14-.38.37-.45.63l-1.45,5.21c-.12.42-.47.74-.9.8-.94.14-1.63.32-2.13.49-.88.3-1.02,1.5-.23,1.99,1.28.81,4.03,1.71,9.9,1.68,5.87.04,8.62-.87,9.9-1.68.79-.5.65-1.7-.23-1.99-.5-.17-1.19-.34-2.13-.49-.43-.07-.78-.38-.9-.8Z"/>
    </g>
  </g>
</svg>