<?xml version="1.0" encoding="UTF-8"?>
<svg id="Veeam_product_3" data-name="Veeam product 3" xmlns="http://www.w3.org/2000/svg" viewBox="0 0 50 50">
  <defs>
    <style>
      .cls-1 {
        opacity: 0;
      }

      .cls-1, .cls-2, .cls-3 {
        stroke-width: 0px;
      }

      .cls-1, .cls-3 {
        fill: #fff;
      }

      .cls-2 {
        fill: #00d15f;
      }
    </style>
  </defs>
  <g id="Kasten_K10" data-name="Kasten K10">
    <rect id="BG" class="cls-1" width="50" height="50"/>
    <path class="cls-2" d="M33.19,8H10c-1.1,0-2,.9-2,2v30c0,1.1.9,2,2,2h30c1.1,0,2-.9,2-2v-23.19c0-.53-.21-1.04-.59-1.41l-6.81-6.81c-.38-.38-.88-.59-1.41-.59Z"/>
    <g>
      <path class="cls-3" d="M17.11,14.5c-1.16,0-2.11.94-2.11,2.11v17.28c0,1.16.95,2.11,2.11,2.11s2.11-.94,2.11-2.11v-17.28c.02-1.16-.93-2.11-2.11-2.11Z"/>
      <path class="cls-3" d="M32.49,14.5c-.49,0-.95.18-1.32.51l-3.9,3.54s-.04.04-.06.06l-6.53,5.9c-.24.2-.49.43-.49.77,0,.43.3.69.57.91.06.06.14.12.2.16l4.61,3.98,5.6,5.2c.41.35.93.53,1.46.47s1.03-.31,1.36-.75c.71-.89.59-2.2-.26-2.93l-7.77-7.06,3.79-3.42c.06-.04.1-.08.14-.12l3.92-3.56c.83-.75.93-2.07.2-2.93-.35-.41-.85-.67-1.38-.71h-.14Z"/>
    </g>
  </g>
</svg>