<?xml version="1.0" encoding="UTF-8"?>
<svg id="States" xmlns="http://www.w3.org/2000/svg" viewBox="0 0 50 50">
  <defs>
    <style>
      .cls-1 {
        opacity: 0;
      }

      .cls-1, .cls-2, .cls-3 {
        stroke-width: 0px;
      }

      .cls-1, .cls-3 {
        fill: #fff;
      }

      .cls-2 {
        fill: #00d15f;
      }
    </style>
  </defs>
  <g id="Key">
    <rect id="BG" class="cls-1" width="50" height="50"/>
    <path class="cls-2" d="M36.5,25c0,6.35-5.15,11.5-11.5,11.5s-11.5-5.15-11.5-11.5,5.15-11.5,11.5-11.5,11.5,5.15,11.5,11.5Z"/>
    <g>
      <path class="cls-2" d="M25.79,32c-.08,0-.15-.02-.22-.05l-1.62-.81c-.17-.08-.28-.26-.28-.45v-5.44c-1.45-.54-2.44-1.93-2.44-3.5,0-2.07,1.68-3.75,3.75-3.75s3.75,1.68,3.75,3.75c0,1.57-.98,2.96-2.44,3.5v6.25c0,.17-.09.33-.24.43-.08.05-.17.07-.26.07Z"/>
      <path class="cls-3" d="M24.97,18.5c1.79,0,3.25,1.46,3.25,3.25,0,1.51-1.04,2.77-2.44,3.14v6.61l-1.62-.81v-5.8c-1.4-.36-2.44-1.62-2.44-3.14,0-1.79,1.46-3.25,3.25-3.25M24.97,17.5c-2.34,0-4.25,1.91-4.25,4.25,0,1.66.97,3.14,2.44,3.83v5.1c0,.38.21.73.55.89l1.62.81c.14.07.29.11.45.11.18,0,.37-.05.53-.15.29-.18.47-.5.47-.85v-5.92c1.47-.69,2.44-2.17,2.44-3.83,0-2.34-1.91-4.25-4.25-4.25h0Z"/>
    </g>
    <circle class="cls-3" cx="24.97" cy="20.69" r=".72"/>
    <rect class="cls-3" x="25.01" y="26.11" width="1.5" height="1"/>
    <rect class="cls-3" x="25.01" y="28.5" width="1.5" height="1"/>
  </g>
</svg>