<?xml version="1.0" encoding="UTF-8"?>
<svg id="Software_3" data-name="Software 3" xmlns="http://www.w3.org/2000/svg" viewBox="0 0 50 50">
  <defs>
    <style>
      .cls-1 {
        fill: #00cf5f;
      }

      .cls-1, .cls-2, .cls-3 {
        stroke-width: 0px;
      }

      .cls-2 {
        opacity: 0;
      }

      .cls-2, .cls-3 {
        fill: #fff;
      }
    </style>
  </defs>
  <g id="Kubernetes">
    <rect id="BG" class="cls-2" width="50" height="50"/>
    <path class="cls-1" d="M33.19,8H10c-1.1,0-2,.9-2,2v30c0,1.1.9,2,2,2h30c1.1,0,2-.9,2-2v-23.19c0-.53-.21-1.04-.59-1.41l-6.81-6.81c-.38-.38-.88-.59-1.41-.59Z"/>
    <path class="cls-3" d="M25.01,12.17c-.43.03-.76.4-.73.83v.21c.02.24.05.47.1.71.07.45.09.9.07,1.35-.04.15-.13.28-.24.39l-.02.32c-.45.04-.9.11-1.35.21-1.87.42-3.56,1.39-4.87,2.78l-.27-.19c-.15.04-.31.03-.44-.04-.36-.27-.7-.57-1-.91-.15-.18-.32-.36-.49-.52l-.17-.13c-.15-.12-.33-.19-.52-.2-.23-.01-.45.09-.59.26-.25.35-.17.85.18,1.1l.15.12c.2.13.41.25.62.36.4.22.77.48,1.12.77.09.13.14.28.15.43l.24.21c-1.32,1.98-1.86,4.37-1.52,6.72l-.31.09c-.08.13-.19.24-.32.32-.44.12-.88.19-1.34.22-.24,0-.48.02-.72.06l-.2.05h-.02c-.41.05-.7.43-.64.84.02.16.09.31.21.43.2.2.5.27.77.18h.01l.2-.02c.23-.07.45-.15.67-.24.42-.17.86-.3,1.3-.38.15,0,.3.06.43.15l.32-.06c.73,2.26,2.26,4.17,4.3,5.38l-.14.29c.06.13.09.28.07.42-.19.43-.41.84-.67,1.22-.14.19-.28.39-.4.6l-.1.2c-.21.36-.09.81.27,1.02.14.08.3.12.46.1.28-.03.52-.22.62-.48l.09-.19c.08-.22.16-.45.22-.68.2-.49.31-1.01.58-1.34.09-.08.2-.14.32-.16l.17-.31c2.21.85,4.66.86,6.88.02l.15.29c.15.02.29.11.38.23.21.4.38.82.51,1.25.06.23.13.46.22.68l.09.19c.14.39.57.58.96.44.15-.06.28-.16.37-.29.15-.24.16-.54.02-.78l-.1-.2c-.12-.21-.26-.4-.4-.59-.26-.37-.48-.77-.66-1.18-.04-.15,0-.31.08-.45-.05-.1-.09-.2-.12-.3,2.04-1.21,3.56-3.13,4.28-5.4l.32.06c.11-.1.26-.16.42-.15.44.08.88.21,1.3.38.22.1.44.19.67.26.05.01.13.02.2.04h.01c.39.13.81-.08.94-.48.05-.15.05-.32,0-.48-.09-.27-.33-.46-.61-.5l-.22-.05c-.24-.03-.48-.05-.72-.06-.45-.03-.9-.1-1.34-.22-.14-.08-.25-.19-.32-.32l-.3-.09c.32-2.35-.23-4.74-1.55-6.71l.26-.24c-.01-.15.04-.31.14-.42.34-.3.72-.56,1.11-.78.21-.11.42-.23.62-.36l.16-.13c.35-.22.46-.68.24-1.03-.09-.15-.23-.26-.39-.31-.27-.1-.58-.03-.78.18l-.17.13c-.17.16-.34.34-.49.52-.3.34-.62.65-.98.92-.14.06-.3.07-.45.05l-.28.2c-1.63-1.71-3.84-2.78-6.19-2.99,0-.1-.01-.28-.02-.33-.13-.09-.21-.22-.24-.37-.02-.45.01-.9.09-1.35.05-.23.08-.47.1-.71v-.21c.02-.43-.3-.8-.73-.83h-.01ZM24.07,17.96l-.22,3.91h-.02c-.02.36-.32.64-.68.63-.13,0-.25-.05-.36-.13l-3.21-2.27c1.02-1,2.3-1.7,3.7-2.01.26-.06.53-.1.79-.13h0ZM25.94,17.96c1.68.21,3.25.97,4.46,2.15l-3.18,2.26c-.28.23-.7.18-.92-.1-.09-.11-.14-.25-.14-.4l-.22-3.91ZM18.42,21.57l2.93,2.61v.02c.27.24.3.65.06.93-.09.1-.2.17-.32.2h0s-3.76,1.09-3.76,1.09c-.19-1.7.2-3.4,1.09-4.86h0ZM31.57,21.57c.89,1.45,1.28,3.15,1.12,4.84l-3.77-1.08h0c-.35-.11-.56-.47-.46-.82.03-.12.1-.24.2-.32l2.91-2.6h0ZM24.41,24.39h1.2l.73.93-.27,1.16-1.08.52-1.08-.52-.25-1.17.75-.93ZM28.25,27.57c.05,0,.1,0,.15,0l3.88.65c-.57,1.61-1.66,2.99-3.11,3.91l-1.5-3.64c-.14-.34.01-.72.35-.87.07-.03.14-.05.22-.05h0ZM21.73,27.59c.36,0,.65.3.65.67,0,.09-.02.17-.05.25h0s-1.49,3.61-1.49,3.61c-1.42-.92-2.51-2.27-3.08-3.87l3.85-.65s.09,0,.13,0h0ZM24.98,29.16c.25,0,.48.13.6.34h.01l1.9,3.42c-.25.08-.5.15-.76.21-1.39.32-2.85.24-4.21-.22l1.89-3.42c.12-.2.33-.33.56-.33h0Z"/>
  </g>
</svg>