<?xml version="1.0" encoding="UTF-8"?>
<svg id="Data_Center" data-name="Data Center" xmlns="http://www.w3.org/2000/svg" viewBox="0 0 50 50">
  <defs>
    <style>
      .cls-1 {
        opacity: 0;
      }

      .cls-1, .cls-2 {
        fill: #fff;
      }

      .cls-1, .cls-2, .cls-3 {
        stroke-width: 0px;
      }

      .cls-3 {
        fill: #505861;
      }
    </style>
  </defs>
  <g id="Laptop">
    <rect id="BG" class="cls-1" y="0" width="50" height="50"/>
    <g>
      <path id="bg" class="cls-3" d="M45,36h-15c0,.28-.22.5-.5.5h-9c-.28,0-.5-.22-.5-.5H5c-.55,0-1,.45-1,1v1h42v-1c0-.55-.45-1-1-1Z"/>
      <g>
        <rect class="cls-2" x="7.75" y="11.75" width="34.5" height="22.5" rx="1.25" ry="1.25"/>
        <path class="cls-3" d="M41,12.5c.28,0,.5.22.5.5v20c0,.28-.22.5-.5.5H9c-.28,0-.5-.22-.5-.5V13c0-.28.22-.5.5-.5h32M41,11H9c-1.1,0-2,.9-2,2v20c0,1.1.9,2,2,2h32c1.1,0,2-.9,2-2V13c0-1.1-.9-2-2-2h0Z"/>
      </g>
    </g>
  </g>
</svg>