<?xml version="1.0" encoding="UTF-8"?>
<svg id="Miscellaneous" xmlns="http://www.w3.org/2000/svg" viewBox="0 0 50 50">
  <defs>
    <style>
      .cls-1 {
        opacity: 0;
      }

      .cls-1, .cls-2 {
        fill: #fff;
      }

      .cls-1, .cls-2, .cls-3 {
        stroke-width: 0px;
      }

      .cls-3 {
        fill: #505861;
      }
    </style>
  </defs>
  <g id="Letter">
    <rect id="BG" class="cls-1" x="0" width="50" height="50"/>
    <g>
      <rect class="cls-3" x="10" y="14.25" width="30" height="21.5"/>
      <path class="cls-2" d="M39.25,15v20H10.75V15h28.5M40.75,13.5H9.25v23h31.5V13.5h0Z"/>
    </g>
    <g>
      <path class="cls-3" d="M11.75,35.75c-.96,0-1.75-.79-1.75-1.75v-16.99c0-.97.79-1.75,1.75-1.75.38,0,.74.12,1.05.35l12.36,9.33c.05.04.11.05.15.05.04,0,.1,0,.16-.05l11.69-9.24c.31-.25.69-.38,1.08-.38.97,0,1.75.79,1.75,1.75v16.94c0,.96-.79,1.75-1.75,1.75H11.75Z"/>
      <path class="cls-2" d="M11.75,16.01c.2,0,.41.06.6.2l12.36,9.33c.18.13.39.2.6.2s.44-.07.62-.22l11.69-9.24c.19-.15.4-.22.62-.22.52,0,1,.41,1,1v16.94c0,.55-.45,1-1,1H11.75c-.55,0-1-.45-1-1v-16.99c0-.59.49-1,1-1M11.75,14.51h0c-.64,0-1.26.24-1.73.69-.5.47-.78,1.12-.78,1.81v16.99c0,1.38,1.12,2.5,2.5,2.5h26.5c1.38,0,2.5-1.12,2.5-2.5v-16.94c0-1.38-1.12-2.5-2.5-2.5-.56,0-1.1.19-1.55.54l-11.39,9-12.05-9.09c-.44-.33-.96-.51-1.5-.51h0Z"/>
    </g>
  </g>
</svg>