<?xml version="1.0" encoding="UTF-8"?>
<svg id="Miscellaneous" xmlns="http://www.w3.org/2000/svg" viewBox="0 0 50 50">
  <defs>
    <style>
      .cls-1 {
        fill: #505861;
      }

      .cls-1, .cls-2, .cls-3 {
        stroke-width: 0px;
      }

      .cls-2 {
        opacity: 0;
      }

      .cls-2, .cls-3 {
        fill: #fff;
      }
    </style>
  </defs>
  <g id="License_key" data-name="License/key">
    <rect id="BG" class="cls-2" width="50" height="50"/>
    <rect class="cls-1" x="10" y="10" width="30" height="30" rx="2" ry="2"/>
    <g>
      <path class="cls-3" d="M25,15c2.76,0,5,2.24,5,5,0,2.33-1.6,4.27-3.75,4.82v10.18l-2.5-1.25v-8.93c-2.15-.56-3.75-2.5-3.75-4.82,0-2.76,2.24-5,5-5M25,13.5c-3.58,0-6.5,2.92-6.5,6.5,0,2.55,1.49,4.82,3.75,5.87v7.88c0,.57.32,1.09.83,1.34l2.5,1.25c.21.11.44.16.67.16.27,0,.55-.08.79-.22.44-.27.71-.76.71-1.28v-9.13c2.26-1.05,3.75-3.32,3.75-5.87,0-3.58-2.92-6.5-6.5-6.5h0Z"/>
      <circle class="cls-3" cx="25" cy="18.37" r="1.11"/>
      <rect class="cls-3" x="25.03" y="26.58" width="2.11" height="1.58"/>
      <rect class="cls-3" x="25.03" y="30.26" width="1.58" height="1.58"/>
    </g>
  </g>
</svg>