<?xml version="1.0" encoding="UTF-8"?>
<svg id="Software_1" data-name="Software 1" xmlns="http://www.w3.org/2000/svg" viewBox="0 0 50 50">
  <defs>
    <style>
      .cls-1 {
        fill: #00d15f;
      }

      .cls-1, .cls-2 {
        stroke-width: 0px;
      }

      .cls-2 {
        fill: #fff;
      }
    </style>
  </defs>
  <g id="Linux">
    <path class="cls-1" d="M33.19,8H10c-1.1,0-2,.9-2,2v30c0,1.1.9,2,2,2h30c1.1,0,2-.9,2-2v-23.19c0-.53-.21-1.04-.59-1.41l-6.81-6.81c-.38-.38-.88-.59-1.41-.59Z"/>
    <g>
      <path class="cls-2" d="M34.83,33.38c-.17-.17-.15-.57-.24-.98-.28-1.47-.99-1.47-.99-1.47,0,0,.39-.36.46-.88.14-1.09-.04-2.91-.4-3.86-.47-1.29-1.29-2.63-2.51-4.04l-.06-.06c-.82-1.05-1.58-1.98-1.52-3.27v-.29c0-1.76.05-4.45-1.47-5.97-.76-.76-1.81-1.17-3.1-1.17h-.58c-4.56.35-4.27,4.56-4.1,6.61,0,.41.06.76.06.94-.06,1.05-.29,1.93-1.05,3.04-.88.99-2.4,3.04-3.1,5.2-.35,1-.47,1.93-.41,2.75.06.35.18.65,0,1.17-.25.43-.7.65-.94.76l-.23.12c-.2.07-.61.28-.88.69-.2.31-.29.82-.29.95,0,.23,0,.41.06.64v.06c.06.35.12.7.06.94-.3.82-.3,1.4-.12,1.81.23.53.82.64,1.17.76.29,0,.58,0,.94.06.7.12,1.46.17,2.04.52l.18.12c.99.47,2.05.65,2.87.47.64-.12,1.16-.53,1.4-1.05.29,0,.58-.06.88-.12.41-.06.87-.18,1.52-.23.35,0,.76.05,1.17.11.47.06.99.12,1.52.12,0,.03.25.67.6.99.46.42,1.09.53,1.62.53h.23c.88-.06,1.76-.58,2.52-1.4l.12-.18c.47-.58,1.17-.93,1.81-1.23.29-.11.53-.29.76-.41.35-.17.82-.52.82-1.11.06-.47-.18-.99-.82-1.64ZM20.5,38.24c-.7.17-1.64,0-2.52-.47-.76-.41-1.69-.53-2.39-.58-.3-.06-.59-.06-.82-.12-.41-.06-.59-.18-.65-.35-.05-.18-.11-.47.18-1.23.12-.41.06-.82,0-1.17v-.12c-.06-.35-.08-.71.06-.93.37-.6,1.1-.66,1.87-1.35.28-.25.48-1.08,1.11-1.11.63-.03.7.35.82.53l.99,1.81c.13.3,1.52,1.83,2.19,2.84.25.38.27.91.27.96-.06.7-.41,1.11-1.11,1.29ZM27.23,20.4c-.71.41-1.93,1.17-3.1,1.17-1,.06-1.52-.53-2.4-1.35,0,0-.43,1.38-.9,2.75-.01.02-.76,1.8-1.2,3.12l-.07.16c-.46,1.05-.7,2.22-.76,3.27v.12c.03.2.05.56.37.93s.92.85,1.13.98c.43.34.82.6,1.08.9.35.47.46.82.35,1.11-.12.18-.88.47-.88.47-.35-.41-.7-.82-.88-1.23l-.99-1.87s-.12-.24-.18-.3c-.35-.4-.7-.58-1.05-.64h-.23c-.24,0-.47.06-.65.24v-.18c-.11-.76,0-1.64.35-2.57.65-2.05,2.17-3.98,2.99-4.98.87-1.22,1.11-2.28,1.17-3.45,0-.29,0-.64-.06-1.05-.35-2.63-.29-5.5,3.16-5.79h.52c1.06,0,1.93.29,2.52.93,1.29,1.29,1.23,3.75,1.23,5.39v.29c0,1.64.87,2.75,1.69,3.8l.06.06c1.17,1.34,1.93,2.57,2.4,3.8.35.9.5,1.77.45,2.6-.01.17-.09.97-.54,1.48-.63.71-1.73,1.13-2.16,1.03-.32-.08-.83-.4-.96-1.01-.17-.79.1-1.91.3-2.07,0,0-.25-1.2-.75-2.68-.69-2.03-1.73-4.61-2-5.42ZM34.48,35.55c-.18.12-.41.23-.7.35-.7.29-1.52.7-2.11,1.46-.64.76-1.4,1.17-2.1,1.23-.71.06-1.23-.23-1.52-.88-.18-.35-.12-.87.05-1.75.06-.24.12-.41.18-.65.17-.52.29-1.05.35-1.52.06-.76.06-1.46.23-1.99.12-.35.24-.64.41-.81.12.64.47,1.22,1.12,1.34.39.11.95-.06,1.45-.33.32-.17.71-.49.71-.49,0,0,.7,0,.94.24.42.42.47,1.75.73,2.18.26.43.73.87.73,1.09s-.12.29-.47.53Z"/>
      <path class="cls-2" d="M22.44,15.76c-.53.2-.85.8-.76,1.57.04.36.17.83.4,1.19h0c.1-.09.29-.35.29-.35h0c-.28-.3-.47-1.26,0-1.4s.48.69.47,1.05h0c.29-.16.79-.4.79-.4,0,0-.13-.97-.39-1.4s-.63-.32-.8-.26ZM27.17,16.3c-.36-.8-1.84-1.29-2.4.46-.13.42-.19.79-.19.79l.75.15s.03-.37.13-.69c.09-.29.3-.52.57-.45.74.18.05,1.45.05,1.45l.67.44s.34-.65.41-1.03c.09-.46.13-.8,0-1.14ZM27.11,19.4c0,.38-.43.68-.76.82-.7.41-1.62.88-2.42.77-.62-.08-1.54-.9-1.63-1-.45-.49.05-.99.71-1.41.4-.25.8-.61,1.11-.65.47-.01.89.21,1.35.47.47.32,1.51.48,1.64.99Z"/>
    </g>
  </g>
</svg>