<?xml version="1.0" encoding="UTF-8"?>
<svg id="Veeam_product_4" data-name="Veeam product 4" xmlns="http://www.w3.org/2000/svg" viewBox="0 0 50 50">
  <defs>
    <style>
      .cls-1 {
        fill: none;
        stroke: #fff;
        stroke-miterlimit: 10;
      }

      .cls-2 {
        fill: #505861;
      }

      .cls-2, .cls-3, .cls-4 {
        stroke-width: 0px;
      }

      .cls-3 {
        opacity: 0;
      }

      .cls-3, .cls-4 {
        fill: #fff;
      }
    </style>
  </defs>
  <g id="Linux_Proxy" data-name="Linux Proxy">
    <rect id="BG" class="cls-3" width="50" height="50"/>
    <path class="cls-2" d="M32.13,10H12c-1.1,0-2,.9-2,2v26c0,1.1.9,2,2,2h26c1.1,0,2-.9,2-2v-20.13c0-.53-.21-1.04-.59-1.41l-5.87-5.87c-.38-.38-.88-.59-1.41-.59Z"/>
    <g>
      <g>
        <path class="cls-2" d="M19.61,29.29c-.02.3.53.44,1.14.51,1.16.14,1.41.45,1.55.5.24.09,1.09.22,1.35-.3.27-.52.11-.8-.16-1.16-.27-.36-1.04-1.22-1.46-1.97-.21-.38-.68-.63-.95-.12-.27.51-.31.4-.89.54-.55.13-.44.28-.42.86s.04.64-.12.86c-.05.07-.04.21-.05.29Z"/>
        <path class="cls-4" d="M22.84,30.5c-.24,0-.46-.05-.57-.09-.03-.01-.07-.04-.13-.07-.18-.11-.5-.32-1.4-.43-.59-.07-1.27-.21-1.24-.63h0v-.05c0-.09,0-.21.07-.29.12-.16.12-.2.1-.6v-.19c0-.09-.01-.16-.02-.23-.03-.41-.01-.6.52-.73.12-.03.21-.05.29-.06.3-.06.33-.06.52-.43.15-.29.35-.35.49-.35.25,0,.5.18.66.46.3.55.79,1.14,1.14,1.57.13.16.24.29.31.39.28.37.46.7.17,1.27-.18.35-.57.45-.92.45ZM19.72,29.3c0,.1.12.29,1.04.4.95.11,1.32.35,1.5.46.04.02.06.04.09.05.19.07.98.2,1.22-.25.25-.48.1-.71-.15-1.05-.07-.1-.18-.23-.31-.39-.36-.44-.85-1.04-1.16-1.6-.11-.21-.3-.35-.46-.35h0c-.12,0-.21.08-.3.23-.23.44-.33.47-.68.54-.08.01-.17.03-.28.06-.37.09-.37.13-.35.51,0,.07,0,.15.01.24v.19c.02.41.02.51-.14.73-.02.03-.02.13-.02.17v.06Z"/>
      </g>
      <path class="cls-4" d="M24.51,22.06c-.43,0-.88-.34-.9-.36-.01,0-.06-.04-.08-.06-.04-.05-.06-.1-.06-.16,0-.1.09-.21.24-.34l.05-.04c.29-.24.68-.56,1.37-.28.35.14.55.21.69.26.13.04.2.07.26.11.06.04.11.11.12.19.01.08,0,.2-.13.35-.02.02-.05.03-.08,0-.02-.02-.03-.05,0-.08.1-.12.12-.21.11-.27,0-.05-.03-.09-.07-.11-.06-.04-.11-.06-.24-.1-.13-.05-.34-.12-.69-.26-.63-.25-.98.04-1.26.27l-.05.04c-.16.13-.2.22-.2.27,0,.03,0,.06.03.08,0,0,.04.03.07.05,0,0,.47.36.87.34.41-.02.58-.06,1.23-.55.02-.02.06-.01.08,0,.02.02.01.06,0,.08-.65.5-.85.55-1.29.57-.01,0-.03,0-.04,0Z"/>
      <path class="cls-4" d="M23.96,21s-.35-.22-.18-.59c.04-.08.24-.22.39.02,0,0,.08.21,0,.44l.21-.08c.06-.41-.14-.7-.14-.7-.34-.4-.64,0-.64,0-.26.62.21,1.02.21,1.02l.15-.11Z"/>
      <path class="cls-4" d="M25.55,21c.15-.13.21-.35.21-.35.07-.36-.21-.39-.21-.39-.49-.03-.37.63-.37.63l-.23-.08s-.06-1.05.71-.99c.23.02.58.24.49.75-.03.16-.08.32-.33.56l-.26-.11Z"/>
      <path class="cls-4" d="M27.42,26.03l-.05.05s.08-1.03-.58-2.08c-.66-1.05-.74-2.34-.74-2.34v-.04c.02-.14-.09.1-.16.14-.29.18-.62.53-.87.59-.25.07-.81.12-1.16-.41,0,0-.1-.2-.11-.16v-.02s-.11.54-.13.67c-.03.13-.27,1.05-.65,1.68-.51.83-.56,2.03-.56,2.03v.13c.13.42.13.62.98,1.18,0,0,.4.25.36.44,0,0,0,.21-.5.48l.06.12s1.85,1.05,3.44-.56l.02-.05c0-.2-.03-.36-.03-.44,0-.16-.09-.9.39-.91v-.05s.01-.02.02-.03c.09-.33,1.01-.27,1.3-.13l.11.06c-.16-.26-.48-.34-.76-.34h-.02"/>
      <g>
        <path class="cls-2" d="M28.69,26.55c.4-.16.72.16.75.47s.2.66.43.81c.52.33.5.5.5.5.04.12.07.28-.9.83-1.28.73-.99.83-1.49,1.09-.5.26-.95.04-.95.04,0,0-.53-.03-.49-.93,0-.2.04-.4.15-.81.06-.21.07-.46.06-.68,0,0-.17-1.19.22-1.32.39-.13,1.72,0,1.72,0Z"/>
        <path class="cls-4" d="M27.47,30.47c-.23,0-.41-.06-.46-.09-.12-.02-.61-.14-.57-1.04,0-.2.04-.4.16-.83.05-.17.06-.38.05-.65-.03-.2-.15-1.28.29-1.43.38-.13,1.51-.02,1.74,0,.19-.07.38-.05.54.04.18.11.31.31.33.52.02.28.19.61.38.72.46.29.55.48.55.57.07.22-.07.44-.95.95-.76.43-.95.64-1.1.79-.1.1-.18.19-.4.3-.2.11-.4.14-.57.14ZM27.57,26.59c-.24,0-.44.01-.55.05-.21.07-.21.76-.15,1.21.01.3,0,.53-.06.72-.11.41-.14.59-.15.78-.04.78.38.82.38.82.01,0,.03,0,.04.01.02,0,.41.18.85-.04.18-.09.24-.16.34-.26.15-.16.36-.38,1.15-.83.92-.52.87-.66.85-.7,0-.01,0-.03,0-.05,0,0,0,0,0,0,0,0-.05-.14-.45-.4-.24-.15-.45-.54-.48-.89-.01-.14-.1-.28-.22-.36-.08-.05-.2-.09-.37-.02-.02,0-.04,0-.05,0-.23-.02-.71-.06-1.12-.06Z"/>
      </g>
      <g>
        <path class="cls-2" d="M28.69,26.72s-.61.95-1.17.76c-.39-.13-.45-.64-.38-.92v-.1s.01-.33.96-.24c0,0,.53.07.59.33.02.06.02.1,0,.17Z"/>
        <path class="cls-4" d="M27.68,27.56c-.06,0-.12,0-.18-.03-.42-.14-.5-.67-.42-.99v-.09s.01-.08.1-.15c.15-.13.46-.18.92-.13.03,0,.57.08.64.37.02.07.02.12,0,.2h0s-.33.52-.72.73c-.12.07-.24.1-.35.1ZM27.8,26.26c-.33,0-.47.07-.53.12-.05.04-.06.08-.06.08v.11c-.09.28-.02.75.33.87.48.16,1.04-.62,1.1-.73.01-.06.01-.09,0-.14-.05-.18-.41-.27-.55-.29-.11-.01-.21-.02-.29-.02Z"/>
      </g>
      <path class="cls-4" d="M26.55,29.84s-.03,0-.05-.01c-1.39-.64-2.54-.17-2.55-.16-.06.02-.12,0-.15-.06s0-.12.06-.14c.05-.02,1.26-.51,2.73.17.06.03.08.09.05.14-.02.04-.06.06-.1.06Z"/>
      <path class="cls-4" d="M28.77,26.63s-.09-.03-.11-.08c-.02-.06.01-.12.07-.14h0s.2-.09.22-.63c.03-.7-.65-1.82-.87-2.19-.05-.09-.15-.22-.26-.38-.4-.55-1.01-1.39-1.03-1.95,0-.17-.01-.38-.02-.61,0-.46-.02-.98-.06-1.23-.02-.12-.23-1.16-1.49-1.21-1.14-.05-1.57.75-1.64,1.18-.04.28-.02,1.05-.01,1.6,0,.24.01.45.01.58,0,.38-.19.73-.34,1.01-.05.09-.09.17-.12.24-.1.23-.5.85-.94,1.52-.12.18-.24.37-.35.54-.46.71-.32,1.44-.32,1.45.01.06-.03.12-.09.13-.06.01-.12-.03-.13-.09,0-.03-.15-.82.35-1.61.11-.17.23-.35.35-.54.41-.63.83-1.28.92-1.48.03-.08.08-.16.13-.26.14-.26.31-.59.31-.91,0-.14,0-.34-.01-.58-.02-.6-.03-1.34.01-1.64.08-.49.57-1.41,1.86-1.36,1.43.06,1.68,1.25,1.7,1.39.05.27.06.8.07,1.27,0,.23,0,.44.02.61.02.5.63,1.33.99,1.84.12.17.22.3.27.39.24.39.93,1.55.91,2.31-.03.7-.34.82-.37.83-.01,0-.02,0-.03,0Z"/>
      <path class="cls-2" d="M27.59,26.28s.83-.05,1.04.02l.12.05s0,.06-.08.14c-.08.08-.31-.02-.31-.02l-.77-.18Z"/>
    </g>
    <g>
      <g>
        <polygon class="cls-4" points="13.2 23.29 17.8 19.83 12.5 17.57 13.2 23.29"/>
        <path class="cls-1" d="M14.45,19.76c2.15-4.38,6.86-6.94,11.72-6.36s8.77,4.22,9.86,8.8"/>
      </g>
      <g>
        <polygon class="cls-4" points="36.3 27.21 31.7 30.67 37 32.93 36.3 27.21"/>
        <path class="cls-1" d="M35.05,30.74c-2.15,4.38-6.86,6.94-11.72,6.36-4.93-.59-8.77-4.22-9.86-8.8"/>
      </g>
    </g>
  </g>
</svg>