<?xml version="1.0" encoding="UTF-8"?>
<svg id="datastores" xmlns="http://www.w3.org/2000/svg" viewBox="0 0 50 50">
  <defs>
    <style>
      .cls-1 {
        opacity: 0;
      }

      .cls-1, .cls-2, .cls-3, .cls-4 {
        stroke-width: 0px;
      }

      .cls-1, .cls-3 {
        fill: #fff;
      }

      .cls-2 {
        fill: #00d15f;
      }

      .cls-4 {
        fill: #505861;
      }
    </style>
  </defs>
  <g id="LinuxRepository">
    <rect id="BG" class="cls-1" width="50" height="50"/>
    <g id="Backup_Repository" data-name="Backup Repository">
      <g>
        <rect class="cls-4" x="6" y="6" width="29" height="8.5" rx="1" ry="1"/>
        <rect class="cls-4" x="6" y="19.5" width="29" height="8.5" rx="1" ry="1"/>
        <rect class="cls-4" x="6" y="33" width="29" height="8.5" rx="1" ry="1"/>
        <rect class="cls-4" x="8" y="16" width="25" height="2" rx="1" ry="1"/>
        <rect class="cls-4" x="8" y="29.5" width="25" height="2" rx="1" ry="1"/>
      </g>
    </g>
    <g>
      <rect class="cls-2" x="22.25" y="22.25" width="23.5" height="23.5" rx="2.85" ry="2.85"/>
      <path class="cls-3" d="M42.9,23c1.16,0,2.1.94,2.1,2.1v17.81c0,1.16-.94,2.1-2.1,2.1h-17.81c-1.16,0-2.1-.94-2.1-2.1v-17.81c0-1.16.94-2.1,2.1-2.1h17.81M42.9,21.5h-17.81c-1.98,0-3.6,1.61-3.6,3.6v17.81c0,1.98,1.61,3.6,3.6,3.6h17.81c1.98,0,3.6-1.61,3.6-3.6v-17.81c0-1.98-1.61-3.6-3.6-3.6h0Z"/>
    </g>
    <g>
      <g>
        <path class="cls-2" d="M26.23,41.35c-.03.43.76.63,1.65.74,1.67.2,2.04.65,2.25.73.34.13,1.57.31,1.96-.44.39-.75.16-1.16-.23-1.68-.39-.52-1.51-1.76-2.12-2.86-.3-.55-.99-.91-1.38-.17-.39.74-.45.58-1.29.79-.79.19-.63.41-.61,1.24s.06.92-.17,1.24c-.07.1-.06.31-.07.42Z"/>
        <path class="cls-3" d="M30.9,43.1c-.35,0-.66-.07-.83-.13-.05-.02-.11-.05-.18-.1-.25-.16-.73-.46-2.03-.62-.86-.1-1.84-.3-1.79-.91h0v-.07c0-.13.01-.31.1-.43.17-.23.17-.29.15-.86v-.28c-.01-.13-.02-.24-.03-.34-.04-.6-.02-.87.75-1.06.17-.04.31-.07.43-.09.44-.08.48-.09.76-.62.22-.41.51-.5.71-.5.36,0,.72.26.95.67.44.79,1.14,1.65,1.65,2.27.19.23.35.43.46.57.4.54.67,1.02.24,1.85-.26.5-.83.65-1.34.65ZM26.39,41.37c-.01.15.17.41,1.51.57,1.38.17,1.91.5,2.17.67.05.03.09.06.12.07.28.11,1.42.29,1.76-.37.36-.69.15-1.03-.22-1.52-.1-.14-.26-.33-.45-.56-.52-.64-1.23-1.51-1.68-2.32-.16-.3-.44-.5-.66-.5h0c-.17,0-.31.11-.43.33-.33.63-.48.68-.98.78-.11.02-.25.05-.41.09-.54.13-.54.19-.5.74,0,.1.01.22.02.35v.28c.03.59.03.73-.2,1.06-.03.04-.03.19-.03.25v.08Z"/>
      </g>
      <path class="cls-3" d="M33.32,30.88c-.62,0-1.27-.5-1.3-.52-.02-.01-.09-.06-.12-.09-.06-.07-.09-.15-.09-.24.01-.15.13-.31.35-.49l.07-.05c.42-.34.99-.81,1.99-.41.51.2.8.3,1,.37.19.06.28.1.38.16.09.06.15.16.17.27.02.11,0,.29-.19.51-.03.03-.08.04-.11.01-.03-.03-.04-.08-.01-.11.15-.18.17-.31.16-.39-.01-.07-.05-.13-.1-.16-.08-.05-.16-.08-.35-.14-.2-.07-.49-.17-1-.37-.91-.37-1.42.05-1.83.39l-.07.05c-.23.19-.29.31-.29.39,0,.04.01.08.05.12,0,.01.05.04.09.07.01,0,.68.52,1.26.49.59-.03.85-.08,1.78-.79.03-.03.09-.02.11.01.03.03.02.08-.01.11-.94.72-1.23.79-1.87.83-.02,0-.04,0-.06,0Z"/>
      <path class="cls-3" d="M32.53,29.35s-.51-.32-.26-.86c.06-.12.35-.32.57.03,0,0,.12.31,0,.64l.31-.12c.09-.59-.21-1.01-.21-1.01-.49-.58-.93,0-.93,0-.38.89.31,1.48.31,1.48l.21-.16Z"/>
      <path class="cls-3" d="M34.82,29.35c.22-.19.31-.51.31-.51.1-.53-.31-.57-.31-.57-.71-.05-.53.91-.53.91l-.34-.12s-.08-1.53,1.02-1.43c.33.03.84.35.71,1.08-.04.23-.12.46-.47.8l-.38-.16Z"/>
      <path class="cls-3" d="M37.54,36.63l-.07.07s.11-1.49-.84-3.02c-.95-1.53-1.07-3.38-1.07-3.38v-.06c.03-.2-.13.14-.23.2-.43.26-.9.76-1.27.86-.37.1-1.17.17-1.68-.6,0,0-.14-.29-.16-.23v-.03s-.16.79-.19.98c-.04.19-.39,1.53-.95,2.43-.74,1.21-.81,2.94-.81,2.94v.19c.18.61.19.89,1.42,1.7,0,0,.57.37.52.64,0,0-.01.3-.73.69l.09.17s2.68,1.52,4.98-.82l.03-.07c-.01-.29-.04-.53-.05-.64-.01-.23-.14-1.3.56-1.32v-.07s.02-.03.02-.05c.13-.48,1.46-.4,1.88-.19l.16.08c-.24-.37-.69-.49-1.09-.49h-.03"/>
      <g>
        <path class="cls-2" d="M39.38,37.38c.58-.24,1.04.24,1.08.68.04.44.3.96.62,1.17.76.48.73.72.73.72.06.17.1.41-1.3,1.21-1.85,1.05-1.44,1.2-2.16,1.57-.72.37-1.38.06-1.38.06,0,0-.77-.05-.71-1.35.01-.3.06-.58.22-1.17.08-.31.09-.67.08-.98,0,0-.24-1.72.32-1.92.56-.19,2.49,0,2.49,0Z"/>
        <path class="cls-3" d="M37.61,43.07c-.34,0-.59-.09-.67-.12-.17-.03-.89-.21-.82-1.51.01-.29.06-.59.22-1.2.07-.24.09-.55.08-.94-.04-.29-.22-1.85.43-2.07.55-.19,2.19-.04,2.52,0,.27-.1.55-.08.79.06.27.16.45.46.48.76.03.41.28.88.55,1.05.67.42.79.7.8.82.1.32-.1.64-1.38,1.37-1.1.62-1.38.92-1.59,1.14-.14.15-.27.28-.58.44-.3.15-.58.2-.83.2ZM37.75,37.45c-.34,0-.64.02-.8.07-.3.1-.3,1.11-.21,1.75.02.43-.01.77-.09,1.04-.16.59-.2.86-.21,1.13-.05,1.13.55,1.18.56,1.19.02,0,.04,0,.06.01.02.01.6.27,1.23-.06.26-.13.35-.23.49-.37.22-.23.52-.55,1.66-1.2,1.33-.76,1.26-.96,1.23-1.02,0-.02-.01-.04,0-.07,0,0,0,0,0,0,0,0-.07-.2-.66-.58-.35-.22-.65-.78-.69-1.29-.02-.2-.15-.41-.33-.52-.11-.07-.3-.13-.53-.03-.03.01-.05.01-.08.01-.33-.04-1.04-.09-1.62-.09Z"/>
      </g>
      <g>
        <path class="cls-2" d="M39.38,37.63s-.88,1.37-1.7,1.1c-.57-.19-.65-.93-.55-1.34l.02-.15s0-.47,1.37-.34c0,0,.76.1.86.48.02.08.03.15,0,.25Z"/>
        <path class="cls-3" d="M37.92,38.85c-.09,0-.17-.01-.25-.04-.61-.2-.72-.98-.6-1.43l.02-.14s0-.11.12-.22c.22-.19.67-.26,1.33-.2.04,0,.82.12.93.54.03.1.03.18,0,.29h0c-.01.05-.47.75-1.04,1.06-.18.09-.35.14-.51.14ZM38.09,36.96c-.48,0-.68.1-.77.17-.08.06-.08.12-.08.12l-.02.15c-.1.41-.01,1.08.5,1.26.7.24,1.51-.89,1.59-1.05.02-.09.02-.14,0-.2-.07-.27-.6-.39-.79-.42-.16-.02-.3-.02-.43-.02Z"/>
      </g>
      <path class="cls-3" d="M36.27,42.14s-.05,0-.07-.01c-2.01-.92-3.68-.24-3.7-.24-.08.03-.18,0-.21-.08s0-.17.08-.21c.07-.03,1.82-.74,3.96.24.08.04.11.13.08.21-.03.06-.08.09-.14.09Z"/>
      <path class="cls-3" d="M39.49,37.5c-.07,0-.13-.04-.15-.11-.03-.08.02-.17.1-.2h0s.29-.13.32-.91c.04-1.02-.94-2.63-1.26-3.17-.08-.13-.22-.33-.38-.55-.58-.8-1.46-2.01-1.5-2.82-.01-.24-.02-.56-.03-.89-.01-.66-.03-1.41-.09-1.79-.03-.17-.34-1.67-2.16-1.75-1.65-.07-2.27,1.08-2.37,1.7-.06.4-.04,1.51-.01,2.32,0,.34.02.65.02.85,0,.55-.27,1.06-.49,1.47-.07.13-.13.25-.18.35-.14.33-.73,1.24-1.36,2.2-.17.27-.35.53-.51.78-.66,1.03-.47,2.09-.47,2.1.02.08-.04.17-.13.18-.09.02-.17-.04-.19-.12,0-.05-.22-1.19.51-2.33.16-.25.33-.51.51-.78.59-.91,1.21-1.85,1.33-2.15.05-.11.11-.24.19-.38.2-.38.46-.85.46-1.32,0-.2,0-.5-.02-.84-.02-.87-.05-1.95.02-2.38.11-.72.82-2.05,2.7-1.97,2.08.09,2.43,1.82,2.47,2.01.07.4.08,1.16.1,1.83,0,.33.01.64.03.88.03.72.91,1.93,1.44,2.66.17.24.31.43.39.56.34.56,1.35,2.24,1.31,3.35-.04,1.02-.49,1.19-.54,1.2-.02,0-.03,0-.05,0Z"/>
      <path class="cls-2" d="M37.77,37.02s1.22-.13,1.51.04l.17.13s0,.14-.11.35c-.11.2-.45-.05-.45-.05l-1.12-.46Z"/>
    </g>
  </g>
</svg>