<?xml version="1.0" encoding="UTF-8"?>
<svg id="Software_3" data-name="Software 3" xmlns="http://www.w3.org/2000/svg" viewBox="0 0 50 50">
  <defs>
    <style>
      .cls-1 {
        fill: none;
        stroke: #00d15f;
        stroke-miterlimit: 10;
        stroke-width: 1.5px;
      }

      .cls-2 {
        opacity: 0;
      }

      .cls-2, .cls-3, .cls-4 {
        stroke-width: 0px;
      }

      .cls-2, .cls-4 {
        fill: #fff;
      }

      .cls-3 {
        fill: #00d15f;
      }
    </style>
  </defs>
  <g id="OneDrive_for_Business" data-name="OneDrive for Business">
    <rect id="BG" class="cls-2" width="50" height="50"/>
    <path class="cls-3" d="M33.19,8H10c-1.1,0-2,.9-2,2v30c0,1.1.9,2,2,2h30c1.1,0,2-.9,2-2v-23.19c0-.53-.21-1.04-.59-1.41l-6.81-6.81c-.38-.38-.88-.59-1.41-.59Z"/>
    <g>
      <path class="cls-4" d="M29.84,22.59c.73-.3,1.49-.47,2.29-.47h.04c-.43-1.02-1.08-1.95-1.92-2.7-1.08-.96-2.39-1.59-3.84-1.83-1.42-.23-2.91-.06-4.23.51-.99.42-1.88,1.06-2.59,1.83,1.08.08,2.11.42,3.02.98l4.66,2.72,2.57-1.04h0Z"/>
      <path class="cls-4" d="M32.15,27.51l-1.25-.72-2.85-1.68-.86-.51-2.29.93-4.4,1.8-1.98.81-4.44,1.85c.56.76,1.29,1.4,2.14,1.85.84.45,1.81.66,2.78.66h13.13c.88,0,1.75-.23,2.5-.68.75-.45,1.38-1.06,1.79-1.83l-4.27-2.48h0Z"/>
      <polygon class="cls-4" points="20.5 27.36 24.9 25.56 27.19 24.6 27.19 24.6 24.9 25.54 20.5 27.36 20.5 27.36"/>
      <path class="cls-4" d="M13.62,29.23l.11-.04,4.44-1.83,1.98-.81,4.4-1.8,1.68-.7-4.1-2.38c-.95-.57-2.05-.87-3.15-.87h-.06c-1.1.02-2.16.32-3.08.87-.93.55-1.68,1.36-2.18,2.29-.5.96-.73,2.02-.65,3.08.04.76.26,1.51.6,2.19h0Z"/>
      <polygon class="cls-4" points="32.15 27.51 30.9 26.79 28.05 25.11 27.19 24.6 27.17 24.6 28.03 25.11 30.87 26.79 32.15 27.51 36.4 30.02 36.4 30.02 32.15 27.51 32.15 27.51 32.15 27.51"/>
      <path class="cls-4" d="M28.5,24.35l2.85,1.68,1.25.72,4.16,2.42c.15-.47.24-.96.24-1.46,0-.81-.22-1.59-.6-2.27-.39-.7-.97-1.29-1.66-1.72-.69-.42-1.49-.68-2.29-.74h-.32c-.67,0-1.32.13-1.94.38l-1.96.81.28.19h0Z"/>
    </g>
    <g>
      <path class="cls-1" d="M14.5,21s3.4-2.56,8.5.5c5,3,13.5,8.5,13.5,8.5"/>
      <path class="cls-1" d="M12,30.76l19-8s3-1.5,5.5.5"/>
    </g>
  </g>
</svg>