<?xml version="1.0" encoding="UTF-8"?>
<svg id="Software_1" data-name="Software 1" xmlns="http://www.w3.org/2000/svg" viewBox="0 0 50 50">
  <defs>
    <style>
      .cls-1 {
        opacity: 0;
      }

      .cls-1, .cls-2, .cls-3 {
        stroke-width: 0px;
      }

      .cls-1, .cls-3 {
        fill: #fff;
      }

      .cls-2 {
        fill: #00d15f;
      }
    </style>
  </defs>
  <g id="Microsoft_Exchange" data-name="Microsoft Exchange">
    <rect id="BG" class="cls-1" width="50" height="50"/>
    <path class="cls-2" d="M33.19,8H10c-1.1,0-2,.9-2,2v30c0,1.1.9,2,2,2h30c1.1,0,2-.9,2-2v-23.19c0-.53-.21-1.04-.59-1.41l-6.81-6.81c-.38-.38-.88-.59-1.41-.59Z"/>
    <path class="cls-3" d="M24.5,32.5c0-3.74,2.95-6.8,6.65-6.98v-.02s2.31,0,2.31,0c.35,0,.69-.12.96-.35l2.04-1.7c.34-.28.54-.71.54-1.15v-5.8c0-.83-.67-1.5-1.5-1.5h-5.88c-.4,0-.78.16-1.06.44l-2.12,2.12c-.28.28-.44.66-.44,1.06v5.33c0,1.68-1.36,3.05-3.05,3.05h-7.95c-.83,0-1.5.67-1.5,1.5v7.5c0,.83.67,1.5,1.5,1.5h5.88c.4,0,.78-.16,1.06-.44l2.12-2.12c.28-.28.44-.66.44-1.06v-1.19h0c0-.06,0-.12,0-.19Z"/>
    <path class="cls-3" d="M22.94,25.5h-7.87c-.86,0-1.56-.7-1.56-1.56v-7.37c0-.86.7-1.56,1.56-1.56h5.89c.35,0,.69.12.96.35l2.04,1.7c.34.28.54.71.54,1.15v5.73c0,.86-.7,1.56-1.56,1.56Z"/>
    <g>
      <path class="cls-3" d="M29.54,38.25c-.53,0-1.04-.19-1.44-.52l-2.04-1.7c-.51-.43-.81-1.06-.81-1.73v-5.73c0-1.28,1.04-2.31,2.31-2.31h5.82c.59,0,1.17.24,1.59.66l2.12,2.12c.42.42.66,1,.66,1.59v5.32c0,1.28-1.04,2.31-2.31,2.31h-5.89Z"/>
      <path class="cls-2" d="M33.38,27c.4,0,.78.16,1.06.44l2.12,2.12c.28.28.44.66.44,1.06v5.31c0,.86-.7,1.56-1.56,1.56h-5.89c-.35,0-.69-.12-.96-.35l-2.04-1.7c-.34-.28-.54-.71-.54-1.15v-5.73c0-.86.7-1.56,1.56-1.56h5.81M33.38,25.5h-5.81c-1.69,0-3.06,1.37-3.06,3.06v5.73c0,.89.39,1.73,1.08,2.3l2.04,1.7c.54.45,1.22.7,1.92.7h5.89c1.69,0,3.06-1.37,3.06-3.06v-5.31c0-.8-.31-1.55-.88-2.12l-2.12-2.12c-.57-.57-1.32-.88-2.12-.88h0Z"/>
    </g>
    <g>
      <rect class="cls-3" x="10" y="19" width="12.5" height="12.5" rx="1.75" ry="1.75"/>
      <path class="cls-2" d="M20.75,19.75c.55,0,1,.45,1,1v9c0,.55-.45,1-1,1h-9c-.55,0-1-.45-1-1v-9c0-.55.45-1,1-1h9M20.75,18.25h-9c-1.38,0-2.5,1.12-2.5,2.5v9c0,1.38,1.12,2.5,2.5,2.5h9c1.38,0,2.5-1.12,2.5-2.5v-9c0-1.38-1.12-2.5-2.5-2.5h0Z"/>
    </g>
    <polygon class="cls-2" points="18.5 28.01 14.57 28.01 14.57 22 18.36 22 18.36 22.99 15.74 22.99 15.74 24.51 18.18 24.51 18.18 25.46 15.74 25.46 15.74 27.02 18.49 27.02 18.5 28.01 18.5 28.01"/>
  </g>
</svg>