<?xml version="1.0" encoding="UTF-8"?>
<svg id="Software_1" data-name="Software 1" xmlns="http://www.w3.org/2000/svg" viewBox="0 0 50 50">
  <defs>
    <style>
      .cls-1 {
        opacity: 0;
      }

      .cls-1, .cls-2, .cls-3 {
        stroke-width: 0px;
      }

      .cls-1, .cls-3 {
        fill: #fff;
      }

      .cls-2 {
        fill: #00d15f;
      }
    </style>
  </defs>
  <g id="Office_365" data-name="Office 365">
    <rect id="BG" class="cls-1" width="50" height="50"/>
    <path class="cls-2" d="M33.19,8H10c-1.1,0-2,.9-2,2v30c0,1.1.9,2,2,2h30c1.1,0,2-.9,2-2v-23.19c0-.53-.21-1.04-.59-1.41l-6.81-6.81c-.38-.38-.88-.59-1.41-.59Z"/>
    <g>
      <path class="cls-3" d="M17.3,33.1c-.34,0-.68-.04-1.01-.13l-.19-.05-.15-.05c-.07-.03-.15-.06-.23-.09-1.1-.77-1.79-2.08-1.79-3.49v-8.08c0-1.57.85-3.01,2.21-3.76l3.88-2.12s-.02.06-.02.08c-.03.11-.06.23-.08.35-.02.08-.03.16-.05.25-.02.12-.03.22-.04.32-.01.13-.02.23-.03.33,0,.1,0,.21,0,.31v8.02c0,2.23,1.2,4.28,3.13,5.35l.23.13-3.98,2.17c-.27.14-.56.25-.86.32-.33.09-.68.13-1.02.13Z"/>
      <path class="cls-3" d="M25,37.31c-.7,0-1.39-.18-2.01-.52l-3.89-2.13.22-.07.19-.07c.08-.03.15-.06.23-.1.15-.06.3-.14.44-.22l6.84-3.74c1.95-1.07,3.17-3.13,3.17-5.38v-1.19l3.56,1.81c.08.04.17.09.25.14.41.25.78.56,1.07.92.06.07.11.13.16.2.11.14.18.25.24.37.03.05.05.09.07.12.05.09.1.19.14.28.04.08.07.16.1.24.05.14.1.27.13.41.01.05.03.09.03.13.03.1.04.2.06.29,0,0,.03.23.04.28l.02.3c-.03,1.52-.88,2.93-2.21,3.65l-6.84,3.74c-.62.34-1.31.52-2.01.52Z"/>
      <path class="cls-3" d="M36.06,25.15c-.1-.1-.2-.2-.31-.29l-.13-.11c-.12-.09-.2-.16-.28-.21l-.09-.07-.29-.18c-.17-.1-.28-.16-.38-.21l-6.84-3.5c-.84-.43-1.78-.66-2.73-.66s-1.89.23-2.73.66l-.63.32v-3.92c0-.21.01-.43.05-.63.01-.09.03-.17.04-.25.02-.08.04-.16.06-.24.02-.08.05-.16.08-.25.02-.08.05-.16.08-.23.08-.2.17-.39.28-.57.04-.08.08-.14.13-.21.1-.14.2-.28.3-.41.22-.25.47-.49.74-.68.47-.19,1.03-.31,1.6-.31.7,0,1.4.18,2.01.51l6.84,3.74c1.36.75,2.21,2.19,2.21,3.76v3.94Z"/>
    </g>
  </g>
</svg>