<?xml version="1.0" encoding="UTF-8"?>
<svg id="Software_1" data-name="Software 1" xmlns="http://www.w3.org/2000/svg" viewBox="0 0 50 50">
  <defs>
    <style>
      .cls-1 {
        opacity: 0;
      }

      .cls-1, .cls-2, .cls-3 {
        stroke-width: 0px;
      }

      .cls-1, .cls-3, .cls-4 {
        fill: #fff;
      }

      .cls-2 {
        fill: #00d15f;
      }

      .cls-4 {
        stroke: #00d15f;
        stroke-miterlimit: 10;
      }
    </style>
  </defs>
  <g id="Outlook">
    <rect id="BG" class="cls-1" width="50" height="50"/>
    <path class="cls-2" d="M33.19,8H10c-1.1,0-2,.9-2,2v30c0,1.1.9,2,2,2h30c1.1,0,2-.9,2-2v-23.19c0-.53-.21-1.04-.59-1.41l-6.81-6.81c-.38-.38-.88-.59-1.41-.59Z"/>
    <g id="Outlook-2" data-name="Outlook">
      <g>
        <rect class="cls-3" x="17.72" y="12.66" width="17.13" height="23.59" rx="1.75" ry="1.75"/>
        <path class="cls-2" d="M33.09,13.41c.55,0,1,.45,1,1v20.09c0,.55-.45,1-1,1h-13.63c-.55,0-1-.45-1-1V14.41c0-.55.45-1,1-1h13.63M33.09,11.91h-13.63c-1.38,0-2.5,1.12-2.5,2.5v20.09c0,1.38,1.12,2.5,2.5,2.5h13.63c1.38,0,2.5-1.12,2.5-2.5V14.41c0-1.38-1.12-2.5-2.5-2.5h0Z"/>
      </g>
      <g>
        <path class="cls-3" d="M35.5,36.52c-.2,0-.41-.05-.59-.15l-9.77-5.19c-.25-.13-.4-.39-.4-.68s.17-.54.43-.66l9.78-4.68c.17-.08.35-.12.54-.12.69,0,1.25.56,1.25,1.25v8.98c0,.69-.56,1.25-1.25,1.25Z"/>
        <path class="cls-2" d="M35.5,25.79c.26,0,.5.21.5.5v8.98c0,.29-.24.5-.5.5-.08,0-.16-.02-.23-.06l-9.77-5.19,9.78-4.68c.07-.03.14-.05.22-.05M35.5,24.29h0c-.3,0-.59.07-.86.2l-9.78,4.68c-.51.24-.84.76-.85,1.32-.01.57.3,1.09.8,1.36l9.77,5.19c.29.15.61.23.94.23,1.1,0,2-.9,2-2v-8.98c0-1.1-.9-2-2-2h0Z"/>
      </g>
      <g>
        <path class="cls-3" d="M18,37.34c-.96,0-1.75-.79-1.75-1.75v-10.86c0-.27.15-.52.39-.66.11-.06.24-.09.36-.09.14,0,.28.04.4.11l17.52,10.93c.48.3.7.86.54,1.4s-.64.91-1.2.91h-16.25Z"/>
        <path class="cls-2" d="M17,24.73l17.52,10.93c.43.27.24.92-.26.92h-16.25c-.55,0-1-.45-1-1v-10.86M17,23.23c-.25,0-.5.06-.73.19-.48.26-.77.77-.77,1.31v10.86c0,1.38,1.12,2.5,2.5,2.5h16.25c.9,0,1.67-.58,1.92-1.45s-.1-1.77-.86-2.25l-17.52-10.93c-.24-.15-.52-.23-.79-.23h0Z"/>
      </g>
      <path class="cls-4" d="M34.5,16.59h-17.65"/>
      <path class="cls-4" d="M34.5,21.09h-17.65"/>
      <path class="cls-4" d="M32.48,26.59h-15.63"/>
      <line class="cls-4" x1="29.5" y1="28.09" x2="29.5" y2="16.11"/>
      <g>
        <rect class="cls-3" x="11.75" y="15.84" width="12.5" height="12.5" rx="1.75" ry="1.75"/>
        <path class="cls-2" d="M22.5,16.59c.55,0,1,.45,1,1v9c0,.55-.45,1-1,1h-9c-.55,0-1-.45-1-1v-9c0-.55.45-1,1-1h9M22.5,15.09h-9c-1.38,0-2.5,1.12-2.5,2.5v9c0,1.38,1.12,2.5,2.5,2.5h9c1.38,0,2.5-1.12,2.5-2.5v-9c0-1.38-1.12-2.5-2.5-2.5h0Z"/>
      </g>
      <path class="cls-2" d="M16.05,25.14c.53.31,1.14.46,1.75.44.62.01,1.24-.14,1.78-.45.51-.3.91-.74,1.17-1.27.28-.59.42-1.24.41-1.89.01-.63-.12-1.25-.4-1.81-.25-.51-.64-.94-1.13-1.23-.52-.3-1.11-.45-1.71-.44-.65-.02-1.29.14-1.85.46s-.97.83-1.22,1.41c-.23.55-.35,1.15-.34,1.75-.01.62.13,1.23.4,1.79.26.51.66.94,1.15,1.23ZM16.14,20.83c.14-.34.37-.64.67-.85.31-.21.67-.32,1.05-.31.39-.02.77.1,1.08.33.29.23.5.53.62.88.13.38.2.79.19,1.2,0,.4-.06.8-.2,1.18-.12.34-.35.63-.64.85-.32.22-.7.33-1.09.32-.37,0-.72-.1-1.02-.31-.29-.21-.52-.51-.65-.85h0,0s0,0,0,0c-.3-.79-.3-1.65,0-2.44Z"/>
    </g>
  </g>
</svg>