<?xml version="1.0" encoding="UTF-8"?>
<svg id="Software_1" data-name="Software 1" xmlns="http://www.w3.org/2000/svg" viewBox="0 0 50 50">
  <defs>
    <style>
      .cls-1 {
        opacity: 0;
      }

      .cls-1, .cls-2, .cls-3 {
        stroke-width: 0px;
      }

      .cls-1, .cls-3 {
        fill: #fff;
      }

      .cls-2 {
        fill: #00d15f;
      }
    </style>
  </defs>
  <g id="Microsoft_Teams" data-name="Microsoft Teams">
    <rect id="BG" class="cls-1" x="0" width="50" height="50"/>
    <path class="cls-2" d="M33.19,8H10c-1.1,0-2,.9-2,2v30c0,1.1.9,2,2,2h30c1.1,0,2-.9,2-2v-23.19c0-.53-.21-1.04-.59-1.41l-6.81-6.81c-.38-.38-.88-.59-1.41-.59Z"/>
    <g>
      <g>
        <path class="cls-3" d="M31.75,35.25c-3.31,0-6-2.69-6-6v-5.94c0-1.24,1.01-2.25,2.25-2.25h7.5c1.24,0,2.25,1.01,2.25,2.25v5.94c0,3.31-2.69,6-6,6Z"/>
        <path class="cls-2" d="M35.5,21.81c.83,0,1.5.67,1.5,1.5v5.94c0,2.9-2.35,5.25-5.25,5.25s-5.25-2.35-5.25-5.25v-5.94c0-.83.67-1.5,1.5-1.5h7.5M35.5,20.31h-7.5c-1.65,0-3,1.35-3,3v5.94c0,3.72,3.03,6.75,6.75,6.75s6.75-3.03,6.75-6.75v-5.94c0-1.65-1.35-3-3-3h0Z"/>
      </g>
      <circle class="cls-3" cx="33.5" cy="17.81" r="2.5"/>
      <g>
        <path class="cls-3" d="M24.87,36.25c-4,0-7.25-3.25-7.25-7.25v-7c0-1.24,1.01-2.25,2.25-2.25h10c1.24,0,2.25,1.01,2.25,2.25v7c0,4-3.25,7.25-7.25,7.25Z"/>
        <path class="cls-2" d="M29.87,20.5c.83,0,1.5.67,1.5,1.5v7c0,3.59-2.91,6.5-6.5,6.5s-6.5-2.91-6.5-6.5v-7c0-.83.67-1.5,1.5-1.5h10M29.87,19h-10c-1.65,0-3,1.35-3,3v7c0,4.41,3.59,8,8,8s8-3.59,8-8v-7c0-1.65-1.35-3-3-3h0Z"/>
      </g>
      <circle class="cls-3" cx="25" cy="15" r="4"/>
      <g>
        <rect class="cls-3" x="10.75" y="18.75" width="12.5" height="12.5" rx="1.75" ry="1.75"/>
        <path class="cls-2" d="M21.5,19.5c.55,0,1,.45,1,1v9c0,.55-.45,1-1,1h-9c-.55,0-1-.45-1-1v-9c0-.55.45-1,1-1h9M21.5,18h-9c-1.38,0-2.5,1.12-2.5,2.5v9c0,1.38,1.12,2.5,2.5,2.5h9c1.38,0,2.5-1.12,2.5-2.5v-9c0-1.38-1.12-2.5-2.5-2.5h0Z"/>
      </g>
      <polygon class="cls-2" points="19.79 22.68 17.66 22.68 17.66 28.45 16.32 28.45 16.32 22.69 14.21 22.69 14.21 21.55 19.79 21.55 19.79 22.68 19.79 22.68"/>
    </g>
  </g>
</svg>