<?xml version="1.0" encoding="UTF-8"?>
<svg id="Software_1" data-name="Software 1" xmlns="http://www.w3.org/2000/svg" viewBox="0 0 50 50">
  <defs>
    <style>
      .cls-1 {
        stroke-miterlimit: 10;
      }

      .cls-1, .cls-2 {
        fill: none;
        stroke: #fff;
        stroke-linecap: round;
      }

      .cls-3 {
        fill: #fff;
        opacity: 0;
      }

      .cls-3, .cls-4 {
        stroke-width: 0px;
      }

      .cls-4 {
        fill: #00d15f;
      }

      .cls-2 {
        stroke-linejoin: round;
        stroke-width: .75px;
      }
    </style>
  </defs>
  <g id="Microsoft_SQL" data-name="Microsoft SQL">
    <rect id="BG" class="cls-3" y="0" width="50" height="50"/>
    <g>
      <path class="cls-1" d="M28.44,24.11c1.31,5.73-.69,9.98-1.88,13.78,0,0-6.96-.45-9.89-2.86-2.94-2.41-2.42-3.59.31-6.27.45-.44.92-.87,1.38-1.31,2.34-2.2,4.56-4.52,2.84-7.79-.03-.06-.06-.13-.1-.19-1.13-1.99-2.01-3.12-2.37-3.89-.38-.79-.21-1.22.79-1.82,1.97-1.18,4.59-1.71,4.59-1.71,0,0,.29,2.58,1.1,4.82"/>
      <path class="cls-1" d="M18.73,15.56c1.15.41,2.48.78,3.95.99.83.12.89.12,1.75.22,3.95.44,8.31,1.35,13.03,5.66,0,0-4.02.47-9.01,1.67-3.23.77-6.91,2.18-11.47,4.64"/>
      <path class="cls-2" d="M28.6,17.65s-.03,1.18-.69,3.18-2.26,4.13-2.26,4.13"/>
      <path class="cls-2" d="M24.43,16.78l-3.33,2.68s6.49-.54,10.11,3.59"/>
      <path class="cls-2" d="M19.86,26.51c.32-.04,5.46-1.64,5.05-10.51"/>
      <path class="cls-2" d="M18.61,27.89s-.67,5.81,8.86,6.51"/>
      <line class="cls-2" x1="24.83" y1="25.65" x2="28.6" y2="26.51"/>
      <polyline class="cls-2" points="24.87 25.32 24.43 29.01 28.95 26.51"/>
      <path class="cls-2" d="M21.1,26.98l-1.81,4.3,5.14-1.97-2.15,4.17,6.51-3.35c-6.08-.06-6.05-3.93-6.05-3.93"/>
      <polyline class="cls-2" points="14.78 31.92 19.29 31.28 16.42 34.81 22.28 33.48 19.87 36.5 27.08 34.49"/>
    </g>
    <path class="cls-2" d="M33.87,19.72c-7.18.9-12.14,2.7-12.14,2.7"/>
    <path class="cls-2" d="M33.67,19.91s-.66.63-1.92,3.13"/>
    <g id="Microsoft_SQL-2" data-name="Microsoft SQL">
      <path class="cls-4" d="M33.19,8H10c-1.1,0-2,.9-2,2v30c0,1.1.9,2,2,2h30c1.1,0,2-.9,2-2v-23.19c0-.53-.21-1.04-.59-1.41l-6.81-6.81c-.38-.38-.88-.59-1.41-.59Z"/>
      <g>
        <path class="cls-1" d="M28.33,24.02c1.24,5.45-.66,9.48-1.78,13.09,0,0-6.61-.43-9.4-2.72-2.79-2.29-2.29-3.41.29-5.96.42-.41.87-.83,1.31-1.24,2.22-2.09,4.33-4.29,2.69-7.4-.03-.06-.06-.12-.09-.19-1.07-1.89-1.9-2.96-2.25-3.69-.36-.75-.2-1.15.75-1.72,1.87-1.12,4.36-1.62,4.36-1.62,0,0,.28,2.45,1.05,4.58"/>
        <path class="cls-1" d="M19.1,15.91c1.09.39,2.36.74,3.75.94.78.11.84.11,1.66.21,3.75.42,7.89,1.28,12.38,5.37,0,0-3.82.44-8.56,1.59-3.07.73-6.57,2.07-10.89,4.41"/>
        <path class="cls-2" d="M28.47,17.89s-.03,1.12-.66,3.02c-.62,1.9-2.14,3.92-2.14,3.92"/>
        <path class="cls-2" d="M24.51,17.06l-3.16,2.54s6.16-.51,9.61,3.41"/>
        <path class="cls-2" d="M20.17,26.3c.31-.04,5.18-1.55,4.8-9.98"/>
        <path class="cls-2" d="M18.98,27.62s-.64,5.52,8.41,6.19"/>
        <line class="cls-2" x1="24.89" y1="25.49" x2="28.47" y2="26.3"/>
        <polyline class="cls-2" points="24.93 25.17 24.51 28.68 28.81 26.3"/>
        <path class="cls-2" d="M21.35,26.75l-1.72,4.09,4.88-1.87-2.04,3.96,6.18-3.18c-5.78-.06-5.75-3.74-5.75-3.74"/>
        <polyline class="cls-2" points="15.34 31.44 19.63 30.83 16.9 34.19 22.47 32.92 20.18 35.79 27.03 33.89"/>
      </g>
      <path class="cls-2" d="M33.46,19.75c-7.18.9-11.46,2.58-11.46,2.58"/>
      <path class="cls-2" d="M33.67,19.91s-.66.63-1.92,3.13"/>
    </g>
  </g>
</svg>