<?xml version="1.0" encoding="UTF-8"?>
<svg id="Software_1" data-name="Software 1" xmlns="http://www.w3.org/2000/svg" viewBox="0 0 50 50">
  <defs>
    <style>
      .cls-1 {
        opacity: 0;
      }

      .cls-1, .cls-2, .cls-3 {
        stroke-width: 0px;
      }

      .cls-1, .cls-3 {
        fill: #fff;
      }

      .cls-2 {
        fill: #00d15f;
      }
    </style>
  </defs>
  <g id="Microsoft_Azure" data-name="Microsoft Azure">
    <rect id="BG" class="cls-1" width="50" height="50"/>
    <path class="cls-2" d="M33.19,8H10c-1.1,0-2,.9-2,2v30c0,1.1.9,2,2,2h30c1.1,0,2-.9,2-2v-23.19c0-.53-.21-1.04-.59-1.41l-6.81-6.81c-.38-.38-.88-.59-1.41-.59Z"/>
    <g>
      <path class="cls-3" d="M26.84,34.05c-.17,0-.33-.06-.45-.17l-6.17-5.59c-.03-.15.03-.2.1-.2h5.63l1.75,5.15c.06.16.04.32-.03.47-.08.15-.21.27-.38.32-.07.03-.13.04-.19.04h-.27Z"/>
      <path class="cls-3" d="M29.12,34s.01-.02.02-.03c.15-.3.16-.64.05-.95l-5.89-16.86c-.03-.08-.06-.15-.1-.22h5.63c.33,0,.58.17.66.42l5.95,16.81s0,.08-.01.14c0,.4-.3.67-.65.67h-5.65Z"/>
      <path class="cls-3" d="M15.22,34.05c-.36,0-.65-.28-.65-.62-.02-.12-.02-.17,0-.23l5.94-16.83c.09-.26.34-.43.62-.43.36,0,.6.17.69.43l2.4,6.93-1.15,3.24h-2.91c-.45.02-.86.21-1.15.54-.28.31-.43.72-.41,1.14,0,.45.2.9.56,1.21l2.19,1.99-.77,2.21c-.09.26-.34.43-.62.43h-4.75Z"/>
    </g>
  </g>
</svg>