<?xml version="1.0" encoding="UTF-8"?>
<svg id="Storage_2" data-name="Storage 2" xmlns="http://www.w3.org/2000/svg" viewBox="0 0 50 50">
  <defs>
    <style>
      .cls-1 {
        opacity: 0;
      }

      .cls-1, .cls-2, .cls-3 {
        stroke-width: 0px;
      }

      .cls-1, .cls-3 {
        fill: #fff;
      }

      .cls-2 {
        fill: #00d15f;
      }
    </style>
  </defs>
  <g id="Azure_Blob" data-name="Azure Blob">
    <rect id="BG" class="cls-1" width="50" height="50"/>
    <rect class="cls-2" x="8" y="8" width="34" height="34" rx="2" ry="2"/>
    <g>
      <path class="cls-3" d="M28.33,17.5h-8.63c-.39,0-.7.31-.7.7v14.1c0,.39.31.7.7.7h10.6c.39,0,.7-.31.7-.7v-12.13c0-.19-.07-.36-.21-.49l-1.97-1.97c-.13-.13-.31-.21-.49-.21Z"/>
      <path class="cls-2" d="M30.12,20.5h-1.92c-.11,0-.2-.09-.2-.2v-1.92c0-.15.19-.23.29-.12l1.94,1.94c.11.11.03.29-.12.29Z"/>
    </g>
    <path class="cls-3" d="M30.69,13.5c.71,0,1.37.38,1.73,1l5.73,9.92c.36.62.36,1.38,0,2l-5.73,9.92c-.36.62-1.02,1-1.73,1h-11.46c-.71,0-1.37-.38-1.73-1l-5.73-9.92c-.36-.62-.36-1.38,0-2l5.73-9.92c.36-.62,1.02-1,1.73-1h11.46M30.69,12h-11.46c-1.25,0-2.41.67-3.03,1.75l-5.73,9.92c-.62,1.08-.62,2.42,0,3.5l5.73,9.92c.62,1.08,1.78,1.75,3.03,1.75h11.46c1.25,0,2.41-.67,3.03-1.75l5.73-9.92c.62-1.08.62-2.42,0-3.5l-5.73-9.92c-.62-1.08-1.78-1.75-3.03-1.75h0Z"/>
    <g>
      <path class="cls-2" d="M22.47,22.13l.6-.33v2.45h-.8c-.07,0-.07.07-.07.07v.4l.07.07h2.19c.07,0,.07-.07.07-.07v-.4l-.07-.07h-.66v-3.18h-.73l-.8.53-.07.05v.48"/>
      <path class="cls-2" d="M25.49,27.06l.6-.33v2.45h-.8c-.07,0-.07.07-.07.07v.4l.07.07h2.19c.07,0,.07-.07.07-.07v-.4l-.07-.07h-.66v-3.18h-.73l-.8.53-.07.07v.46"/>
      <path class="cls-2" d="M26.28,21c-.7,0-1.27.57-1.27,1.27v1.3c0,.7.57,1.27,1.27,1.27s1.27-.57,1.27-1.27v-1.3c0-.7-.57-1.27-1.27-1.27ZM26.91,23.51c0,.35-.28.63-.63.63s-.63-.28-.63-.63v-1.17c0-.35.28-.63.63-.63s.63.28.63.63v1.17Z"/>
      <path class="cls-2" d="M23.27,26.02c-.7,0-1.27.57-1.27,1.27v1.3c0,.7.57,1.27,1.27,1.27s1.27-.57,1.27-1.27v-1.3c0-.7-.57-1.27-1.27-1.27ZM23.9,28.57c0,.35-.28.63-.63.63s-.63-.28-.63-.63v-1.17c0-.35.28-.63.63-.63s.63.28.63.63v1.17Z"/>
    </g>
  </g>
</svg>