<?xml version="1.0" encoding="UTF-8"?>
<svg id="VMs" xmlns="http://www.w3.org/2000/svg" viewBox="0 0 50 50">
  <defs>
    <style>
      .cls-1 {
        fill: #505861;
      }

      .cls-1, .cls-2, .cls-3 {
        stroke-width: 0px;
      }

      .cls-2 {
        opacity: 0;
      }

      .cls-2, .cls-3 {
        fill: #fff;
      }
    </style>
  </defs>
  <g id="_multiple_VMs" data-name=" multiple VMs">
    <rect id="BG" class="cls-2" width="50" height="50"/>
    <path class="cls-1" d="M32.13,10H12c-1.1,0-2,.9-2,2v26c0,1.1.9,2,2,2h26c1.1,0,2-.9,2-2v-20.13c0-.53-.21-1.04-.59-1.41l-5.87-5.87c-.38-.38-.88-.59-1.41-.59Z"/>
    <g>
      <g>
        <rect class="cls-1" x="19.75" y="15.75" width="10.5" height="10.5" rx=".25" ry=".25"/>
        <path class="cls-3" d="M29.5,16.5v9h-9v-9h9M30,15h-10c-.55,0-1,.45-1,1v10c0,.55.45,1,1,1h10c.55,0,1-.45,1-1v-10c0-.55-.45-1-1-1h0Z"/>
      </g>
      <g>
        <rect class="cls-1" x="15.75" y="23.75" width="10.5" height="10.5" rx=".25" ry=".25"/>
        <path class="cls-3" d="M25.5,24.5v9h-9v-9h9M26,23h-10c-.55,0-1,.45-1,1v10c0,.55.45,1,1,1h10c.55,0,1-.45,1-1v-10c0-.55-.45-1-1-1h0Z"/>
      </g>
      <g>
        <rect class="cls-1" x="23.75" y="20.25" width="10.5" height="10.5" rx=".25" ry=".25"/>
        <path class="cls-3" d="M33.5,21v9h-9v-9h9M34,19.5h-10c-.55,0-1,.45-1,1v10c0,.55.45,1,1,1h10c.55,0,1-.45,1-1v-10c0-.55-.45-1-1-1h0Z"/>
      </g>
    </g>
  </g>
</svg>