<?xml version="1.0" encoding="UTF-8"?>
<svg id="Software_3" data-name="Software 3" xmlns="http://www.w3.org/2000/svg" viewBox="0 0 50 50">
  <defs>
    <style>
      .cls-1 {
        fill: #00cf5f;
      }

      .cls-1, .cls-2, .cls-3, .cls-4 {
        stroke-width: 0px;
      }

      .cls-5 {
        fill: none;
        stroke: #fff;
        stroke-linecap: round;
        stroke-linejoin: round;
      }

      .cls-2 {
        opacity: 0;
      }

      .cls-2, .cls-3, .cls-4 {
        fill: #fff;
      }

      .cls-3 {
        fill-rule: evenodd;
      }
    </style>
  </defs>
  <g id="MySQL">
    <rect id="BG" class="cls-2" width="50" height="50"/>
    <path class="cls-1" d="M33.19,8H10c-1.1,0-2,.9-2,2v30c0,1.1.9,2,2,2h30c1.1,0,2-.9,2-2v-23.19c0-.53-.21-1.04-.59-1.41l-6.81-6.81c-.38-.38-.88-.59-1.41-.59Z"/>
    <g>
      <g>
        <path class="cls-5" d="M25.23,29.37c-.14.09-2.61-1.49-4.1-5.88,0,0-.31,2.9-.51,3.36-.16.36-.65,1.21-1.77-1.07,0,0-1.21-2.43.33-5.78,0,0-1.07-.98-1.91-4.1,0,0-.75-1.49-1.91-2.85,0,0-.7-1.63,1.21-1.45,0,0,1.21.14,2.75,1.45,0,0,3.5.05,6.25,2.89,0,0,2.85,2.85,4.15,6.58,0,0,.84,2.24,1.59,2.8,0,0,3.86,1.35,5.41,3.54,0,0-3.13.61-3.82.52,0,0,.47,1.4,2.33,2.1,0,0,1.99,1.03,2.52,2.05"/>
        <path class="cls-4" d="M20.33,16.49c-.11-.51-.89-1.4-.89-1.4,0,0,.61-.33,1.07.28,0,0,.33.38.02.92l-.21.2Z"/>
      </g>
      <g>
        <path class="cls-3" d="M10.49,37.08h.96v-3.8l1.5,3.31c.17.4.41.55.89.55s.7-.15.88-.55l1.49-3.31v3.8h.97v-3.8c0-.37-.15-.55-.46-.64-.73-.22-1.22-.03-1.44.47l-1.47,3.28-1.42-3.28c-.21-.49-.71-.69-1.45-.47-.3.1-.45.27-.45.64v3.8h0Z"/>
        <path class="cls-3" d="M17.97,33.98h.97v2.09c0,.12.04.38.56.39.27,0,2.08,0,2.1,0v-2.5h.97v3.42c0,.84-1.04,1.03-1.53,1.03h-3.04v-.64h3.05c.62-.07.55-.38.55-.48v-.25h-2.04c-.95,0-1.57-.43-1.57-.91,0-.04.02-2.14,0-2.16h0Z"/>
        <path class="cls-3" d="M23.3,37.08h2.78c.32,0,.64-.07.89-.18.42-.19.62-.45.62-.79v-.71c0-.27-.23-.53-.69-.71-.24-.09-.53-.14-.82-.14h-1.17c-.39,0-.58-.12-.63-.38,0-.03,0-.06,0-.09v-.44s0-.05,0-.08c.05-.2.16-.25.49-.29h2.84v-.64h-2.7c-.39,0-.6.02-.78.08-.57.18-.82.46-.82.95v.56c0,.44.49.8,1.31.89.09,0,.18,0,.28,0h1s.07,0,.1,0c.3.03.44.08.52.19.06.06.07.11.07.18v.56c0,.07-.04.16-.13.23-.09.07-.23.13-.41.13-.04,0-.06,0-.1,0h-2.66v.64h0ZM33.59,35.96c0,.66.49,1.03,1.48,1.1.1,0,.18.01.28.01h2.51v-.64h-2.53c-.56,0-.78-.14-.78-.48v-3.32h-.97v3.33h0,0ZM28.19,35.99v-2.29c0-.58.41-.94,1.22-1.05.09,0,.18-.01.26-.01h1.83c.1,0,.18,0,.27.01.8.11,1.21.47,1.21,1.05v2.29c0,.47-.17.72-.57.89l.94.86h-1.11l-.77-.69-.78.04h-1.03c-.17,0-.36-.02-.56-.07-.61-.17-.92-.49-.92-1.03h0ZM29.23,35.94s.01.06.02.1c.05.27.3.41.69.41h.87l-.8-.72h1.11l.7.64c.13-.07.21-.18.24-.31,0-.03,0-.07,0-.1v-2.19s0-.06,0-.09c-.05-.25-.3-.39-.68-.39h-1.45c-.43,0-.71.18-.71.48v2.18h0ZM38.31,37.08h.14v-.54h.18v-.11h-.52v.11h.19v.54h0ZM39.38,37.08h.13v-.65h-.2l-.16.44-.18-.44h-.19v.65h.13v-.49h0l.18.49h.1l.18-.49v.49h0,0Z"/>
      </g>
    </g>
  </g>
</svg>