<?xml version="1.0" encoding="UTF-8"?>
<svg id="Veeam_features" data-name="Veeam features" xmlns="http://www.w3.org/2000/svg" viewBox="0 0 50 50">
  <defs>
    <style>
      .cls-1 {
        opacity: 0;
      }

      .cls-1, .cls-2, .cls-3 {
        stroke-width: 0px;
      }

      .cls-1, .cls-3 {
        fill: #fff;
      }

      .cls-2 {
        fill: #00d15f;
      }
    </style>
  </defs>
  <g id="NAS_Backup" data-name="NAS Backup">
    <rect id="BG" class="cls-1" width="50" height="50"/>
    <rect class="cls-2" x="8" y="8" width="34" height="34" rx="2" ry="2"/>
    <path class="cls-3" d="M36,14.5v22h-15V14.5h15M36,13h-15c-.83,0-1.5.67-1.5,1.5v22c0,.83.67,1.5,1.5,1.5h15c.83,0,1.5-.67,1.5-1.5V14.5c0-.83-.67-1.5-1.5-1.5h0Z"/>
    <rect class="cls-3" x="31.5" y="17" width="2" height="2" rx="1" ry="1" transform="translate(14.5 50.5) rotate(-90)"/>
    <rect class="cls-3" x="23.5" y="17" width="2" height="2" rx="1" ry="1"/>
    <rect class="cls-3" x="32" y="23" width="1" height="11"/>
    <rect class="cls-3" x="28" y="14.29" width="1" height="22.71"/>
    <rect class="cls-3" x="24" y="23" width="1" height="11"/>
    <path class="cls-3" d="M13.5,38h7.5V13h-7.5c-.83,0-1.5.67-1.5,1.5v22c0,.83.67,1.5,1.5,1.5Z"/>
    <rect class="cls-2" x="15" y="17" width="3" height="3" rx="1.5" ry="1.5"/>
  </g>
</svg>