<?xml version="1.0" encoding="UTF-8"?>
<svg id="Storage" xmlns="http://www.w3.org/2000/svg" viewBox="0 0 50 50">
  <defs>
    <style>
      .cls-1 {
        opacity: 0;
      }

      .cls-1, .cls-2 {
        fill: #fff;
      }

      .cls-1, .cls-2, .cls-3 {
        stroke-width: 0px;
      }

      .cls-3 {
        fill: #505861;
      }
    </style>
  </defs>
  <g id="NAS">
    <rect id="BG" class="cls-1" x="0" width="50" height="50"/>
    <rect class="cls-3" x="10.5" y="10.5" width="29" height="29" rx="2" ry="2"/>
    <g>
      <path class="cls-2" d="M34,16v18.5h-12v-18.5h12M34.5,14.5h-13c-.55,0-1,.45-1,1v19.5c0,.55.45,1,1,1h13c.55,0,1-.45,1-1V15.5c0-.55-.45-1-1-1h0Z"/>
      <rect class="cls-2" x="30.5" y="18" width="1.5" height="1.5" rx=".75" ry=".75"/>
      <rect class="cls-2" x="24" y="18" width="1.5" height="1.5" rx=".75" ry=".75"/>
      <rect class="cls-2" x="15" y="17.25" width="3" height="3" rx="1.5" ry="1.5"/>
      <rect class="cls-2" x="30.5" y="25" width="1.5" height="8"/>
      <rect class="cls-2" x="27.5" y="15.5" width="1" height="19.5"/>
      <rect class="cls-2" x="24" y="25" width="1.5" height="8"/>
    </g>
  </g>
</svg>