<?xml version="1.0" encoding="UTF-8"?>
<svg id="Software_1" data-name="Software 1" xmlns="http://www.w3.org/2000/svg" viewBox="0 0 50 50">
  <defs>
    <style>
      .cls-1 {
        opacity: 0;
      }

      .cls-1, .cls-2, .cls-3 {
        stroke-width: 0px;
      }

      .cls-1, .cls-3 {
        fill: #fff;
      }

      .cls-2 {
        fill: #00d15f;
      }
    </style>
  </defs>
  <g id="Nutanix">
    <rect id="BG" class="cls-1" width="50" height="50"/>
    <path class="cls-2" d="M33.19,8H10c-1.1,0-2,.9-2,2v30c0,1.1.9,2,2,2h30c1.1,0,2-.9,2-2v-23.19c0-.53-.21-1.04-.59-1.41l-6.81-6.81c-.38-.38-.88-.59-1.41-.59Z"/>
    <g>
      <path class="cls-3" d="M15.88,33.04c-.71,0-1.41,0-2.12,0-.22,0-.47,0-.55-.25-.09-.27.08-.44.28-.6.84-.69,1.67-1.39,2.5-2.08,1.07-.9,2.14-1.79,3.21-2.69.82-.69,1.64-1.39,2.46-2.08.26-.22.26-.48,0-.7-1.89-1.52-3.69-3.15-5.55-4.71-.9-.75-1.79-1.5-2.68-2.25-.15-.13-.27-.27-.21-.48.07-.21.25-.25.45-.25,1.42,0,2.85,0,4.27,0,.29,0,.45.2.63.36,1.07.89,2.13,1.8,3.2,2.7,1.12.94,2.22,1.88,3.34,2.81.67.56,1.33,1.14,2.02,1.68.1.08.18.17.27.26.18.19.17.37-.03.53-.72.61-1.43,1.22-2.15,1.83-.97.83-1.93,1.65-2.9,2.48-.86.74-1.74,1.47-2.58,2.23-.39.35-.8.67-1.2,1.01-.18.16-.37.2-.6.2-.69,0-1.37,0-2.06,0Z"/>
      <path class="cls-3" d="M34.15,16.92c.7,0,1.39,0,2.09,0,.21,0,.4.03.48.26.07.21-.04.36-.2.48-.94.77-1.86,1.57-2.81,2.33-1.14.91-2.26,1.86-3.36,2.82-.35.3-.73.55-1.07.86-.21.19-.47.16-.65-.03-.56-.58-1.22-1.05-1.82-1.6-.05-.04-.1-.08-.14-.12-.36-.33-.36-.52.02-.83,1.63-1.33,3.27-2.66,4.89-4,.15-.13.31-.18.51-.18.69,0,1.37,0,2.06,0h0Z"/>
      <path class="cls-3" d="M34.21,33.06c-.51,0-1.02-.04-1.52.01-.6.07-1.05-.17-1.48-.54-1.4-1.19-2.8-2.37-4.22-3.54-.55-.45-.68-.66.03-1.24.52-.43,1.03-.88,1.54-1.33.26-.23.49-.25.76-.03,2.43,1.97,4.85,3.95,7.28,5.92.17.14.27.3.19.51-.08.21-.27.23-.47.23-.71,0-1.41,0-2.12,0Z"/>
    </g>
  </g>
</svg>