<?xml version="1.0" encoding="UTF-8"?>
<svg id="Veeam_product_4" data-name="Veeam product 4" xmlns="http://www.w3.org/2000/svg" viewBox="0 0 50 50">
  <defs>
    <style>
      .cls-1 {
        fill: none;
        stroke: #fff;
        stroke-miterlimit: 10;
      }

      .cls-2 {
        fill: #505861;
      }

      .cls-2, .cls-3, .cls-4 {
        stroke-width: 0px;
      }

      .cls-3 {
        opacity: 0;
      }

      .cls-3, .cls-4 {
        fill: #fff;
      }
    </style>
  </defs>
  <g id="Nutanix_Proxy" data-name="Nutanix Proxy">
    <rect id="BG" class="cls-3" width="50" height="50"/>
    <path class="cls-2" d="M32.13,10H12c-1.1,0-2,.9-2,2v26c0,1.1.9,2,2,2h26c1.1,0,2-.9,2-2v-20.13c0-.53-.21-1.04-.59-1.41l-5.87-5.87c-.38-.38-.88-.59-1.41-.59Z"/>
    <g>
      <g>
        <polygon class="cls-4" points="13.2 23.29 17.8 19.83 12.5 17.57 13.2 23.29"/>
        <path class="cls-1" d="M14.45,19.76c2.15-4.38,6.86-6.94,11.72-6.36s8.77,4.22,9.86,8.8"/>
      </g>
      <g>
        <polygon class="cls-4" points="36.3 27.21 31.7 30.67 37 32.93 36.3 27.21"/>
        <path class="cls-1" d="M35.05,30.74c-2.15,4.38-6.86,6.94-11.72,6.36s-8.77-4.22-9.86-8.8"/>
      </g>
    </g>
    <g>
      <path class="cls-4" d="M21.71,28.74c.11,0,.2-.02.28-.09.18-.16.38-.31.56-.47.39-.36.8-.7,1.2-1.04.45-.38.9-.77,1.35-1.15l1-.85c.09-.08.1-.16.01-.25-.04-.04-.08-.08-.13-.12-.32-.25-.63-.52-.94-.78-.52-.43-1.03-.87-1.55-1.31-.5-.42-.99-.84-1.49-1.26-.08-.07-.16-.17-.29-.17-.66,0-1.32,0-1.99,0-.09,0-.18.02-.21.11-.03.1.03.16.1.22.42.35.83.7,1.25,1.05.87.72,1.7,1.48,2.58,2.19.13.1.13.22,0,.33-.38.32-.76.65-1.15.97-.5.42-.99.84-1.49,1.25-.39.32-.77.65-1.16.97-.09.07-.17.16-.13.28.04.12.16.11.26.12h1.94Z"/>
      <path class="cls-4" d="M29.26,21.24c.32,0,.65,0,.97,0,.1,0,.19.02.22.12.03.1-.02.17-.09.22-.44.36-.87.73-1.31,1.08-.53.43-1.05.87-1.57,1.31-.16.14-.34.26-.5.4-.1.09-.22.07-.3-.01-.26-.27-.57-.49-.85-.74-.02-.02-.04-.04-.07-.06-.17-.15-.17-.24,0-.38.76-.62,1.52-1.24,2.28-1.86.07-.06.15-.08.24-.08.32,0,.64,0,.96,0h0Z"/>
      <path class="cls-4" d="M28.58,28.76c-.28,0-.49-.08-.69-.25-.65-.55-1.3-1.1-1.96-1.65-.26-.21-.32-.31.02-.58.24-.2.48-.41.71-.62.12-.11.23-.12.35-.01,1.13.92,2.26,1.84,3.39,2.76.08.06.13.14.09.24-.04.1-.12.11-.22.11h-1.69"/>
    </g>
  </g>
</svg>