<?xml version="1.0" encoding="UTF-8"?>
<svg id="Storage" xmlns="http://www.w3.org/2000/svg" viewBox="0 0 50 50">
  <defs>
    <style>
      .cls-1 {
        opacity: 0;
      }

      .cls-1, .cls-2 {
        fill: #fff;
      }

      .cls-1, .cls-2, .cls-3 {
        stroke-width: 0px;
      }

      .cls-3 {
        fill: #505861;
      }
    </style>
  </defs>
  <g id="Object_storage" data-name="Object storage">
    <rect id="BG" class="cls-1" x="0" width="50" height="50"/>
    <rect class="cls-3" x="10.5" y="10.5" width="29" height="29" rx="2" ry="2"/>
    <g>
      <circle class="cls-2" cx="24.64" cy="22.05" r="2.05"/>
      <path class="cls-2" d="M18.35,26l.22,3c.03.43.52.67.88.42l2.48-1.69c.36-.24.32-.79-.07-.97l-2.71-1.31c-.39-.19-.84.12-.81.55Z"/>
      <rect class="cls-2" x="26.85" y="26.09" width="3.56" height="3.56" rx=".5" ry=".5" transform="translate(-7.51 10.84) rotate(-18.99)"/>
    </g>
    <path class="cls-2" d="M23.56,18c2.27,0,4.2,1.34,4.93,3.21.24.61.83,1.04,1.53,1.04h.05c2.89,0,5.37,2.1,5.42,4.78.05,2.73-2.32,4.97-5.25,4.97h-10.35c-2.81,0-5.24-2-5.39-4.61-.12-2.08,1.16-3.89,3.05-4.69.44-.19.79-.55.91-.99.56-2.13,2.63-3.71,5.1-3.71M23.56,16.5c-3.1,0-5.78,1.98-6.54,4.81,0,0,0,0,0,0,0,0-.02.01-.05.02-2.56,1.09-4.11,3.51-3.96,6.16.19,3.38,3.22,6.02,6.89,6.02h10.35c1.88,0,3.68-.75,4.96-2.04,1.19-1.21,1.83-2.79,1.79-4.45-.07-3.45-3.17-6.25-6.92-6.25-.15,0-.18-.07-.18-.08-.97-2.49-3.52-4.17-6.33-4.17h0Z"/>
  </g>
</svg>