<?xml version="1.0" encoding="UTF-8"?>
<svg id="Software_3" data-name="Software 3" xmlns="http://www.w3.org/2000/svg" viewBox="0 0 50 50">
  <defs>
    <style>
      .cls-1 {
        fill: #00cf5f;
      }

      .cls-1, .cls-2, .cls-3 {
        stroke-width: 0px;
      }

      .cls-2 {
        opacity: 0;
      }

      .cls-2, .cls-3 {
        fill: #fff;
      }
    </style>
  </defs>
  <g id="OpenShift">
    <rect id="BG" class="cls-2" width="50" height="50"/>
    <path class="cls-1" d="M33.19,8H10c-1.1,0-2,.9-2,2v30c0,1.1.9,2,2,2h30c1.1,0,2-.9,2-2v-23.19c0-.53-.21-1.04-.59-1.41l-6.81-6.81c-.38-.38-.88-.59-1.41-.59Z"/>
    <g>
      <path id="path44560" class="cls-3" d="M36.31,19.91c-.25-.52-.55-1.03-.89-1.5l-3.63,1.32c.42.43.78.92,1.07,1.44l3.45-1.26ZM20.26,23.93l-3.63,1.32c.05.58.15,1.16.29,1.72l3.45-1.26c-.11-.58-.15-1.18-.11-1.79"/>
      <path id="path44564" class="cls-3" d="M28.32,18.89c.76.35,1.41.83,1.96,1.4l3.63-1.32c-1.01-1.41-2.38-2.59-4.05-3.37-5.19-2.42-11.38-.17-13.8,5.02-.78,1.68-1.07,3.46-.94,5.19l3.63-1.32c.06-.79.25-1.58.6-2.33,1.57-3.37,5.59-4.83,8.97-3.26"/>
      <path id="path44572" class="cls-3" d="M32.19,25.52c-.06.79-.26,1.57-.61,2.33-1.57,3.37-5.59,4.84-8.97,3.26-.76-.35-1.42-.83-1.97-1.39l-3.62,1.32c1,1.41,2.37,2.59,4.05,3.37,5.19,2.42,11.38.17,13.8-5.02.78-1.68,1.07-3.46.93-5.19l-3.62,1.32h0Z"/>
      <path id="path44576" class="cls-3" d="M33.08,21.09l-3.45,1.26c.64,1.15.94,2.47.84,3.8l3.62-1.32c-.1-1.3-.45-2.57-1.02-3.74M17.14,26.89l-3.45,1.26c.32,1.26.87,2.45,1.62,3.52l3.62-1.32c-.93-.95-1.55-2.16-1.8-3.45"/>
      <path id="path44584" class="cls-3" d="M35.78,18.96c-.11-.19-.23-.37-.36-.55l-3.63,1.32c.16.16.31.34.45.51l3.54-1.29ZM20.25,24.66c0-.24,0-.49.01-.73l-3.63,1.32c.02.23.05.46.08.69l3.53-1.29h0Z"/>
      <path id="path44588" class="cls-3" d="M35.81,24.2l-3.62,1.32c-.04.52-.14,1.04-.31,1.56l3.94-1.44c.03-.48.02-.96-.01-1.44M17.03,31.04c.28.39.59.77.92,1.12l3.94-1.44c-.46-.29-.88-.62-1.24-1l-3.62,1.32Z"/>
    </g>
  </g>
</svg>