<?xml version="1.0" encoding="UTF-8"?>
<svg id="Software_2" data-name="Software 2" xmlns="http://www.w3.org/2000/svg" viewBox="0 0 50 50">
  <defs>
    <style>
      .cls-1 {
        fill: #00cf5f;
      }

      .cls-1, .cls-2, .cls-3 {
        stroke-width: 0px;
      }

      .cls-2 {
        opacity: 0;
      }

      .cls-2, .cls-3 {
        fill: #fff;
      }
    </style>
  </defs>
  <g id="Oracle_RMAN" data-name="Oracle RMAN">
    <rect id="BG" class="cls-2" width="50" height="50"/>
    <path class="cls-1" d="M33.19,8H10c-1.1,0-2,.9-2,2v30c0,1.1.9,2,2,2h30c1.1,0,2-.9,2-2v-23.19c0-.53-.21-1.04-.59-1.41l-6.81-6.81c-.38-.38-.88-.59-1.41-.59Z"/>
    <g>
      <g>
        <path class="cls-3" d="M23.7,19.02c.11-.18.35-.25.54-.17.09.03.17.1.22.18.64,1.01,1.29,2.01,1.93,3.02-.24,0-.48,0-.72,0-.11-.19-.23-.38-.34-.56-.55,0-1.11,0-1.66,0-.12-.19-.24-.37-.36-.56.54,0,1.09,0,1.64,0-.29-.47-.58-.93-.86-1.39-.53.84-1.06,1.68-1.59,2.52-.24,0-.48,0-.72,0,.64-1.01,1.28-2.01,1.93-3.02h0Z"/>
        <path class="cls-3" d="M17.99,18.85c.8,0,1.59,0,2.39,0,.18,0,.36-.01.54.03.24.06.46.2.61.39.12.16.2.35.22.55.03.26-.04.52-.19.73-.18.27-.49.44-.82.46-.12,0-.23,0-.35,0,.41.35.82.69,1.23,1.04-.3,0-.59,0-.89,0-.61-.53-1.22-1.06-1.83-1.6.57,0,1.14,0,1.72,0,.11,0,.22-.03.31-.1.12-.09.2-.23.21-.38.01-.13-.03-.27-.12-.38-.09-.11-.24-.19-.39-.18-.68,0-1.35,0-2.03,0v2.63c-.2,0-.41,0-.61,0,0-1.06,0-2.13,0-3.19h0Z"/>
        <path class="cls-3" d="M26.79,19.12c.27-.18.6-.27.93-.27.72,0,1.44,0,2.15,0-.12.19-.24.38-.36.56-.6,0-1.2,0-1.8,0-.36,0-.72.2-.9.52-.13.22-.17.48-.12.73.07.37.37.68.73.78.17.05.34.04.52.04.66,0,1.32,0,1.98,0-.12.19-.24.38-.36.56-.55,0-1.1,0-1.66,0-.17,0-.34,0-.51-.02-.43-.07-.82-.34-1.06-.7-.23-.35-.31-.78-.23-1.19.08-.41.33-.79.68-1.02h0Z"/>
        <path class="cls-3" d="M30.2,18.85c.21,0,.41,0,.61,0,0,.88,0,1.75,0,2.63.95,0,1.9,0,2.86,0-.12.19-.24.38-.36.56-.93,0-1.86,0-2.79,0-.12,0-.24-.07-.29-.18-.03-.06-.03-.12-.03-.18,0-.94,0-1.89,0-2.83h0Z"/>
        <path class="cls-3" d="M34.45,19.01c.15-.07.32-.12.49-.14.12-.02.24-.01.36-.01.68,0,1.36,0,2.04,0-.08.13-.17.26-.25.39-.04.06-.07.12-.12.17-.6,0-1.2,0-1.8,0-.22,0-.45.08-.62.22-.17.13-.3.32-.36.53.99,0,1.99,0,2.98,0-.12.19-.24.37-.36.56-.87,0-1.75,0-2.62,0,.06.21.19.4.36.54.18.14.41.22.64.22.73,0,1.47,0,2.21,0-.12.19-.24.38-.36.56h-1.64c-.18,0-.36,0-.53-.03-.45-.08-.85-.36-1.08-.75-.25-.4-.29-.92-.13-1.36.14-.39.44-.73.82-.9h0Z"/>
        <path class="cls-3" d="M14,18.87c.09-.01.19-.02.29-.02.6,0,1.19,0,1.79,0,.36,0,.72.13,1.01.36.3.24.5.6.56.98.06.37-.01.77-.21,1.09-.21.35-.57.62-.97.72-.14.04-.29.05-.44.05-.61,0-1.21,0-1.82,0-.37,0-.73-.14-1.01-.37-.32-.27-.53-.66-.56-1.08-.03-.37.07-.76.29-1.06.25-.36.65-.6,1.08-.66h0ZM14.1,19.43c-.33.05-.64.27-.78.58-.12.25-.13.55-.03.82.08.2.22.38.4.49.17.11.36.17.56.17.59,0,1.18,0,1.78,0,.22,0,.44-.07.62-.21.18-.13.31-.32.37-.54.06-.22.05-.45-.03-.66-.08-.2-.23-.38-.41-.5-.16-.1-.35-.16-.55-.16h-1.77c-.05,0-.1,0-.15.01h0Z"/>
      </g>
      <g>
        <path class="cls-3" d="M12.72,26.84h1.96c1.35,0,2.05.57,2.05,1.72,0,.83-.41,1.27-1.07,1.52v.04l1.47,2.6h-1.14l-1.32-2.39h-.92v2.39h-1.04v-5.88ZM14.57,29.62c.78,0,1.09-.33,1.09-1.02s-.32-.96-1.1-.96h-.81v1.98h.82Z"/>
        <path class="cls-3" d="M18.65,26.84h1.46l1.45,4.47h.02l1.45-4.47h1.44v5.88h-1.03v-4.59h-.03l-1.49,4.59h-.86l-1.49-4.6h-.03v4.6h-.91v-5.88Z"/>
        <path class="cls-3" d="M28.08,26.84h1.06l2.1,5.88h-1.07l-.54-1.51h-2.19l-.53,1.51h-.95l2.11-5.88ZM27.69,30.44h1.67l-.83-2.37h-.03l-.82,2.37Z"/>
        <path class="cls-3" d="M32.71,26.84h1.17l2.46,4.19h.03v-4.19h.92v5.88h-1.03l-2.61-4.47h-.03v4.47h-.92v-5.88Z"/>
      </g>
    </g>
  </g>
</svg>