<?xml version="1.0" encoding="UTF-8"?>
<svg id="Software_3" data-name="Software 3" xmlns="http://www.w3.org/2000/svg" viewBox="0 0 50 50">
  <defs>
    <style>
      .cls-1 {
        fill: #00cf5f;
      }

      .cls-1, .cls-2, .cls-3 {
        stroke-width: 0px;
      }

      .cls-2 {
        opacity: 0;
      }

      .cls-2, .cls-3 {
        fill: #fff;
      }
    </style>
  </defs>
  <g id="Oracle">
    <rect id="BG" class="cls-2" width="50" height="50"/>
    <path class="cls-1" d="M33.19,8H10c-1.1,0-2,.9-2,2v30c0,1.1.9,2,2,2h30c1.1,0,2-.9,2-2v-23.19c0-.53-.21-1.04-.59-1.41l-6.81-6.81c-.38-.38-.88-.59-1.41-.59Z"/>
    <g>
      <path class="cls-3" d="M19.65,29.4c-3.74-.31-6.65-3.63-6.65-7.4,0-3.75,2.9-7.01,6.59-7.42.43-.05.87-.07,1.31-.07,2.82,0,5.63,0,8.45,0,4.06,0,7.26,2.96,7.62,7.03.32,3.67-2.41,7.13-6.21,7.84-.44.08-.9.12-1.36.12-1.47.01-2.94,0-4.41,0l-5.35-.1ZM24.95,26.87c1.4,0,2.8,0,4.2,0,2.79,0,4.95-2.1,5-4.81.05-2.66-2.08-4.87-4.83-4.92-2.88-.05-5.77-.05-8.66,0-2.74.05-4.87,2.28-4.82,4.94.06,2.69,2.21,4.78,4.96,4.8,1.38,0,2.76,0,4.14,0"/>
      <path class="cls-3" d="M24,32.63c.11-.17.33-.23.52-.17.09.03.16.09.21.17.61.95,1.22,1.91,1.83,2.86-.23,0-.46,0-.69,0-.11-.18-.21-.36-.32-.54-.52,0-1.05,0-1.57,0-.11-.18-.23-.35-.34-.53.52,0,1.04,0,1.55,0-.27-.44-.55-.88-.82-1.32-.5.8-1.01,1.6-1.51,2.39-.23,0-.46,0-.68,0,.61-.96,1.22-1.91,1.83-2.87"/>
      <path class="cls-3" d="M18.58,32.47h2.27c.17,0,.34-.01.51.03.23.05.44.19.58.37.11.15.19.33.21.52.03.24-.04.5-.18.7-.17.25-.47.42-.77.43-.11,0-.22,0-.33,0,.39.33.78.66,1.17.98-.28,0-.56,0-.85,0-.58-.51-1.16-1.01-1.74-1.52.54,0,1.09,0,1.63,0,.1,0,.21-.03.29-.09.12-.08.19-.22.2-.36.01-.13-.03-.26-.11-.36-.09-.11-.23-.18-.37-.18-.64,0-1.29,0-1.93,0v2.5h-.58v-3.03"/>
      <path class="cls-3" d="M26.94,32.72c.26-.17.57-.26.88-.25h2.05c-.11.18-.23.36-.34.54-.57,0-1.14,0-1.7,0-.35,0-.68.19-.85.49-.12.21-.16.46-.11.69.07.35.35.65.69.74.16.05.33.04.49.04.63,0,1.25,0,1.88,0-.11.18-.23.36-.34.54h-1.57c-.16,0-.32,0-.48-.02-.41-.07-.78-.32-1.01-.67-.22-.33-.29-.74-.21-1.13.08-.39.32-.75.65-.97"/>
      <path class="cls-3" d="M30.18,32.47h.58v2.5c.9,0,1.81,0,2.71,0-.11.18-.23.36-.34.54h-2.65c-.11,0-.23-.07-.28-.17-.03-.05-.03-.11-.03-.17v-2.69"/>
      <path class="cls-3" d="M34.21,32.61c.15-.07.3-.11.46-.14.11-.01.23-.01.34-.01h1.94c-.08.13-.16.25-.24.37-.04.05-.07.11-.11.17-.57,0-1.14,0-1.71,0-.21,0-.42.07-.59.21-.16.13-.29.31-.34.51h2.83c-.11.18-.23.35-.34.53-.83,0-1.66,0-2.49,0,.06.2.18.38.34.51.17.13.39.21.6.2.7,0,1.4,0,2.09,0-.11.18-.23.36-.34.54h-1.56c-.17,0-.34,0-.51-.03-.42-.07-.81-.34-1.03-.71-.23-.38-.28-.87-.13-1.29.13-.37.42-.69.78-.86"/>
      <path class="cls-3" d="M14.79,32.48c.09-.01.18-.02.27-.02h1.7c.34,0,.69.12.95.34.28.23.48.57.54.93.06.35-.01.73-.2,1.04-.2.33-.54.59-.92.68-.14.03-.28.05-.42.05-.57,0-1.15,0-1.72,0-.35,0-.7-.13-.96-.36-.3-.25-.5-.63-.53-1.03-.03-.35.07-.72.27-1.01.24-.34.62-.58,1.03-.63M14.89,33.01c-.32.05-.6.26-.74.55-.11.24-.13.53-.03.78.07.19.21.36.38.47.16.1.35.16.54.16h1.69c.21,0,.42-.07.58-.2.17-.13.3-.31.35-.51.06-.21.05-.43-.03-.63-.08-.19-.21-.36-.39-.47-.15-.1-.34-.15-.52-.15h-1.68s-.1,0-.15.01"/>
    </g>
  </g>
</svg>