<?xml version="1.0" encoding="UTF-8"?>
<svg id="Software_3" data-name="Software 3" xmlns="http://www.w3.org/2000/svg" viewBox="0 0 50 50">
  <defs>
    <style>
      .cls-1 {
        fill: #00cf5f;
      }

      .cls-1, .cls-2, .cls-3 {
        stroke-width: 0px;
      }

      .cls-2 {
        opacity: 0;
      }

      .cls-2, .cls-3 {
        fill: #fff;
      }
    </style>
  </defs>
  <g id="OV">
    <rect id="BG" class="cls-2" width="50" height="50"/>
    <path class="cls-1" d="M33.19,8H10c-1.1,0-2,.9-2,2v30c0,1.1.9,2,2,2h30c1.1,0,2-.9,2-2v-23.19c0-.53-.21-1.04-.59-1.41l-6.81-6.81c-.38-.38-.88-.59-1.41-.59Z"/>
    <g>
      <path class="cls-3" d="M11.65,27.41c-.03-2.32,1.72-4.59,4.5-5.28,2.42-.6,4.59-.12,6.39,1.49,1.3,1.16,1.88,2.61,1.72,4.26-.18,1.83-1.19,3.23-2.91,4.2-2.83,1.6-6.62.92-8.57-1.5-.67-.83-1.15-1.96-1.13-3.17ZM21.92,27.21c-.03-.21-.06-.64-.16-1.05-.23-1-.73-1.87-1.58-2.56-1.27-1.02-3.01-1.05-4.33-.07-.4.29-.73.64-.99,1.04-.91,1.42-1.08,2.93-.59,4.49.27.88.77,1.64,1.55,2.23,1.32,1,3.06.97,4.35-.06.33-.27.62-.57.85-.91.61-.89.87-1.87.89-3.12Z"/>
      <path class="cls-3" d="M21.66,17.07h3.42s.04.03.04.04c.08.61.4,1.15.64,1.7,1.6,3.7,3.21,7.39,4.82,11.08.02.06.05.11.07.17.04.1.12.14.24.14.12,0,.16-.07.2-.15.27-.58.53-1.16.8-1.74.67-1.45,1.36-2.89,2-4.35.6-1.37,1.14-2.77,1.7-4.15.32-.78.63-1.56.95-2.34.05-.13.09-.26.15-.43.53,0,1.09,0,1.64,0,0,.02.02.04.03.06-.09.08-.17.17-.27.24-.2.15-.34.33-.44.55-.94,1.83-1.8,3.7-2.63,5.57-1.3,2.96-2.57,5.92-3.85,8.88-.18.41-.1.36-.58.37-.32,0-.64,0-.96,0-.3,0-.3,0-.41-.25-.41-.99-.82-1.97-1.21-2.96-1.35-3.44-2.92-6.8-4.46-10.17-.18-.4-.37-.8-.54-1.2-.07-.18-.19-.3-.37-.4-.29-.16-.56-.34-.84-.51-.05-.03-.1-.07-.15-.11,0-.02.01-.03.02-.05Z"/>
    </g>
  </g>
</svg>