<?xml version="1.0" encoding="UTF-8"?>
<svg id="Software_3" data-name="Software 3" xmlns="http://www.w3.org/2000/svg" viewBox="0 0 50 50">
  <defs>
    <style>
      .cls-1 {
        fill: #00cf5f;
      }

      .cls-1, .cls-2, .cls-3 {
        stroke-width: 0px;
      }

      .cls-4 {
        fill: none;
        stroke: #fff;
        stroke-linecap: round;
        stroke-linejoin: round;
      }

      .cls-2 {
        opacity: 0;
      }

      .cls-2, .cls-3 {
        fill: #fff;
      }

      .cls-3 {
        fill-rule: evenodd;
      }
    </style>
  </defs>
  <g id="PostgreSQL">
    <rect id="BG" class="cls-2" width="50" height="50"/>
    <path class="cls-1" d="M33.19,8H10c-1.1,0-2,.9-2,2v30c0,1.1.9,2,2,2h30c1.1,0,2-.9,2-2v-23.19c0-.53-.21-1.04-.59-1.41l-6.81-6.81c-.38-.38-.88-.59-1.41-.59Z"/>
    <g>
      <g>
        <polygon class="cls-4" points="34.44 29.61 34.44 29.61 34.44 29.61 34.44 29.61 34.44 29.61"/>
        <path class="cls-4" d="M30.98,29.37,30.83,29.25c.08.07.64.42,1.36.46,1.3.06,2.11-.54,2.39-.23.35.38-.06,1.35-1.68,1.81-.36.18-2.3.5-2.85.17M22.28,16.4,22.28,16.4c-.68-.21-1.89-.57-3.17-.62-.12-.01-.27-.01-.42-.01-.14,0-.28,0-.42.01-1.1.06-2.15.36-2.89,1.1-.75.75-1.24,1.97-1.13,3.98.02.38.2,1.45.51,2.72.3,1.27.73,2.76,1.24,4.09.52,1.31,1.15,2.47,1.74,3.02.29.27.55.38.79.37.23-.01.52-.14.86-.52.51-.57,1.5-1.63,1.99-2.16"/>
        <path class="cls-4" d="M24.69,15.71h0c-1.22,0-2.09.38-2.75.94-.68.58-1.14,1.38-1.44,2.19-.36.97-.31,2.23-.31,2.23.51-.8,2.91-1.88,3.81,1.17.72,3.42-.23,4.7-.57,5.66-.11.28-.23.63-.32.99,0,0,.11-.03.16-.03.27,0,.4.13.52.18.35.15.59.46.72.82.03.09.06.19.07.3.01.04.02.08.02.12h0c-.02.54-.03,1.15-.03,1.77,0,.74.02,1.47.04,2.19.02.55.06,1.04.1,1.43.04.39.11.69.15.79.13.34.32.78.67,1.08s.85.5,1.76.3c.79-.17,1.28-.41,1.6-.76.33-.35.52-.83.64-1.56.19-1.1.56-4.3.61-4.91.29-1.09.94-1.68,1.02-1.7-.09-.13-.17-.24-.26-.35h0c-.27-.32-.5-.7-.67-1.11v-.03c-.12-.22-.2-.39-.3-.55l.02.04c-.14-.25-.31-.57-.49-.92-.36-.71-.76-1.57-.96-2.41-.2-.84-.23-1.7.29-2.31.46-.54,1.28-.77,2.5-.64-.04-.11-.06-.2-.12-.35-.3-.7-.65-1.31-1.08-1.86-1.03-1.35-2.71-2.68-5.29-2.72h-.12Z"/>
        <path class="cls-4" d="M26.47,15.94c.67-.13,1.35-.48,2.06-.49h.18c1.84.01,4.05.47,5.68,2.27.21.23.36.78.35,1.53s-.18,1.71-.49,2.77c-.58,1.95-1.56,4.83-3.08,6.91-.05-.05.34-1.61.39-3.02.02-1.11-.14-4.25-.26-5.28M23.77,29.06s-1.13,1.26-1.91,1.64c-.78.38-1.44.34-1.57.67-.13.32.2.89,2.22.67,1.62-.17,2.07-1.34,2.07-1.34l-.81-1.64ZM23.1,28.9c-1.86,0-3.53-1.81-3.22-3.86.14-.95.3-4.12.3-4.12M23.1,28.9"/>
      </g>
      <path class="cls-3" d="M21.79,21.76c-.18.04-.25.13-.26.23s.06.22.16.33c.11.11.26.21.43.23h0c.17.02.34-.04.46-.11.13-.09.21-.21.22-.29.01-.11-.06-.21-.19-.28-.23-.12-.57-.17-.82-.11h0Z"/>
      <path class="cls-3" d="M30.26,21.59c-.11-.03-.25-.03-.4-.01-.15.02-.29.07-.38.12-.11.07-.16.14-.16.21,0,.11.11.21.25.29.12.06.24.09.35.07.15-.02.29-.09.41-.22.1-.1.16-.23.15-.3-.01-.08-.09-.14-.21-.17Z"/>
    </g>
  </g>
</svg>