<?xml version="1.0" encoding="UTF-8"?>
<svg id="_Hardware_components" data-name=" Hardware components" xmlns="http://www.w3.org/2000/svg" viewBox="0 0 50 50">
  <defs>
    <style>
      .cls-1 {
        opacity: 0;
      }

      .cls-1, .cls-2 {
        fill: #fff;
      }

      .cls-1, .cls-2, .cls-3 {
        stroke-width: 0px;
      }

      .cls-3 {
        fill: #505861;
      }
    </style>
  </defs>
  <g id="RAM">
    <rect id="BG" class="cls-1" width="50" height="50"/>
    <rect class="cls-3" x="4.5" y="14" width="41" height="19" rx="2" ry="2"/>
    <g>
      <path class="cls-2" d="M21.5,20v6h-11v-6h11M23,18.5h-14v9h14v-9h0Z"/>
      <path class="cls-2" d="M39.5,20v6h-11v-6h11M41,18.5h-14v9h14v-9h0Z"/>
    </g>
    <path class="cls-3" d="M40.56,32c.24,0,.44.2.44.44v3.62c0,.24-.2.44-.44.44h-11.85c-.21,0-.38-.23-.43-.3-.75-1.07-1.97-1.7-3.27-1.7s-2.53.64-3.27,1.7c-.05.07-.22.3-.43.3h-11.85c-.24,0-.44-.2-.44-.44v-3.62c0-.24.2-.44.44-.44h31.12M40.56,30.5H9.44c-1.07,0-1.94.87-1.94,1.94v3.62c0,1.07.87,1.94,1.94,1.94h11.85c.68,0,1.27-.38,1.66-.94.45-.64,1.2-1.06,2.05-1.06s1.59.42,2.05,1.06c.39.56.98.94,1.66.94h11.85c1.07,0,1.94-.87,1.94-1.94v-3.62c0-1.07-.87-1.94-1.94-1.94h0Z"/>
  </g>
</svg>