<?xml version="1.0" encoding="UTF-8"?>
<svg id="Software_3" data-name="Software 3" xmlns="http://www.w3.org/2000/svg" viewBox="0 0 50 50">
  <defs>
    <style>
      .cls-1 {
        fill: #00cf5f;
      }

      .cls-1, .cls-2, .cls-3 {
        stroke-width: 0px;
      }

      .cls-2 {
        opacity: 0;
      }

      .cls-2, .cls-3 {
        fill: #fff;
      }
    </style>
  </defs>
  <g id="RedHat">
    <rect id="BG" class="cls-2" width="50" height="50"/>
    <path class="cls-1" d="M33.19,8H10c-1.1,0-2,.9-2,2v30c0,1.1.9,2,2,2h30c1.1,0,2-.9,2-2v-23.19c0-.53-.21-1.04-.59-1.41l-6.81-6.81c-.38-.38-.88-.59-1.41-.59Z"/>
    <path class="cls-3" d="M29.01,26.39c1.58,0,3.86-.33,3.86-2.2,0-.14,0-.29-.04-.43l-.94-4.08c-.22-.9-.41-1.3-1.98-2.09-1.22-.63-3.89-1.66-4.67-1.66-.73,0-.95.95-1.82.95s-1.47-.71-2.26-.71-1.25.52-1.63,1.58c0,0-1.06,2.99-1.2,3.42-.02.08-.03.16-.03.24,0,1.16,4.58,4.97,10.71,4.97M33.11,24.95c.22,1.03.22,1.14.22,1.28,0,1.76-1.98,2.74-4.59,2.74-5.89,0-11.06-3.45-11.06-5.73,0-.32.06-.63.19-.92-2.12.11-4.86.48-4.86,2.91,0,3.97,9.4,8.86,16.85,8.86,5.71,0,7.15-2.58,7.15-4.62,0-1.6-1.39-3.42-3.89-4.51"/>
  </g>
</svg>