<?xml version="1.0" encoding="UTF-8"?>
<svg id="Veeam_features" data-name="Veeam features" xmlns="http://www.w3.org/2000/svg" viewBox="0 0 50 50">
  <defs>
    <style>
      .cls-1 {
        opacity: 0;
      }

      .cls-1, .cls-2, .cls-3 {
        stroke-width: 0px;
      }

      .cls-1, .cls-3, .cls-4 {
        fill: #fff;
      }

      .cls-2 {
        fill: #00d15f;
      }

      .cls-5 {
        letter-spacing: -.01em;
      }

      .cls-4 {
        font-family: GuardianSans-Bold, 'Guardian Sans';
        font-size: 4.47px;
        font-weight: 700;
      }
    </style>
  </defs>
  <g id="RESTful_API" data-name="RESTful API">
    <rect id="BG" class="cls-1" width="50" height="50"/>
    <path class="cls-2" d="M33.19,8H10c-1.1,0-2,.9-2,2v30c0,1.1.9,2,2,2h30c1.1,0,2-.9,2-2v-23.19c0-.53-.21-1.04-.59-1.41l-6.81-6.81c-.38-.38-.88-.59-1.41-.59Z"/>
    <g>
      <path class="cls-3" d="M35.39,27.83h0c-.59-.33-.9-.95-.85-1.6.02-.24.03-.49.03-.73s-.01-.49-.03-.73c-.05-.65.26-1.27.85-1.6.82-.46,1.1-1.47.63-2.27l-1.38-2.3c-.48-.79-1.53-1.07-2.35-.61h0c-.58.33-1.3.28-1.86-.09-.42-.28-.85-.52-1.31-.73-.61-.28-1.01-.86-1.01-1.51h0c0-.92-.77-1.67-1.72-1.67h-2.76c-.95,0-1.72.74-1.72,1.66h0c0,.66-.4,1.23-1.01,1.51-.46.21-.9.46-1.31.73-.56.37-1.28.42-1.86.09h0c-.82-.46-1.88-.19-2.35.6l-1.38,2.3c-.48.79-.19,1.81.63,2.27.59.33.9.95.85,1.6-.02.24-.03.49-.03.73s.01.49.03.73c.05.65-.26,1.27-.85,1.6-.82.46-1.1,1.47-.63,2.27l1.38,2.3c.48.79,1.53,1.07,2.35.61h0c.58-.33,1.3-.28,1.86.09.42.28.85.52,1.31.73.61.28,1.01.86,1.01,1.51h0c0,.92.77,1.67,1.72,1.67h2.76c.95,0,1.72-.74,1.72-1.66h0c0-.66.4-1.23,1.01-1.51.46-.21.9-.46,1.31-.73.56-.37,1.28-.42,1.86-.09h0c.82.46,1.88.19,2.35-.6l1.38-2.3c.48-.79.19-1.81-.63-2.27ZM25,32c-3.59,0-6.5-2.91-6.5-6.5s2.91-6.5,6.5-6.5,6.5,2.91,6.5,6.5-2.91,6.5-6.5,6.5Z"/>
      <text class="cls-4" transform="translate(19.77 26.94)"><tspan x="0" y="0">RE</tspan><tspan class="cls-5" x="5.47" y="0">S</tspan><tspan x="7.85" y="0">T</tspan></text>
    </g>
  </g>
</svg>