<?xml version="1.0" encoding="UTF-8"?>
<svg id="_Hardware_components" data-name=" Hardware components" xmlns="http://www.w3.org/2000/svg" viewBox="0 0 50 50">
  <defs>
    <style>
      .cls-1 {
        opacity: 0;
      }

      .cls-1, .cls-2 {
        fill: #fff;
      }

      .cls-1, .cls-2, .cls-3 {
        stroke-width: 0px;
      }

      .cls-3 {
        fill: #505861;
      }
    </style>
  </defs>
  <g id="Router">
    <rect id="BG" class="cls-1" y="0" width="50" height="50"/>
    <rect class="cls-3" x="8" y="8" width="34" height="34" rx="2" ry="2"/>
    <path class="cls-2" d="M25,12c7.17,0,13,5.83,13,13s-5.83,13-13,13-13-5.83-13-13,5.83-13,13-13M25,10.5c-8.01,0-14.5,6.49-14.5,14.5s6.49,14.5,14.5,14.5,14.5-6.49,14.5-14.5-6.49-14.5-14.5-14.5h0Z"/>
    <g>
      <polygon class="cls-2" points="22.5 17 22.5 21.44 18.91 17.85 17.85 18.91 21.44 22.5 17 22.5 17 24 22.5 24 24 24 24 22.5 24 17 22.5 17"/>
      <polygon class="cls-2" points="31.5 17 26 17 26 18.5 30.44 18.5 26.85 22.09 27.91 23.15 31.5 19.56 31.5 24 33 24 33 18.5 33 17 31.5 17"/>
      <polygon class="cls-2" points="33 26 27.5 26 26 26 26 27.5 26 33 27.5 33 27.5 28.56 31.09 32.15 32.15 31.09 28.56 27.5 33 27.5 33 26"/>
      <polygon class="cls-2" points="19.56 31.5 23.15 27.91 22.09 26.85 18.5 30.44 18.5 26 17 26 17 31.5 17 33 18.5 33 24 33 24 31.5 19.56 31.5"/>
    </g>
  </g>
</svg>