<?xml version="1.0" encoding="UTF-8"?>
<svg id="Software_3" data-name="Software 3" xmlns="http://www.w3.org/2000/svg" viewBox="0 0 50 50">
  <defs>
    <style>
      .cls-1 {
        fill: #00cf5f;
      }

      .cls-1, .cls-2, .cls-3 {
        stroke-width: 0px;
      }

      .cls-2 {
        opacity: 0;
      }

      .cls-2, .cls-3 {
        fill: #fff;
      }

      .cls-3 {
        fill-rule: evenodd;
      }
    </style>
  </defs>
  <g id="Saleforce">
    <rect id="BG" class="cls-2" width="50" height="50"/>
    <path class="cls-1" d="M33.19,8H10c-1.1,0-2,.9-2,2v30c0,1.1.9,2,2,2h30c1.1,0,2-.9,2-2v-23.19c0-.53-.21-1.04-.59-1.41l-6.81-6.81c-.38-.38-.88-.59-1.41-.59Z"/>
    <g>
      <path class="cls-3" d="M22.08,25.41c-.15,0-.25.05-.32.16-.02.03-.04.08-.06.12h.74c-.01-.05-.03-.09-.05-.12-.07-.11-.17-.16-.31-.16Z"/>
      <path class="cls-3" d="M34.85,25.41c-.15,0-.25.05-.32.16-.02.04-.04.08-.06.12h.74c-.01-.05-.03-.09-.05-.12-.07-.11-.17-.16-.31-.16Z"/>
      <path class="cls-3" d="M28.49,25.42c-.2,0-.27.08-.32.15-.08.12-.12.31-.12.55s.04.43.12.55c.05.07.12.15.32.15s.28-.08.32-.15c.08-.12.12-.31.12-.55s-.04-.42-.12-.55c-.05-.07-.13-.15-.32-.15Z"/>
      <path class="cls-3" d="M18.16,26.41s-.08.07-.08.18c0,.08.02.11.02.12.01.02.01.02.05.05.01,0,.13.08.36.06.1,0,.2-.02.28-.03v-.45c-.08,0-.17-.02-.29-.02-.24,0-.34.08-.34.08Z"/>
      <path class="cls-3" d="M32.46,19.99c-.79,0-1.57.16-2.29.49-.8-1.43-2.32-2.4-4.05-2.4-1.3,0-2.48.55-3.33,1.43-.96-1.26-2.46-2-4.05-2-2.81,0-5.09,2.28-5.09,5.09,0,.7.14,1.38.42,2.02-1.36.8-2.19,2.26-2.19,3.83,0,2.44,1.96,4.42,4.38,4.42.3,0,.6-.03.9-.09.66,1.8,2.39,3.09,4.43,3.09s3.62-1.18,4.34-2.87c.55.27,1.16.42,1.81.42,1.55,0,2.9-.85,3.61-2.12.36.07.73.11,1.11.11,3.12,0,5.65-2.55,5.65-5.7s-2.53-5.7-5.65-5.7ZM19.46,27.41s-.06.02-.11.03c-.06.01-.25.05-.41.08-.33.06-.69.06-.97,0-.14-.03-.27-.08-.38-.17-.11-.08-.2-.19-.26-.31-.03-.06-.05-.13-.07-.21-.09.46-.49.74-1.06.74-.35,0-.62-.06-.9-.21l-.04-.02s-.09-.05-.14-.08l-.04-.04s-.06-.12-.03-.21l.11-.31c.02-.06.07-.11.13-.13.06-.02.13-.01.19.02l.09.06c.2.13.41.19.65.19.11,0,.23-.04.23-.14,0-.08-.22-.15-.39-.2l-.06-.02c-.28-.08-.88-.25-.88-.89,0-.54.44-.93,1.04-.93h.06c.32,0,.64.09.89.24.09.06.13.16.1.26l-.14.39-.1.05c-.09.03-.17-.01-.19-.03-.19-.1-.41-.15-.63-.16-.09,0-.19.03-.19.11s.26.16.41.21h.05c.27.1.74.25.86.69.02-.09.05-.18.09-.25.07-.13.16-.23.28-.32.12-.08.25-.14.38-.18.24-.06.53-.06.7-.05,0,0,.03,0,.08,0-.01-.1-.04-.12-.06-.13-.04-.03-.13-.07-.29-.07h0s-.36,0-.62.14l-.04.02s-.09.03-.16,0l-.06-.03-.04-.09-.11-.3c-.04-.11,0-.21.08-.26.15-.12.48-.19.55-.2.15-.03.3-.04.46-.04.36,0,.64.09.84.26.2.18.31.46.31.83v1.46c0,.08-.04.18-.16.21ZM20.66,27.3c0,.12-.09.21-.21.21h-.42c-.11,0-.21-.09-.21-.21v-3.4c0-.12.09-.21.21-.21h.42c.11,0,.21.09.21.21v3.4ZM23.09,26.41h-1.42c.02.11.06.19.12.25.09.09.24.14.43.14.31.02.46-.05.57-.1.13-.05.26,0,.3.11l.11.29c.05.13-.01.23-.09.27-.14.08-.42.18-.88.18h0c-.24,0-.45-.03-.63-.1-.17-.06-.33-.17-.46-.31-.12-.14-.21-.3-.27-.47-.06-.18-.08-.37-.08-.56,0-.2.03-.38.08-.55.05-.17.13-.33.25-.47.12-.14.26-.25.43-.33.17-.08.37-.12.59-.12h0c.18,0,.35.04.51.11.12.05.24.14.36.27.08.09.19.26.24.44.1.36.06.67.05.75-.01.11-.11.18-.2.18ZM23.56,27.36l-.04-.02s-.09-.05-.14-.08l-.04-.04s-.06-.12-.03-.21l.11-.31c.02-.06.06-.11.12-.13.07-.02.14,0,.19.02l.09.06c.2.12.41.19.64.19.11,0,.23-.04.23-.14,0-.08-.22-.15-.39-.2l-.06-.02c-.28-.08-.88-.25-.88-.89,0-.54.44-.93,1.04-.93h.06c.32,0,.64.09.89.24.09.06.13.16.1.26-.02.04-.1.28-.11.31l-.03.08-.11.05c-.09.03-.16-.02-.19-.03-.19-.1-.41-.15-.63-.16-.1,0-.19.03-.19.11s.26.16.41.21h.05c.31.11.88.29.88.9s-.42.95-1.08.95c-.35,0-.62-.06-.9-.21ZM29.73,26.67c-.05.17-.13.33-.24.47-.11.14-.26.25-.42.32-.32.15-.82.15-1.14,0-.16-.07-.3-.18-.42-.31-.11-.14-.2-.3-.25-.47-.05-.18-.08-.36-.08-.55,0-.2.03-.38.08-.55.01-.05.03-.09.04-.13-.04.02-.09.03-.12.03h-.38l-.33,1.9c-.03.19-.08.38-.15.56-.07.18-.14.3-.24.41-.1.11-.22.2-.36.25-.13.05-.28.07-.45.07-.08,0-.17,0-.27-.03-.05-.01-.11-.03-.16-.05l-.06-.02-.05-.08c-.02-.05-.03-.11,0-.17,0-.01.03-.1.06-.18.02-.07.05-.13.05-.14.05-.13.18-.16.27-.13.02,0,.04.01.06.02.07.02.18.01.23,0,.03,0,.04-.02.07-.06.03-.04.05-.09.09-.18.03-.09.06-.21.09-.37l.32-1.8h-.16c-.09,0-.14-.04-.17-.07l-.05-.06v-.11s.06-.33.06-.33c.02-.12.12-.17.22-.18h.22c.06-.34.18-.6.36-.78.19-.19.46-.29.79-.29.09,0,.18,0,.24.02.07.01.12.02.18.04h.01c.11.05.16.15.13.26l-.13.34c-.05.12-.15.16-.27.12-.1-.03-.21-.03-.29,0-.03,0-.05.02-.07.04-.04.03-.06.07-.08.11-.01.04-.03.09-.04.14h.31c.09,0,.14.04.17.07l.05.05v.11s-.05.27-.05.27c.03-.04.06-.08.09-.12.12-.14.26-.25.42-.32.33-.15.82-.15,1.14,0,.17.08.31.19.42.32.11.13.19.29.24.47.05.17.08.35.08.55s-.03.38-.08.55ZM31.02,25.5s-.09.04-.13.08c-.04.04-.07.1-.1.17-.03.08-.04.22-.04.36v1.19c0,.12-.09.21-.21.21h-.48l-.08-.06s-.06-.09-.06-.15v-2.38c0-.12.09-.21.21-.21h.41c.07,0,.14.04.18.09.03-.02.05-.03.07-.04.11-.05.26-.09.49-.08.11,0,.27.04.32.06.09.04.14.13.13.23v.08l-.03.02c-.03.09-.08.22-.1.28-.04.1-.12.16-.23.15-.09-.02-.23-.03-.32,0ZM33.61,27.43c-.22.09-.49.14-.74.14-.45,0-.81-.14-1.05-.4-.23-.26-.35-.62-.35-1.05,0-.2.03-.39.09-.56.06-.18.14-.33.26-.46.12-.13.27-.24.44-.32.28-.12.68-.13.97-.09.12.02.28.06.35.09.11.05.16.16.12.26l-.12.32c-.03.06-.07.11-.12.13l-.06.03-.09-.03c-.12-.04-.26-.06-.43-.06s-.31.05-.39.17c-.1.13-.15.3-.15.52,0,.24.05.42.16.53.1.1.24.15.42.15.08,0,.16,0,.23-.02.05,0,.11-.03.18-.05l.07-.03.1.03s.09.07.11.12l.11.32c.04.11-.02.22-.1.26ZM36.06,26.22c-.01.12-.12.19-.21.19h-1.42c.02.11.06.19.12.25.09.09.24.14.43.14h0c.31,0,.45-.05.56-.09.13-.05.26-.01.3.11l.1.3c.05.12,0,.23-.09.27-.14.08-.42.18-.88.18h0c-.24,0-.45-.03-.63-.1-.17-.06-.33-.17-.46-.31-.12-.13-.22-.3-.27-.47-.05-.18-.08-.37-.08-.56,0-.19.03-.38.08-.55.05-.18.14-.34.25-.47.12-.14.26-.25.43-.32.29-.14.76-.17,1.11-.01.12.05.24.14.36.27.08.09.19.26.24.44.09.32.07.6.05.74Z"/>
    </g>
  </g>
</svg>