<?xml version="1.0" encoding="UTF-8"?>
<svg id="Software_2" data-name="Software 2" xmlns="http://www.w3.org/2000/svg" viewBox="0 0 50 50">
  <defs>
    <style>
      .cls-1 {
        fill: #00cf5f;
      }

      .cls-1, .cls-2, .cls-3, .cls-4 {
        stroke-width: 0px;
      }

      .cls-2 {
        opacity: 0;
      }

      .cls-2, .cls-3, .cls-4 {
        fill: #fff;
      }

      .cls-3 {
        fill-rule: evenodd;
      }
    </style>
  </defs>
  <g id="sap_hana" data-name="sap hana">
    <rect id="BG" class="cls-2" width="50" height="50"/>
    <path class="cls-1" d="M33.19,8H10c-1.1,0-2,.9-2,2v30c0,1.1.9,2,2,2h30c1.1,0,2-.9,2-2v-23.19c0-.53-.21-1.04-.59-1.41l-6.81-6.81c-.38-.38-.88-.59-1.41-.59Z"/>
    <g>
      <g>
        <g>
          <path class="cls-4" d="M14.32,30.32v2.31h2.67v-2.31h.72v5.51h-.72v-2.58h-2.67v2.58h-.71v-5.51h.71Z"/>
          <path class="cls-4" d="M17.86,35.99h-1.03v-2.58h-2.36v2.58h-1.02v-5.82h1.02v2.31h2.36v-2.31h1.03v5.82ZM17.14,35.68h.41v-5.21h-.41v2.31h-2.97v-2.31h-.4v5.21h.4v-2.58h2.97v2.58Z"/>
        </g>
        <g>
          <path class="cls-4" d="M19.83,34.1l-.57,1.73h-.74l1.87-5.51h.86l1.88,5.51h-.76l-.59-1.73h-1.95ZM21.64,33.54l-.54-1.59c-.12-.36-.2-.69-.29-1.01h-.02c-.08.33-.17.66-.28,1l-.54,1.6h1.66Z"/>
          <path class="cls-4" d="M23.35,35.99h-1.09l-.59-1.73h-1.73l-.57,1.73h-1.06l1.98-5.82h1.08l1.99,5.82ZM22.49,35.68h.44l-1.78-5.21h-.64l-1.77,5.21h.41l.57-1.73h2.18l.59,1.73ZM21.86,33.69h-2.09l.61-1.8c.09-.29.18-.6.27-.99l.03-.12h.24l.06.18c.08.3.15.6.27.94l.61,1.79ZM20.2,33.39h1.23l-.47-1.38c-.06-.17-.11-.33-.15-.48-.05.17-.09.32-.14.47l-.47,1.4Z"/>
        </g>
        <g>
          <path class="cls-4" d="M23.95,35.83v-5.51h.78l1.77,2.79c.41.65.73,1.23.99,1.79h.02c-.07-.74-.08-1.42-.08-2.27v-2.31h.67v5.51h-.72l-1.75-2.8c-.38-.61-.75-1.24-1.03-1.84h-.02c.04.7.06,1.37.06,2.28v2.36h-.67Z"/>
          <path class="cls-4" d="M28.24,35.99h-.96l-1.8-2.87c-.3-.47-.54-.89-.74-1.26.02.48.03.99.03,1.62v2.51h-.98v-5.82h1.02l1.81,2.86c.25.4.48.78.67,1.15-.03-.51-.03-1-.03-1.55v-2.46h.98v5.82ZM27.45,35.68h.48v-5.21h-.36v2.15c0,.8.01,1.49.08,2.25v.1s-.23.12-.23.12l-.08-.14c-.26-.57-.58-1.15-.98-1.77l-1.72-2.72h-.54v5.21h.36v-2.2c0-.93-.02-1.58-.06-2.27v-.12s.24-.08.24-.08l.08.11c.24.51.56,1.09,1.02,1.82l1.71,2.73Z"/>
        </g>
        <g>
          <path class="cls-4" d="M30.22,34.1l-.57,1.73h-.74l1.87-5.51h.86l1.88,5.51h-.76l-.59-1.73h-1.95ZM32.03,33.54l-.54-1.59c-.12-.36-.2-.69-.29-1.01h-.02c-.08.33-.17.66-.28,1l-.54,1.6h1.66Z"/>
          <path class="cls-4" d="M33.74,35.99h-1.09l-.59-1.73h-1.73l-.57,1.73h-1.06l1.98-5.82h1.08l1.99,5.82ZM32.87,35.68h.44l-1.78-5.21h-.64l-1.77,5.21h.41l.57-1.73h2.18l.59,1.73ZM32.24,33.69h-2.09l.61-1.8c.09-.29.18-.6.27-.99l.03-.12h.24l.06.18c.08.3.15.6.27.94l.61,1.79ZM30.58,33.39h1.23l-.47-1.38c-.06-.17-.11-.33-.15-.48-.05.17-.09.32-.14.47l-.47,1.4Z"/>
        </g>
      </g>
      <g>
        <path class="cls-3" d="M13.04,15.72v11.83h12.08l11.83-11.83H13.04ZM27.61,23h-.76v2.26h-3.49l-.35-1.08c-.37.12-.79.19-1.23.19s-.88-.07-1.26-.2l-.36,1.09h-2.14l.24-.63s-.06.05-.09.07c-.53.43-1.2.66-2.03.68h-.12c-.95,0-1.88-.26-2.66-.71l.73-1.44c.79.47,1.28.57,1.95.56.35,0,.6-.07.76-.24.1-.1.15-.23.15-.37,0-.38-.53-.55-1.18-.75-.53-.16-1.13-.39-1.6-.73-.56-.41-.82-.92-.81-1.64,0-.53.2-1,.56-1.37.52-.53,1.35-.86,2.35-.86h0c.86,0,1.91.24,2.67.63l-.82,1.42c-.83-.4-1.25-.44-1.72-.46-.7-.04-1.06.21-1.07.49,0,.33.67.63,1.3.83.96.31,2.18.71,2.37,1.89l1.76-4.68h2.04l2.06,5.6v-5.6h2.35c2.25,0,3.31.8,3.31,2.55,0,1.57-1.09,2.51-2.93,2.51Z"/>
        <path class="cls-3" d="M27.37,19.49h-.52v1.9h.52c.69,0,1.24-.23,1.24-.96s-.55-.94-1.24-.94Z"/>
        <path class="cls-3" d="M21.79,20.25l-.75,2.35c.22.08.48.13.75.13s.52-.05.74-.13l-.73-2.36h-.02Z"/>
      </g>
    </g>
  </g>
</svg>