<?xml version="1.0" encoding="UTF-8"?>
<svg id="datastores" xmlns="http://www.w3.org/2000/svg" viewBox="0 0 50 50">
  <defs>
    <style>
      .cls-1 {
        opacity: 0;
      }

      .cls-1, .cls-2, .cls-3, .cls-4 {
        stroke-width: 0px;
      }

      .cls-1, .cls-3 {
        fill: #fff;
      }

      .cls-2 {
        fill: #00d15f;
      }

      .cls-4 {
        fill: #505861;
      }
    </style>
  </defs>
  <g id="Scale-out_Backup_Repository" data-name="Scale-out Backup Repository">
    <rect id="BG" class="cls-1" width="50" height="50"/>
    <g id="Backup_Repository" data-name="Backup Repository">
      <g>
        <rect class="cls-4" x="6" y="6" width="29" height="8.5" rx="1" ry="1"/>
        <rect class="cls-4" x="6" y="19.5" width="29" height="8.5" rx="1" ry="1"/>
        <rect class="cls-4" x="6" y="33" width="29" height="8.5" rx="1" ry="1"/>
        <rect class="cls-4" x="8" y="16" width="25" height="2" rx="1" ry="1"/>
        <rect class="cls-4" x="8" y="29.5" width="25" height="2" rx="1" ry="1"/>
      </g>
    </g>
    <g>
      <rect class="cls-2" x="22.25" y="22.25" width="23.5" height="23.5" rx="2.85" ry="2.85"/>
      <path class="cls-3" d="M42.9,23c1.16,0,2.1.94,2.1,2.1v17.81c0,1.16-.94,2.1-2.1,2.1h-17.81c-1.16,0-2.1-.94-2.1-2.1v-17.81c0-1.16.94-2.1,2.1-2.1h17.81M42.9,21.5h-17.81c-1.98,0-3.6,1.61-3.6,3.6v17.81c0,1.98,1.61,3.6,3.6,3.6h17.81c1.98,0,3.6-1.61,3.6-3.6v-17.81c0-1.98-1.61-3.6-3.6-3.6h0Z"/>
    </g>
    <g>
      <rect class="cls-3" x="25" y="26.5" width="5" height="5"/>
      <rect class="cls-3" x="38" y="26.5" width="5" height="5"/>
      <rect class="cls-3" x="31.5" y="37.5" width="5" height="5"/>
      <rect class="cls-3" x="29.5" y="28.25" width="9" height="1.5"/>
      <rect class="cls-3" x="28.75" y="33" width="10.5" height="1.5" transform="translate(67.75 -.25) rotate(90)"/>
    </g>
  </g>
</svg>