<?xml version="1.0" encoding="UTF-8"?>
<svg id="Veeam_features_2" data-name="Veeam features 2" xmlns="http://www.w3.org/2000/svg" viewBox="0 0 50 50">
  <defs>
    <style>
      .cls-1 {
        fill: #00cf5f;
      }

      .cls-1, .cls-2, .cls-3, .cls-4 {
        stroke-width: 0px;
      }

      .cls-5 {
        fill: none;
        stroke: #fff;
        stroke-miterlimit: 10;
        stroke-width: 1.5px;
      }

      .cls-2 {
        opacity: 0;
      }

      .cls-2, .cls-4 {
        fill: #fff;
      }

      .cls-3 {
        fill: #00d15f;
      }
    </style>
  </defs>
  <g id="self-service_portal" data-name="self-service portal">
    <rect id="BG" class="cls-2" x="0" width="50" height="50"/>
    <rect class="cls-3" x="8" y="8" width="34" height="34" rx="2" ry="2"/>
    <rect class="cls-4" x="8" y="12" width="34" height="1.5"/>
    <circle class="cls-4" cx="39.25" cy="9.75" r=".75"/>
    <circle class="cls-4" cx="36.25" cy="9.75" r=".75"/>
    <circle class="cls-4" cx="33.25" cy="9.75" r=".75"/>
    <g>
      <g>
        <circle class="cls-5" cx="28.5" cy="21.25" r="3.5"/>
        <path class="cls-5" d="M21.5,35.75v-5.52c0-1.65,1.34-2.98,2.98-2.98h7.53c1.65,0,2.98,1.34,2.98,2.98v5.52"/>
      </g>
      <path class="cls-1" d="M27.28,26.58c.91-1.02,1.47-2.36,1.47-3.83,0-3.17-2.58-5.75-5.75-5.75s-5.75,2.58-5.75,5.75c0,1.45.54,2.77,1.43,3.78-2.74.16-4.93,2.42-4.93,5.2v7.02h4.5v-1.5h9v1.5h4.5v-7.02c0-2.62-1.95-4.78-4.47-5.16Z"/>
      <g>
        <circle class="cls-5" cx="23" cy="22.75" r="3.5"/>
        <path class="cls-5" d="M16,37.25v-5.52c0-1.65,1.34-2.98,2.98-2.98h7.53c1.65,0,2.98,1.34,2.98,2.98v5.52"/>
      </g>
    </g>
  </g>
</svg>