<?xml version="1.0" encoding="UTF-8"?>
<svg id="Data_Center" data-name="Data Center" xmlns="http://www.w3.org/2000/svg" viewBox="0 0 50 50">
  <defs>
    <style>
      .cls-1 {
        fill: none;
        stroke: #fff;
        stroke-miterlimit: 10;
        stroke-width: 1.5px;
      }

      .cls-2 {
        fill: #fff;
        opacity: 0;
      }

      .cls-2, .cls-3 {
        stroke-width: 0px;
      }

      .cls-3 {
        fill: #505861;
      }
    </style>
  </defs>
  <g id="Host_Server_solid" data-name="Host/Server solid">
    <rect id="BG" class="cls-2" width="50" height="50"/>
    <path id="solid" class="cls-3" d="M31.08,6H14c-1.1,0-2,.9-2,2v35.5c0,1.1.9,2,2,2h22c1.1,0,2-.9,2-2V12.9c0-.53-.21-1.04-.59-1.42l-4.92-4.9c-.37-.37-.88-.58-1.41-.58Z"/>
    <g id="lines">
      <g>
        <line class="cls-1" x1="16" y1="16" x2="27" y2="16"/>
        <line class="cls-1" x1="30" y1="16" x2="34" y2="16"/>
      </g>
      <g>
        <line class="cls-1" x1="16" y1="21" x2="27" y2="21"/>
        <line class="cls-1" x1="30" y1="21" x2="34" y2="21"/>
      </g>
      <g>
        <line class="cls-1" x1="16" y1="26" x2="27" y2="26"/>
        <line class="cls-1" x1="30" y1="26" x2="34" y2="26"/>
      </g>
    </g>
  </g>
</svg>