<?xml version="1.0" encoding="UTF-8"?>
<svg id="Miscellaneous" xmlns="http://www.w3.org/2000/svg" viewBox="0 0 50 50">
  <defs>
    <style>
      .cls-1 {
        fill: none;
        stroke: #505861;
        stroke-miterlimit: 10;
        stroke-width: 1.5px;
      }

      .cls-2 {
        fill: #505861;
      }

      .cls-2, .cls-3, .cls-4 {
        stroke-width: 0px;
      }

      .cls-3 {
        opacity: 0;
      }

      .cls-3, .cls-4 {
        fill: #fff;
      }
    </style>
  </defs>
  <g id="_----" data-name="----">
    <rect id="BG" class="cls-3" width="50" height="50"/>
    <rect class="cls-2" x="10" y="10" width="30" height="30" rx="2" ry="2"/>
    <path class="cls-4" d="M22.42,18.85h-6.7c-.95,0-1.71.77-1.71,1.71v12.23c0,.94.77,1.71,1.71,1.71h17.59c.94,0,1.71-.77,1.71-1.71v-15.59c0-.94-.77-1.71-1.71-1.71h-7.34c-.45,0-.89.18-1.21.5l-2.33,2.85Z"/>
    <g>
      <g>
        <circle class="cls-1" cx="28.13" cy="22.53" r="2.22"/>
        <path class="cls-1" d="M23.69,28.23c0-1.04.85-1.89,1.89-1.89h4.77c1.04,0,1.89.85,1.89,1.89v3.49"/>
      </g>
      <g>
        <g>
          <path class="cls-2" d="M23.43,27.25c-2.05,0-3.72-1.67-3.72-3.72s1.67-3.72,3.72-3.72,3.72,1.67,3.72,3.72-1.67,3.72-3.72,3.72ZM23.43,22.82c-.4,0-.72.32-.72.72s.32.72.72.72.72-.32.72-.72-.32-.72-.72-.72Z"/>
          <path class="cls-4" d="M23.43,20.57c1.64,0,2.97,1.33,2.97,2.97s-1.33,2.97-2.97,2.97-2.97-1.33-2.97-2.97,1.33-2.97,2.97-2.97M23.43,25c.81,0,1.47-.66,1.47-1.47s-.66-1.47-1.47-1.47-1.47.66-1.47,1.47.66,1.47,1.47,1.47M23.43,19.07c-2.46,0-4.47,2-4.47,4.47s2,4.47,4.47,4.47,4.47-2,4.47-4.47-2-4.47-4.47-4.47h0Z"/>
        </g>
        <g>
          <path class="cls-2" d="M26.05,33.47v-4.25c0-.22-.17-.39-.39-.39h-4.77c-.22,0-.39.17-.39.39v4.25h-3v-4.25c0-1.87,1.52-3.39,3.39-3.39h4.77c1.87,0,3.39,1.52,3.39,3.39v4.25h-3Z"/>
          <path class="cls-4" d="M25.66,26.58c1.46,0,2.64,1.18,2.64,2.64v3.5h-1.5v-3.5c0-.63-.51-1.14-1.14-1.14h-4.77c-.63,0-1.14.51-1.14,1.14v3.5h-1.5v-3.5c0-1.46,1.18-2.64,2.64-2.64h4.77M25.66,25.08h-4.77c-2.28,0-4.14,1.86-4.14,4.14v5h4.5v-4.64h4.05v4.64h4.5v-5c0-2.28-1.86-4.14-4.14-4.14h0Z"/>
        </g>
      </g>
      <g>
        <circle class="cls-1" cx="23.43" cy="23.53" r="2.22"/>
        <path class="cls-1" d="M19,32.72v-3.49c0-1.04.85-1.89,1.89-1.89h4.77c1.04,0,1.89.85,1.89,1.89v3.49"/>
      </g>
    </g>
  </g>
</svg>