<?xml version="1.0" encoding="UTF-8"?>
<svg id="datastores" xmlns="http://www.w3.org/2000/svg" viewBox="0 0 50 50">
  <defs>
    <style>
      .cls-1, .cls-2 {
        stroke: #fff;
        stroke-miterlimit: 10;
        stroke-width: 1.5px;
      }

      .cls-1, .cls-3 {
        fill: #00d15f;
      }

      .cls-2 {
        fill: none;
      }

      .cls-4 {
        fill: #fff;
        opacity: 0;
      }

      .cls-4, .cls-3, .cls-5 {
        stroke-width: 0px;
      }

      .cls-5 {
        fill: #505861;
      }
    </style>
  </defs>
  <g id="Shared_Repository" data-name="Shared Repository">
    <rect id="BG" class="cls-4" width="50" height="50"/>
    <g id="Backup_Repository" data-name="Backup Repository">
      <g>
        <rect class="cls-5" x="5.5" y="6" width="29" height="8.5" rx="1" ry="1"/>
        <rect class="cls-5" x="5.5" y="19.5" width="29" height="8.5" rx="1" ry="1"/>
        <rect class="cls-5" x="5.5" y="33" width="29" height="8.5" rx="1" ry="1"/>
        <rect class="cls-5" x="7.5" y="16" width="25" height="2" rx="1" ry="1"/>
        <rect class="cls-5" x="7.5" y="29.5" width="25" height="2" rx="1" ry="1"/>
      </g>
    </g>
    <line class="cls-2" x1="29.98" y1="23.51" x2="35" y2="18.5"/>
    <path class="cls-1" d="M21,23.5c-1.38,0-2.5,1.12-2.5,2.5v17c0,1.38,1.12,2.5,2.5,2.5h23.5c1.38,0,2.5-1.12,2.5-2.5v-20.5c0-1.38-1.12-2.5-2.5-2.5h-9.97c-.66,0-1.3.26-1.77.73l-2.78,2.78h-8.98Z"/>
    <g>
      <g>
        <circle class="cls-2" cx="36.56" cy="29" r="2.5"/>
        <path class="cls-2" d="M31.5,36.11c0-1.16.94-2.11,2.1-2.11h5.3c1.16,0,2.1.94,2.1,2.11v3.89"/>
      </g>
      <g>
        <path class="cls-3" d="M31,27.25c1.79,0,3.25,1.46,3.25,3.25s-1.46,3.25-3.25,3.25-3.25-1.46-3.25-3.25,1.46-3.25,3.25-3.25M31,32.25c.96,0,1.75-.79,1.75-1.75s-.79-1.75-1.75-1.75-1.75.79-1.75,1.75.79,1.75,1.75,1.75M31,25.75c-2.62,0-4.75,2.13-4.75,4.75s2.13,4.75,4.75,4.75,4.75-2.13,4.75-4.75-2.13-4.75-4.75-4.75h0ZM31,30.75c-.14,0-.25-.11-.25-.25s.11-.25.25-.25.25.11.25.25-.11.25-.25.25h0Z"/>
        <path class="cls-3" d="M33.85,34.75c1.6,0,2.9,1.28,2.9,2.86v3.89h-1.5v-3.89c0-.75-.63-1.36-1.4-1.36h-5.42c-.77,0-1.4.61-1.4,1.36v3.89h-1.5v-3.89c0-1.58,1.3-2.86,2.9-2.86h5.42M33.85,33.25h-5.42c-2.43,0-4.4,1.95-4.4,4.36v5.39h4.5v-5.25h5.22v5.25h4.5v-5.39c0-2.4-1.97-4.36-4.4-4.36h0Z"/>
      </g>
      <g>
        <circle class="cls-2" cx="31" cy="30.5" r="2.5"/>
        <path class="cls-2" d="M26.28,41.5v-3.89c0-1.16.96-2.11,2.15-2.11h5.42c1.19,0,2.15.94,2.15,2.11v3.89"/>
      </g>
    </g>
  </g>
</svg>