<?xml version="1.0" encoding="UTF-8"?>
<svg id="_Hardware_components" data-name=" Hardware components" xmlns="http://www.w3.org/2000/svg" viewBox="0 0 50 50">
  <defs>
    <style>
      .cls-1 {
        opacity: 0;
      }

      .cls-1, .cls-2 {
        fill: #fff;
      }

      .cls-1, .cls-2, .cls-3 {
        stroke-width: 0px;
      }

      .cls-3 {
        fill: #505861;
      }
    </style>
  </defs>
  <g id="SSD">
    <rect id="BG" class="cls-1" width="50" height="50"/>
    <rect class="cls-3" x="9" y="6" width="32" height="38" rx="2" ry="2"/>
    <path class="cls-2" d="M28.59,11v1.5c.13,0,.25.05.34.14l7.41,6.98c.1.09.16.23.16.36v14.02c0,.28-.22.5-.5.5H14c-.28,0-.5-.22-.5-.5V13.1c0-.27.22-.5.5-.5l14.58-.1v-1.5M28.59,11s0,0-.01,0l-14.58.1c-1.1,0-1.99.9-1.99,2v20.9c0,1.1.9,2,2,2h22c1.1,0,2-.9,2-2v-14.02c0-.55-.23-1.08-.63-1.46l-7.41-6.98c-.37-.35-.86-.54-1.37-.54h0Z"/>
    <rect class="cls-2" x="12" y="37.5" width="26" height="1.5"/>
    <rect class="cls-2" x="36.5" y="40.5" width="1.5" height="1.5" rx=".75" ry=".75"/>
    <rect class="cls-2" x="12" y="40.5" width="1.5" height="1.5" rx=".75" ry=".75"/>
    <rect class="cls-2" x="36.5" y="8.25" width="1.5" height="1.5" rx=".75" ry=".75" transform="translate(46.25 -28.25) rotate(90)"/>
    <rect class="cls-2" x="12" y="8.25" width="1.5" height="1.5" rx=".75" ry=".75"/>
    <g>
      <path class="cls-2" d="M18.46,25.91v-.77c.46.2.99.35,1.59.35.76,0,1.08-.32,1.08-.83,0-.47-.2-.66-.82-.84l-.53-.16c-.79-.23-1.27-.64-1.27-1.58s.62-1.58,1.86-1.58c.74,0,1.13.14,1.45.3v.77c-.35-.14-.8-.28-1.42-.28s-.92.25-.92.71.17.64.72.8l.53.16c.87.25,1.4.62,1.4,1.62,0,1.05-.63,1.71-1.99,1.71-.72,0-1.29-.15-1.67-.36Z"/>
      <path class="cls-2" d="M22.58,25.91v-.77c.46.2.99.35,1.59.35.76,0,1.08-.32,1.08-.83,0-.47-.2-.66-.82-.84l-.53-.16c-.79-.23-1.27-.64-1.27-1.58s.62-1.58,1.86-1.58c.74,0,1.13.14,1.45.3v.77c-.35-.14-.8-.28-1.42-.28s-.93.25-.93.71.17.64.72.8l.53.16c.87.25,1.4.62,1.4,1.62,0,1.05-.64,1.71-1.99,1.71-.72,0-1.29-.15-1.67-.36Z"/>
      <path class="cls-2" d="M27.04,20.6h1.83c1.71,0,2.67.82,2.67,2.64v.17c0,1.53-1.24,2.77-2.77,2.77h-1.73v-5.57ZM28.89,25.4c1.1,0,1.61-.54,1.61-1.9v-.27c0-1.42-.62-1.86-1.69-1.86h-.78v4.03h.86Z"/>
    </g>
  </g>
</svg>