<?xml version="1.0" encoding="UTF-8"?>
<svg id="Veeam_features_2" data-name="Veeam features 2" xmlns="http://www.w3.org/2000/svg" viewBox="0 0 50 50">
  <defs>
    <style>
      .cls-1 {
        opacity: 0;
      }

      .cls-1, .cls-2, .cls-3 {
        stroke-width: 0px;
      }

      .cls-1, .cls-3 {
        fill: #fff;
      }

      .cls-2 {
        fill: #00d15f;
      }

      .cls-4 {
        fill: none;
        stroke: #00d15f;
        stroke-miterlimit: 10;
      }
    </style>
  </defs>
  <g id="SureReplica">
    <rect id="BG" class="cls-1" width="50" height="50"/>
    <rect class="cls-2" x="7" y="7" width="34" height="34" rx="2" ry="2"/>
    <rect class="cls-3" x="13.84" y="13.51" width="20.97" height="20.97" rx="2" ry="2" transform="translate(-9.84 24.23) rotate(-45)"/>
    <rect class="cls-2" x="17" y="17" width="14" height="14" rx="1" ry="1"/>
    <g>
      <path class="cls-3" d="M18.69,21.5h1.13l1.22,3.67h.02l1.21-3.67h1.02l-1.75,5h-1.11l-1.75-5Z"/>
      <path class="cls-3" d="M24.09,21.5h1.51l1.1,3.46h.03l1.09-3.46h1.49v5h-1.09v-3.68h-.02l-1.16,3.68h-.84l-1.15-3.68h-.03v3.68h-.93v-5Z"/>
    </g>
    <g>
      <g>
        <path class="cls-3" d="M39,43c-4.14,0-7.5-3.37-7.5-7.5s3.36-7.5,7.5-7.5,7.5,3.36,7.5,7.5-3.36,7.5-7.5,7.5Z"/>
        <path class="cls-2" d="M39,28.5c3.86,0,7,3.14,7,7s-3.14,7-7,7-7-3.14-7-7,3.14-7,7-7M39,27.5c-4.42,0-8,3.58-8,8s3.58,8,8,8,8-3.58,8-8-3.58-8-8-8h0Z"/>
      </g>
      <polyline class="cls-4" points="35 35 38.5 38.5 43.5 33.5"/>
    </g>
  </g>
</svg>