<?xml version="1.0" encoding="UTF-8"?>
<svg id="_Hardware_components" data-name=" Hardware components" xmlns="http://www.w3.org/2000/svg" viewBox="0 0 50 50">
  <defs>
    <style>
      .cls-1 {
        fill: none;
        stroke: #fff;
        stroke-miterlimit: 10;
      }

      .cls-2 {
        fill: #505861;
      }

      .cls-2, .cls-3, .cls-4 {
        stroke-width: 0px;
      }

      .cls-3 {
        opacity: 0;
      }

      .cls-3, .cls-4 {
        fill: #fff;
      }
    </style>
  </defs>
  <g id="Switch_Virtual_switch" data-name="Switch/Virtual switch">
    <rect id="BG" class="cls-3" width="50" height="50"/>
    <path class="cls-2" d="M41.03,19.08l4.89,4.88c.38.38.59.88.59,1.42v4.12c0,1.1-.9,2-2,2H5.5c-1.1,0-2-.9-2-2v-9c0-1.1.9-2,2-2h34.11c.53,0,1.04.21,1.41.58Z"/>
    <g>
      <path class="cls-4" d="M30,21.5v7H7v-7h23M31,20.5H6v9h25v-9h0Z"/>
      <line class="cls-1" x1="9.5" y1="21" x2="9.5" y2="29"/>
      <line class="cls-1" x1="21.5" y1="21" x2="21.5" y2="29"/>
      <line class="cls-1" x1="27.5" y1="21" x2="27.5" y2="29"/>
      <line class="cls-1" x1="24.5" y1="21" x2="24.5" y2="29"/>
      <line class="cls-1" x1="18.5" y1="21" x2="18.5" y2="29"/>
      <line class="cls-1" x1="12.5" y1="21" x2="12.5" y2="29"/>
      <line class="cls-1" x1="15.5" y1="21" x2="15.5" y2="29"/>
      <line class="cls-1" x1="6.62" y1="24.97" x2="30.62" y2="24.97"/>
    </g>
  </g>
</svg>