<?xml version="1.0" encoding="UTF-8"?>
<svg id="Tapes" xmlns="http://www.w3.org/2000/svg" viewBox="0 0 50 50">
  <defs>
    <style>
      .cls-1 {
        fill: none;
        stroke: #fff;
        stroke-miterlimit: 10;
        stroke-width: 1.5px;
      }

      .cls-2 {
        opacity: 0;
      }

      .cls-2, .cls-3 {
        fill: #fff;
      }

      .cls-2, .cls-3, .cls-4 {
        stroke-width: 0px;
      }

      .cls-4 {
        fill: #505861;
      }
    </style>
  </defs>
  <g id="Tape_media_pool" data-name="Tape media pool">
    <rect id="BG" class="cls-2" x="0" width="50" height="50"/>
    <path class="cls-4" d="M21,11.5H7.77c-1.81,0-3.27,1.47-3.27,3.26v24.48c0,1.79,1.46,3.25,3.25,3.25h33.99c1.79,0,3.25-1.46,3.25-3.25V9.25c0-1.79-1.46-3.25-3.25-3.25h-14c-.86,0-1.7.35-2.31.96l-4.44,4.54Z"/>
    <g>
      <g>
        <g>
          <path class="cls-4" d="M15.75,29.25v-11.27c0-.95.79-1.73,1.75-1.73h17.08c.46,0,.9.18,1.23.5l2.92,2.88c.33.32.52.77.52,1.23v8.39H15.75Z"/>
          <path class="cls-3" d="M34.58,17c.26,0,.51.1.7.29l2.92,2.88c.19.18.29.43.29.7v7.64h-22v-10.52c0-.54.45-.98,1-.98h17.08M34.58,15.5h-17.08c-1.38,0-2.5,1.11-2.5,2.48v12.02h25v-9.14c0-.66-.27-1.3-.74-1.77l-2.92-2.88c-.47-.46-1.09-.72-1.75-.72h0Z"/>
        </g>
        <g>
          <path class="cls-4" d="M17.5,33.25c-.96,0-1.75-.79-1.75-1.75v-2.26h23.5v2.26c0,.96-.79,1.75-1.75,1.75h-20Z"/>
          <path class="cls-3" d="M38.5,29.99v1.51c0,.55-.45,1-1,1h-20c-.55,0-1-.45-1-1v-1.51h22M40,28.49H15v3.01c0,1.38,1.12,2.5,2.5,2.5h20c1.38,0,2.5-1.12,2.5-2.5v-3.01h0Z"/>
        </g>
      </g>
      <rect class="cls-4" x="14.5" y="18" width="2.5" height="1.5"/>
      <rect class="cls-4" x="32.25" y="30.25" width="8" height="1.5" transform="translate(67.25 -5.25) rotate(90)"/>
      <g>
        <g>
          <g>
            <path class="cls-4" d="M11.25,33.25v-11.27c0-.95.79-1.73,1.75-1.73h17.08c.46,0,.9.18,1.23.5l2.92,2.88c.33.32.52.77.52,1.23v8.39H11.25Z"/>
            <path class="cls-3" d="M30.08,21c.26,0,.51.1.7.29l2.92,2.88c.19.18.29.43.29.7v7.64H12v-10.52c0-.54.45-.98,1-.98h17.08M30.08,19.5H13c-1.38,0-2.5,1.11-2.5,2.48v12.02h25v-9.14c0-.66-.27-1.3-.74-1.77l-2.92-2.88c-.47-.46-1.09-.72-1.75-.72h0Z"/>
          </g>
          <g>
            <path class="cls-4" d="M13,37.25c-.96,0-1.75-.79-1.75-1.75v-2.26h23.5v2.26c0,.96-.79,1.75-1.75,1.75H13Z"/>
            <path class="cls-3" d="M34,33.99v1.51c0,.55-.45,1-1,1H13c-.55,0-1-.45-1-1v-1.51h22M35.5,32.49H10.5v3.01c0,1.38,1.12,2.5,2.5,2.5h20c1.38,0,2.5-1.12,2.5-2.5v-3.01h0Z"/>
          </g>
        </g>
        <g>
          <ellipse class="cls-1" cx="18.08" cy="28.04" rx="2.17" ry="2.2"/>
          <ellipse class="cls-1" cx="27.93" cy="28.04" rx="2.17" ry="2.2"/>
          <line class="cls-1" x1="17.93" y1="25.85" x2="28.07" y2="25.85"/>
        </g>
      </g>
    </g>
  </g>
</svg>