<?xml version="1.0" encoding="UTF-8"?>
<svg id="failes" xmlns="http://www.w3.org/2000/svg" viewBox="0 0 50 50">
  <defs>
    <style>
      .cls-1 {
        fill: none;
        stroke: #fff;
        stroke-miterlimit: 10;
      }

      .cls-2 {
        fill: #505861;
      }

      .cls-2, .cls-3, .cls-4 {
        stroke-width: 0px;
      }

      .cls-3 {
        opacity: 0;
      }

      .cls-3, .cls-4 {
        fill: #fff;
      }
    </style>
  </defs>
  <g id="Tasks">
    <rect id="BG" class="cls-3" x="0" width="50" height="50"/>
    <path class="cls-2" d="M33.09,5H11.87c-1.03,0-1.87.84-1.87,1.87v36.26c0,1.03.84,1.87,1.87,1.87h26.26c1.03,0,1.87-.84,1.87-1.87V11.91c0-.5-.2-.97-.55-1.32l-5.04-5.04c-.35-.35-.83-.55-1.32-.55Z"/>
    <path class="cls-4" d="M37.89,12.62h-5.01c-.25,0-.44-.2-.44-.44v-5.01c0-.4.48-.59.76-.31l5.01,5.01c.28.28.08.76-.31.76Z"/>
    <g>
      <rect class="cls-4" x="21.25" y="35" width="15" height="1.5"/>
      <rect class="cls-4" x="21.25" y="28.5" width="15" height="1.5"/>
      <rect class="cls-4" x="21.25" y="22" width="15" height="1.5"/>
      <polyline class="cls-1" points="13.75 20.79 16.11 23.14 19.25 20"/>
      <polyline class="cls-1" points="13.75 27.64 16.11 30 19.25 26.86"/>
      <rect class="cls-1" x="14.75" y="34" width="3.5" height="3.5"/>
    </g>
  </g>
</svg>