<?xml version="1.0" encoding="UTF-8"?>
<svg id="Veeam_features" data-name="Veeam features" xmlns="http://www.w3.org/2000/svg" viewBox="0 0 50 50">
  <defs>
    <style>
      .cls-1 {
        opacity: 0;
      }

      .cls-1, .cls-2, .cls-3 {
        stroke-width: 0px;
      }

      .cls-1, .cls-3 {
        fill: #fff;
      }

      .cls-2 {
        fill: #00d15f;
      }
    </style>
  </defs>
  <g id="Universal_StorageAPI" data-name="Universal StorageAPI">
    <rect id="BG" class="cls-1" width="50" height="50"/>
    <rect class="cls-2" x="8" y="8" width="34" height="34" rx="2" ry="2"/>
    <path class="cls-3" d="M35.25,12.5H14.25c-1.24,0-2.25,1.01-2.25,2.25v21c0,1.24,1.01,2.25,2.25,2.25h21c1.24,0,2.25-1.01,2.25-2.25V14.75c0-1.24-1.01-2.25-2.25-2.25ZM25.12,18.18c.23-.13.38-.38.38-.65v-3.53h9.75c.41,0,.75.34.75.75v9.75h-2.51c0-.08.01-.17.01-.25,0-1.52-1.23-2.75-2.75-2.75s-2.75,1.23-2.75,2.75c0,.08,0,.17.01.25h-2.51v-3.53c0-.27-.14-.52-.38-.65-.23-.13-.52-.13-.75,0-.84.5-1.87-.17-1.87-1.07s1.03-1.57,1.87-1.07c.23.13.52.14.75,0ZM13.5,22.5v-7.75c0-.41.34-.75.75-.75h9.75v2.51c-1.59-.15-3,1.14-3,2.74s1.41,2.89,3,2.74v2.51h-2.99c-.41,0-.8.21-1.02.55-.23.36-.27.81-.09,1.21.11.24.13.5.07.77-.1.46-.49.85-.96.94-.39.08-.76-.02-1.05-.26-.29-.24-.46-.59-.46-.97,0-.17.03-.33.1-.49.17-.39.14-.84-.09-1.2-.23-.35-.62-.56-1.04-.56h-2.97v-2ZM24.38,32.32c-.23.13-.38.38-.38.65v3.53h-9.75c-.41,0-.75-.34-.75-.75v-9.75h2.61c-.07.24-.11.49-.11.75,0,.83.37,1.6,1,2.12.64.52,1.47.73,2.29.57,1.05-.21,1.91-1.05,2.14-2.09.1-.46.09-.92-.04-1.35h2.61v3.53c0,.27.14.52.38.65.23.13.52.13.75,0,.84-.5,1.87.17,1.87,1.07s-1.03,1.57-1.87,1.07c-.23-.13-.52-.14-.75,0ZM36,35.75c0,.41-.34.75-.75.75h-9.75v-2.51c1.59.15,3-1.14,3-2.74s-1.41-2.89-3-2.74v-2.51h3.53c.27,0,.52-.14.65-.38.13-.23.13-.52,0-.75-.12-.2-.18-.41-.18-.62,0-.69.56-1.25,1.25-1.25s1.25.56,1.25,1.25c0,.21-.06.42-.18.62-.13.23-.14.52,0,.75.13.23.38.38.65.38h3.53v9.75Z"/>
  </g>
</svg>