<?xml version="1.0" encoding="UTF-8"?>
<svg id="Miscellaneous" xmlns="http://www.w3.org/2000/svg" viewBox="0 0 50 50">
  <defs>
    <style>
      .cls-1 {
        fill: none;
        stroke: #fff;
        stroke-miterlimit: 10;
        stroke-width: 1.5px;
      }

      .cls-2 {
        fill: #505861;
      }

      .cls-2, .cls-3, .cls-4 {
        stroke-width: 0px;
      }

      .cls-3 {
        fill: #fff;
        opacity: 0;
      }

      .cls-4 {
        fill: #505861;
      }
    </style>
  </defs>
  <g id="User_group" data-name="User group">
    <rect id="BG" class="cls-3" width="50" height="50"/>
    <rect class="cls-2" x="10" y="10" width="30" height="30" rx="2" ry="2"/>
    <g>
      <g>
        <circle class="cls-1" cx="29.21" cy="18.83" r="3.5"/>
        <path class="cls-1" d="M22.56,27.83c0-1.63,1.24-2.94,2.76-2.94h6.97c1.53,0,2.76,1.32,2.76,2.94v5.44"/>
      </g>
      <g>
        <path class="cls-4" d="M22.06,15.85c2.34,0,4.25,1.91,4.25,4.25s-1.91,4.25-4.25,4.25-4.25-1.91-4.25-4.25,1.91-4.25,4.25-4.25M22.06,22.85c1.52,0,2.75-1.23,2.75-2.75s-1.23-2.75-2.75-2.75-2.75,1.23-2.75,2.75,1.23,2.75,2.75,2.75M22.06,14.35c-3.17,0-5.75,2.58-5.75,5.75s2.58,5.75,5.75,5.75,5.75-2.58,5.75-5.75-2.58-5.75-5.75-5.75h0ZM22.06,21.35c-.69,0-1.25-.56-1.25-1.25s.56-1.25,1.25-1.25,1.25.56,1.25,1.25-.56,1.25-1.25,1.25h0Z"/>
        <path class="cls-4" d="M25.66,25.85c1.97,0,3.58,1.61,3.58,3.58v5.24h-1.5v-5.24c0-1.15-.93-2.08-2.08-2.08h-7.14c-1.15,0-2.08.93-2.08,2.08v5.24h-1.5v-5.24c0-1.98,1.61-3.58,3.58-3.58h7.14M25.66,24.35h-7.14c-2.8,0-5.08,2.28-5.08,5.08v6.74h4.5v-6.74c0-.32.26-.58.58-.58h7.14c.32,0,.58.26.58.58v6.74h4.5v-6.74c0-2.8-2.28-5.08-5.08-5.08h0Z"/>
      </g>
      <g>
        <circle class="cls-1" cx="22.06" cy="20.1" r="3.5"/>
        <path class="cls-1" d="M15.69,34.67v-5.24c0-1.56,1.27-2.83,2.83-2.83h7.14c1.56,0,2.83,1.27,2.83,2.83v5.24"/>
      </g>
    </g>
  </g>
</svg>