<?xml version="1.0" encoding="UTF-8"?>
<svg id="Veeam_product_1" data-name="Veeam product 1" xmlns="http://www.w3.org/2000/svg" viewBox="0 0 50 50">
  <defs>
    <style>
      .cls-1 {
        fill: none;
        stroke: #fff;
        stroke-miterlimit: 10;
        stroke-width: 1.5px;
      }

      .cls-2 {
        opacity: 0;
      }

      .cls-2, .cls-3, .cls-4 {
        stroke-width: 0px;
      }

      .cls-2, .cls-4 {
        fill: #fff;
      }

      .cls-3 {
        fill: #00d15f;
      }
    </style>
  </defs>
  <g id="Veeam_Backup_for_Microsoft_Office_365" data-name="Veeam Backup for Microsoft Office 365">
    <rect id="BG" class="cls-2" width="50" height="50"/>
    <path class="cls-3" d="M33.19,8H10c-1.1,0-2,.9-2,2v30c0,1.1.9,2,2,2h30c1.1,0,2-.9,2-2v-23.19c0-.53-.21-1.04-.59-1.41l-6.81-6.81c-.38-.38-.88-.59-1.41-.59Z"/>
    <g>
      <path class="cls-4" d="M31.41,17.01h-.06c-.85,0-1.57-.5-1.86-1.22-.89-2.21-3.23-3.79-5.99-3.79-2.99,0-5.5,1.86-6.19,4.37-.14.52-.56.95-1.1,1.17-2.29.95-3.85,3.08-3.7,5.53.18,3.07,3.13,5.43,6.54,5.43h12.57c3.56,0,6.44-2.63,6.38-5.85-.06-3.16-3.08-5.64-6.59-5.64Z"/>
      <g>
        <rect class="cls-4" x="21.25" y="24.75" width="13" height="6.5"/>
        <path class="cls-3" d="M33.5,25.5v5h-11.5v-5h11.5M35,24h-14.5v8h14.5v-8h0Z"/>
      </g>
      <polyline class="cls-1" points="20.5 34.5 16 34.5 16 30"/>
      <rect class="cls-4" x="22" y="32" width="11.5" height="5"/>
      <rect class="cls-3" x="26" y="33" width="3.5" height="1.5"/>
      <rect class="cls-3" x="26" y="26.5" width="3.5" height="1.5"/>
    </g>
  </g>
</svg>