<?xml version="1.0" encoding="UTF-8"?>
<svg id="failes" xmlns="http://www.w3.org/2000/svg" viewBox="0 0 50 50">
  <defs>
    <style>
      .cls-1 {
        fill: none;
        stroke: #505861;
        stroke-miterlimit: 10;
        stroke-width: 1.5px;
      }

      .cls-2 {
        fill: #505861;
      }

      .cls-2, .cls-3 {
        stroke-width: 0px;
      }

      .cls-3 {
        fill: #fff;
        opacity: 0;
      }
    </style>
  </defs>
  <g id="vbk_file_line" data-name="vbk file line">
    <g>
      <path class="cls-1" d="M33.09,5H11.87c-1.03,0-1.87.84-1.87,1.87v36.26c0,1.03.84,1.87,1.87,1.87h26.26c1.03,0,1.87-.84,1.87-1.87V11.91c0-.5-.2-.97-.55-1.32l-5.04-5.04c-.35-.35-.83-.55-1.32-.55Z"/>
      <path class="cls-1" d="M40,12h-6.49c-.28,0-.51-.23-.51-.51v-6.49"/>
    </g>
    <rect id="BG" class="cls-3" width="50" height="50"/>
    <g>
      <polygon class="cls-2" points="17.22 24.68 21.04 21.02 15.96 19.54 17.22 24.68"/>
      <path class="cls-1" d="M17.74,21.42c1.14-3.24,4.22-5.42,7.66-5.42,4.48,0,8.12,3.64,8.12,8.12s-3.64,8.12-8.12,8.12c-2.25,0-4.35-.9-5.9-2.54"/>
    </g>
    <g>
      <path class="cls-2" d="M18,40.91h.82v.83h-.82v-.83Z"/>
      <path class="cls-2" d="M19.72,37.52h.78l1.15,3.32h.03l1.17-3.32h.71l-1.56,4.23h-.73l-1.56-4.23Z"/>
      <path class="cls-2" d="M25.06,41.75c.02-.27.03-.68.03-1.03v-4.83h.72v2.51h.02c.26-.45.72-.73,1.36-.73.99,0,1.69.83,1.68,2.04,0,1.43-.9,2.14-1.79,2.14-.58,0-1.04-.22-1.34-.75h-.02l-.03.66h-.63ZM25.81,40.15c0,.09.02.18.03.26.14.5.56.85,1.09.85.76,0,1.21-.62,1.21-1.53,0-.8-.41-1.49-1.19-1.49-.49,0-.96.34-1.11.89-.02.08-.04.18-.04.3v.72Z"/>
      <path class="cls-2" d="M31.33,39.59h.02c.1-.14.24-.31.35-.45l1.17-1.38h.87l-1.54,1.64,1.76,2.35h-.88l-1.38-1.91-.37.41v1.5h-.72v-5.86h.72v3.7Z"/>
    </g>
  </g>
</svg>