<?xml version="1.0" encoding="UTF-8"?>
<svg id="failes" xmlns="http://www.w3.org/2000/svg" viewBox="0 0 50 50">
  <defs>
    <style>
      .cls-1 {
        fill: none;
        stroke: #505861;
        stroke-miterlimit: 10;
        stroke-width: 1.5px;
      }

      .cls-2 {
        fill: #505861;
      }

      .cls-2, .cls-3 {
        stroke-width: 0px;
      }

      .cls-3 {
        fill: #fff;
        opacity: 0;
      }
    </style>
  </defs>
  <g id="vbm_file_line" data-name="vbm file line">
    <rect id="BG" class="cls-3" width="50" height="50"/>
    <g>
      <path class="cls-1" d="M33.09,5H11.87c-1.03,0-1.87.84-1.87,1.87v36.26c0,1.03.84,1.87,1.87,1.87h26.26c1.03,0,1.87-.84,1.87-1.87V11.91c0-.5-.2-.97-.55-1.32l-5.04-5.04c-.35-.35-.83-.55-1.32-.55Z"/>
      <path class="cls-1" d="M40,12h-6.49c-.28,0-.51-.23-.51-.51v-6.49"/>
    </g>
    <g>
      <path class="cls-2" d="M15.97,41.06h.83v.84h-.83v-.84Z"/>
      <path class="cls-2" d="M17.69,37.64h.79l1.15,3.33h.03l1.18-3.33h.71l-1.57,4.25h-.73l-1.57-4.25Z"/>
      <path class="cls-2" d="M23.01,41.77v-6h.73v2.13h.04c.32-.2.71-.34,1.28-.34.8,0,1.65.49,1.65,2.07v.12c0,1.42-.74,2.25-2.14,2.25-.49,0-1.2-.09-1.57-.23ZM25.96,39.86v-.18c0-1.13-.39-1.5-1.24-1.5-.4,0-.78.16-.98.24v2.83c.18.07.46.14.89.14.7,0,1.34-.33,1.34-1.52Z"/>
      <path class="cls-2" d="M28.35,37.64h.7v.36h.04c.36-.24.82-.45,1.29-.45s.82.15,1.02.47h.04c.45-.3.94-.47,1.42-.47.75,0,1.18.35,1.18,1.17v3.17h-.73v-3.01c0-.49-.17-.7-.74-.7-.32,0-.66.12-1.03.29,0,.08.02.16.02.25v3.17h-.73v-3.01c0-.49-.17-.7-.74-.7-.34,0-.7.13-1.01.28v3.42h-.73v-4.25Z"/>
    </g>
    <g>
      <path class="cls-1" d="M21.74,31.71l-4.95-4.95c-.39-.39-.39-1.02,0-1.41l8.89-8.89c.19-.19.44-.29.71-.29h5.07c.56,0,1.01.46,1,1.02l-.11,4.94c0,.26-.11.5-.29.68l-8.9,8.9c-.39.39-1.02.39-1.41,0Z"/>
      <circle class="cls-2" cx="27.86" cy="20.64" r="1.5"/>
    </g>
  </g>
</svg>