<?xml version="1.0" encoding="UTF-8"?>
<svg id="datastores" xmlns="http://www.w3.org/2000/svg" viewBox="0 0 50 50">
  <defs>
    <style>
      .cls-1, .cls-2 {
        stroke: #fff;
        stroke-miterlimit: 10;
        stroke-width: 1.5px;
      }

      .cls-1, .cls-3 {
        fill: #00d15f;
      }

      .cls-2 {
        fill: none;
      }

      .cls-4 {
        opacity: 0;
      }

      .cls-4, .cls-3, .cls-5, .cls-6 {
        stroke-width: 0px;
      }

      .cls-4, .cls-5 {
        fill: #fff;
      }

      .cls-6 {
        fill: #505861;
      }
    </style>
  </defs>
  <g id="VBO_Repository" data-name="VBO Repository">
    <rect id="BG" class="cls-4" width="50" height="50"/>
    <g id="Backup_Repository" data-name="Backup Repository">
      <g>
        <rect class="cls-6" x="4.5" y="6" width="29" height="8.5" rx="1" ry="1"/>
        <rect class="cls-6" x="4.5" y="19.5" width="29" height="8.5" rx="1" ry="1"/>
        <rect class="cls-6" x="4.5" y="33" width="29" height="8.5" rx="1" ry="1"/>
        <rect class="cls-6" x="6.5" y="16" width="25" height="2" rx="1" ry="1"/>
        <rect class="cls-6" x="6.5" y="29.5" width="25" height="2" rx="1" ry="1"/>
      </g>
    </g>
    <line class="cls-2" x1="28.98" y1="23.51" x2="34" y2="18.5"/>
    <path class="cls-1" d="M20,23.5c-1.38,0-2.5,1.12-2.5,2.5v17c0,1.38,1.12,2.5,2.5,2.5h23.5c1.38,0,2.5-1.12,2.5-2.5v-20.5c0-1.38-1.12-2.5-2.5-2.5h-9.97c-.66,0-1.3.26-1.77.73l-2.78,2.78h-8.98Z"/>
    <g>
      <path class="cls-5" d="M28.02,28.49h.04c.58,0,1.08-.35,1.28-.85.61-1.54,2.22-2.64,4.11-2.64,2.06,0,3.78,1.3,4.25,3.05.1.36.39.66.76.82,1.57.66,2.64,2.15,2.54,3.85-.12,2.14-2.15,3.78-4.49,3.78h-8.63c-2.44,0-4.42-1.83-4.38-4.08.04-2.2,2.11-3.93,4.52-3.93Z"/>
      <g>
        <rect class="cls-5" x="29.78" y="33.5" width="9" height="4.5"/>
        <path class="cls-3" d="M38.28,34v3.5h-8v-3.5h8M39.28,33h-10v5.5h10v-5.5h0Z"/>
      </g>
      <rect class="cls-3" x="33.28" y="35" width="2" height="1"/>
      <rect class="cls-5" x="30.28" y="38.5" width="8" height="3.5"/>
      <rect class="cls-3" x="33.28" y="39.5" width="2" height="1"/>
      <rect class="cls-5" x="25" y="37.5" width="1" height="3.5"/>
      <rect class="cls-5" x="25.28" y="40" width="4" height="1"/>
    </g>
  </g>
</svg>