<?xml version="1.0" encoding="UTF-8"?>
<svg id="Veeam_product_1" data-name="Veeam product 1" xmlns="http://www.w3.org/2000/svg" viewBox="0 0 50 50">
  <defs>
    <style>
      .cls-1 {
        opacity: 0;
      }

      .cls-1, .cls-2, .cls-3 {
        stroke-width: 0px;
      }

      .cls-1, .cls-3 {
        fill: #fff;
      }

      .cls-2 {
        fill: #00d15f;
      }
    </style>
  </defs>
  <g id="Veeam_Backup_Replication" data-name="Veeam Backup &amp;amp; Replication">
    <rect id="BG" class="cls-1" width="50" height="50"/>
    <path class="cls-2" d="M33.19,7.98H9.98c-1.1,0-2,.9-2,2v30.02c0,1.1.9,2,2,2h30.02c1.1,0,2-.9,2-2v-23.2c0-.53-.21-1.04-.59-1.41l-6.81-6.81c-.38-.38-.88-.59-1.41-.59Z"/>
    <g>
      <polygon class="cls-3" points="33.82 27.62 33.82 33.65 28.41 28.24 27.15 29.5 32.56 34.91 26.53 34.91 26.53 36.7 33.82 36.7 35.61 36.7 35.61 34.91 35.61 27.62 33.82 27.62"/>
      <polygon class="cls-3" points="20.56 14.21 20.56 20.24 15.15 14.83 13.89 16.09 19.3 21.5 13.27 21.5 13.27 23.29 20.56 23.29 22.35 23.29 22.35 21.5 22.35 14.21 20.56 14.21"/>
      <path class="cls-3" d="M24.76,18.79v6.88h6.94v-6.88h-6.94ZM30.05,24.05h-3.64v-3.64h3.64v3.64Z"/>
      <path class="cls-3" d="M17.7,25.75v6.89h6.94v-6.89h-6.94ZM22.99,31.01h-3.64v-3.64h3.64v3.64Z"/>
      <path class="cls-3" d="M24.97,35.45v-.53h-9.87v-9.53h-1.78s-.05,0-.05,0v9.71c0,.3.02.54.05.75v.06h0c.11.55.4.73,1.11.77h0s.41.01.41.01h10.13v-1.25h-.01Z"/>
      <path class="cls-3" d="M34.03,14.21h0s-10.13,0-10.13,0v.02h-.01v1.25h.01v.53h9.87v9.7h.67s0,0,0,0h1.17v-9.9c-.01-1.33-.22-1.6-1.58-1.59Z"/>
    </g>
  </g>
</svg>