<?xml version="1.0" encoding="UTF-8"?>
<svg id="datastores" xmlns="http://www.w3.org/2000/svg" viewBox="0 0 50 50">
  <defs>
    <style>
      .cls-1 {
        fill: #00d15f;
      }

      .cls-1, .cls-2 {
        stroke: #fff;
        stroke-miterlimit: 10;
        stroke-width: 1.5px;
      }

      .cls-2 {
        fill: none;
      }

      .cls-3 {
        opacity: 0;
      }

      .cls-3, .cls-4 {
        fill: #fff;
      }

      .cls-3, .cls-4, .cls-5 {
        stroke-width: 0px;
      }

      .cls-5 {
        fill: #505861;
      }
    </style>
  </defs>
  <g id="VBO_Repository" data-name="VBO Repository">
    <rect id="BG" class="cls-3" width="50" height="50"/>
    <g id="Backup_Repository" data-name="Backup Repository">
      <g>
        <rect class="cls-5" x="4.5" y="6" width="29" height="8.5" rx="1" ry="1"/>
        <rect class="cls-5" x="4.5" y="19.5" width="29" height="8.5" rx="1" ry="1"/>
        <rect class="cls-5" x="4.5" y="33" width="29" height="8.5" rx="1" ry="1"/>
        <rect class="cls-5" x="6.5" y="16" width="25" height="2" rx="1" ry="1"/>
        <rect class="cls-5" x="6.5" y="29.5" width="25" height="2" rx="1" ry="1"/>
      </g>
    </g>
    <line class="cls-2" x1="28.98" y1="23.51" x2="34" y2="18.5"/>
    <path class="cls-1" d="M20,23.5c-1.38,0-2.5,1.12-2.5,2.5v17c0,1.38,1.12,2.5,2.5,2.5h23.5c1.38,0,2.5-1.12,2.5-2.5v-20.5c0-1.38-1.12-2.5-2.5-2.5h-9.97c-.66,0-1.3.26-1.77.73l-2.78,2.78h-8.98Z"/>
    <g>
      <g>
        <rect class="cls-4" x="29" y="27" width="1" height="5.5"/>
        <rect class="cls-4" x="26.83" y="27.02" width="1" height="5.63" transform="translate(67.75 31.6) rotate(135)"/>
        <rect class="cls-4" x="26.75" y="29.25" width="1" height="5.5" transform="translate(59.25 4.75) rotate(90)"/>
      </g>
      <g>
        <rect class="cls-4" x="38.5" y="36.5" width="1" height="5.5"/>
        <rect class="cls-4" x="36.33" y="36.52" width="1" height="5.63" transform="translate(90.68 41.1) rotate(135)"/>
        <rect class="cls-4" x="36.25" y="38.75" width="1" height="5.5" transform="translate(78.25 4.75) rotate(90)"/>
      </g>
      <path class="cls-4" d="M32,27v1h6.5v6.5h1v-6.5c0-.55-.45-1-1-1h-6.5Z"/>
      <path class="cls-4" d="M32,42v-1h-6.5v-6.5h-1v6.5c0,.55.45,1,1,1h6.5Z"/>
      <path class="cls-4" d="M31,35.5v3h-3v-3h3M32,34.5h-5v5h5v-5h0Z"/>
      <path class="cls-4" d="M36,30.5v3h-3v-3h3M37,29.5h-5v5h5v-5h0Z"/>
    </g>
  </g>
</svg>