<?xml version="1.0" encoding="UTF-8"?>
<svg id="Veeam_product_3" data-name="Veeam product 3" xmlns="http://www.w3.org/2000/svg" viewBox="0 0 50 50">
  <defs>
    <style>
      .cls-1 {
        fill: none;
        stroke: #fff;
        stroke-miterlimit: 10;
        stroke-width: 1.5px;
      }

      .cls-2 {
        fill: #fff;
        opacity: 0;
      }

      .cls-2, .cls-3 {
        stroke-width: 0px;
      }

      .cls-3 {
        fill: #00d15f;
      }
    </style>
  </defs>
  <g id="VCSP_Pulse_Plug-in" data-name="VCSP Pulse Plug-in">
    <rect id="BG" class="cls-2" width="50" height="50"/>
    <path class="cls-3" d="M33.19,8H10c-1.1,0-2,.9-2,2v30c0,1.1.9,2,2,2h30c1.1,0,2-.9,2-2v-23.19c0-.53-.21-1.04-.59-1.41l-6.81-6.81c-.38-.38-.88-.59-1.41-.59Z"/>
    <path class="cls-1" d="M13.5,27.45h4.76c.11,0,.21-.06.26-.15l1.12-1.99c.11-.2.4-.21.52,0l.98,1.63c.13.21.45.19.54-.04l3.05-7.6c.11-.27.51-.24.57.04l2.83,12.17c.07.3.49.31.58.03l1.26-3.87c.04-.12.16-.21.29-.21h6.24M34.49,36.47H15.51c-1.1,0-2.01-.9-2.01-2v-17.99c0-1.1.9-2,2.01-2h18.98c1.1,0,2.01.9,2.01,2v17.99c0,1.1-.9,2-2.01,2Z"/>
  </g>
</svg>